<?xml version="1.0" encoding="UTF-8"?>
<svg id="Ebene_1" xmlns="http://www.w3.org/2000/svg" version="1.1" viewBox="0 0 595.28 595.28">
  <!-- Generator: Adobe Illustrator 29.8.3, SVG Export Plug-In . SVG Version: 2.1.1 Build 3)  -->
  <path d="M459.07,261.03c32.2.65,66.06,29.65,69.2,61.42.35,3.57-.76,17.06.21,18.69.22.37,1.89.83,2.61,1.53,10.82,10.36,14.38,17.31,23.02,28.09,5.78,7.21,22.37,13.5,24.53,18.27,4.55,10.05-.6,19.29-11.17,21.7-6.11,1.39-44.49,1.67-50.7.42-7.12-1.43-12.14-7.59-15.21-13.6-11.99,11.43-24.29,21.76-42.23,15.69-16.39-5.54-20.73-28.38-10.71-41.02,7.76-9.8,17.03-11.23,23.28-25.03,3.87-8.55,5.1-13.71.29-22.13-10.35-18.1-30.71-6.63-46.74-15.79-18.18-10.39-15.08-30.24-22.9-46.6-13.81-28.91-51.55-40.53-78.56-21.24-11.37,8.11-9.99,25.85-26.62,34.64-29.19,15.43-46.35-18.25-71.86-24.57-21.55-5.35-51.88,10.59-52.14,34.25-.2,18.84,19.5,39.43,9.53,57.48-4.91,8.89-18,15.69-28.17,15.7-4.98,0-9.65-2.24-14.73-1.71-11.44,1.17-29.11,11.47-23.69,24.66,3.09,7.51,6.38,10.06,5.17,19.83-.78,6.3-10.23,12.68-16.42,13.34-25.47,2.71-55.63-2.06-81.6.05-10.59-2.25-10.38-20.07-4.2-26.34,10.66-10.83,27.42-15.91,42.02-19.04,3.53-31.8,28.73-54.79,59.22-62.52-2.76-22.62-1.3-43.85,10.52-63.81,28.33-47.83,97.36-59.23,142.8-28.24,1.04,0,12.1-12.39,14.49-14.33,28.57-23.27,73.95-27.18,107.79-13.79,31.14,12.32,55.87,41.83,62.98,74.01Z"/>
</svg>