<?xml version="1.0" encoding="UTF-8"?>
<svg id="Ebene_1" xmlns="http://www.w3.org/2000/svg" version="1.1" xmlns:svg="http://www.w3.org/2000/svg" viewBox="0 0 595.28 595.28">
  <!-- Generator: Adobe Illustrator 29.8.3, SVG Export Plug-In . SVG Version: 2.1.1 Build 3)  -->
  <path d="M539.67,152.8c.59-3.71-1.81-6.07-4.71-7.85-9.62-5.9-21.52-10.16-31.34-15.97-2.14-.14-4.63-.39-6.74,0-3.49.65-17.9,7.19-21.85,9.11-6.53,3.17-8.08,5.28-8.37,12.95-4.03-2.22-8.16-3.85-12.86-2.65-2.77.71-17.98,9.29-21.4,11.31-4.21,2.49-8.11,4.82-8.36,10.33l-2.9,37.28-1.77.98c1.01-5.8-.12-9.03-5.09-12.15-6.94-4.36-20.94-11.35-28.58-14.63s-10.91-.56-17.72,2.84c1.69-9.18-5.66-10.74-11.59-14.95l.77-19.53c5.12-3.42,15.33-5.68,16.51-12.69.46-2.74-.02-5.81.15-8.62.57-9.77.86-19.42,1.14-29.24.2-7.09,3.04-12.53-4.24-17.32-4.24-2.8-23.54-11.86-28.31-13.15s-7.45-.45-11.79,1.58c-.44-3.64-2.04-6.1-5.23-7.92-3.95-2.25-19.46-8.02-24.08-9.21-2.81-.72-6.44-.84-9.25-.11-4.43,1.15-19.34,7.11-23.38,9.32-2.62,1.43-5.05,4.23-5.23,7.33-3.7-2.4-7.19-3-11.57-1.94-3.6.87-24.03,10.18-27.38,12.34-2.61,1.68-4.49,3.67-4.85,6.83-.7,6.15.51,12.6.61,18.67.13,8.1.08,15.93.55,23.98.16,2.66-.42,6.21.13,8.63,1.03,4.56,11.84,8.83,15.65,11.21l1.18,20.36c-5.46,2.86-13,5.66-11.71,13.24-6.12-1.83-8.75-4.58-15.34-2.2-4.71,1.7-29.9,13.07-32.21,15.68l-2.66,5.22-1.83-30.01c-.44-3.38-1.27-6.05-4-8.26-8.82-3.1-20.77-12.33-29.32-14.48-4.01-1.01-6.67.32-10.4,1.35.08-3.8-1.04-6.77-4.13-9.02-2.96-2.15-24.59-12.27-27.7-12.6-2.08-.22-3.87-.01-5.87.55-6.06,1.72-26.08,10.25-31.52,13.45-4.18,2.46-5.59,7.15-4.37,11.7-7.3-2.42-11.97-5.32-19.98-3.34-4.01.99-31.86,12.85-34.05,15.01-2.85,2.79-2.88,5.81-2.53,9.59,1.36,14.82,3.89,33.81,6.41,48.49,1.76,10.27,15.65,11.71,20.84,19.46l14.78,119.57c.56,2.93,1.97,5.49,4.34,7.34l45.24,34.19c2.98,1.26,4.57.69,7.47-.13,9.36-2.66,18.94-8.51,28.46-11.24l26.52,16.99c-3.75,9.99-8.61,19.62-13.97,28.84-9.19,8.89-26.31,15.97-34.77,24.81-2.64,2.76-3.15,6.19.11,8.7,11.17,4.86,22.43,11.5,33.68,15.97,4.94,1.96,5.56,2.14,10.28-.45,17.14-9.39,35.62-24.29,52.42-35.18,1.5-.97,7.99-5.4,8.95-5.14l18,12.43.67,33.21c.23,2.73,3.08,5,5.08,6.6,14.71,11.81,37.5,25.65,53.84,36.1,5.03,3.22,10.41,8.12,16.63,5.38l62.6-44.29c1.2-1.47,2.28-3.11,2.56-5.04,1.09-7.7.19-18.24.61-26.26.14-2.58.96-5.3.72-8.04l16.05-10.8,1.55.55c9.31,7.44,20.01,13.57,29.28,20.97,6.65,5.31,17.92,17.65,25.26,20.3,4,1.44,6.5,1.09,10.51-.32l39.25-24.41c3.84-4.24,2.48-6.95-1.64-9.97-11.34-8.32-26.52-14.25-38.04-22.7l-11.96-19.02-.03-1.73,27.55-17.96c1.12-.13,10.24,4.32,12.1,5.2,5.72,2.7,13.75,8.88,20.07,6.47,4.51-1.72,15.52-9.82,20.32-12.97,8.61-5.64,18.66-12.02,26.74-18.23,2.77-2.12,4.96-3.76,6.11-7.33l14.29-124.16c.19-.9.42-1.74,1.06-2.45,2.54-2.8,11.43-6.54,15.1-9.43,1.31-1.03,3.86-3.41,4.44-4.9l5.53-48.8c-.1-6.57,1.62-9.73-4.65-13.45-4.76-2.83-29.54-13.62-34.44-14.62-7.01-1.43-10.17,2.83-16.38,4.41ZM296.74,510.32v14.02l-7.59-4.97v-10.81c2.57.7,4.75,2.25,7.59,1.75ZM304.91,524.34v-14.02l12.84-7.01c.14,2.52,2.7,9.55,1.16,11.38-2.43,2.9-10.76,6.9-14,9.65ZM296.74,386.18v117.13c-4.49-.03-5.67-6.83-10.65-2.93-3.85,3.01-3.1,9.71-4.25,14.03l-18.09-11.69c-.65-1.07-.39-19.56-.32-22.52.08-3.73,2.44-7.48-1.9-9.72-2.68-1.39-5.75-.57-7.98-2.51,3.03-1.71,1.43-18.59.43-19.44-4.18-.53-7.85-3.02-12.12-2.47l-1.76-91.42,2.18.16,54.48,31.38ZM304.91,502.72v-116.54l54.6-33c.41,3.72.43,7.66.32,11.42-.88,27.95-2.24,56.12-2.97,84.07-.2,7.56.28,15.15-.07,22.71-.53,1.54-7.56,3.51-9.45,5.15-5.51,4.78-3.74,14.6-4.18,20.95l-12.86,9.33c-1.27.19-.69-.19-.88-.84-.92-3.02-1.24-14.58-4.97-14.94-2.76-.26-16.13,10.07-19.54,11.7ZM243.01,472.93c2.34.86,3.81,2.94,6.2,4.01s4.82.99,6.94,2.4l-.31,18.12-11.97-8.17-.87-16.36ZM356.3,478.19v9.64c0,.4-4.71,4.43-5.25,3.79l-.23-11.16,5.48-2.28ZM192.71,426.28c.94,1.6-11.1,23.8-12.76,27.09l-34.07,24.97c-2.41.94-5.72-3.34-7.79-4.73-4.52-3.03-10.28-6.6-15.38-8.28l.37-1.21,54.92-38.4,8.62-3.03,6.09,3.6ZM480.68,459.5l-28.78,18.23-2.33.36-39.2-28.01c-2.28-2.51-9.74-19.04-9.02-21.72l10.45-7.78c1.28.68,2.54,1.45,3.9,1.97,18.41,6.91,45.14,25.58,63.04,36.25.6.36,1.23.67,1.94.69ZM249.43,464.17l-6.16-1.73c-.07-3.04-.61-6.09-.86-9.08-.1-1.21-.17-.85.6-.6,2.1.67,4.14,1.74,6.42,1.47v9.93ZM200.84,431.57c.49.86.15,6.94,1.01,8.68l-13.15,7.56,8.48-17.52c.35-1.02,3.56,1.1,3.66,1.28ZM144.32,370.99c.47-3.89-.35-8.58,0-12.56,9.01,2.5,10.52.72,11.67-7.89.52-3.89,1.69-14.04,1.14-17.49-.31-1.99-1.52-2.9-3.07-3.94-4.58-3.09-16.65-8.92-22.01-11.28-1.3-.57-2.64-.89-4.06-.9l-1.2-27.43c8.67,1.18,5.32-8.8,5.26-14.01l16.62,8.2c2.13,4.62-.28,16.28,3.21,19.57,5.33,5.05,17.06,8.73,22.97,13.83,9.3,2.04,4.89-8.22,5.68-13.56.31-.35,3.97,1.65,4.68,2.03,1.98,1.04,12.67,6.72,13.41,7.61,1.95,2.35.77,13.29,1.89,17.39,1.15,4.2,9.16,5.8,12.74,7.7,2.4,1.27,19.36,10.72,19.73,11.81l1.29,58.88c-1.65,11.1,1.95,26.4.56,36.84-.11.81.32,1.01-.87.86l-16.52-11.22c-1.17-13.41.68-28.82-2.89-41.81-2.66-9.67-13.38-27.23-23.95-29.2-7.25-1.35-13.93.8-19.86,4.68-2.52,9.9-6.48,19.31-10.95,28.47l-27.62-18.21-.12-3.39c5.91,2.55,11.32,2.71,12.26-4.97ZM419.77,365.62c-2.7-2.51-11.15-1.49-14.44.09-12.76,6.13-21.18,22.76-22.69,36.3-1.1,9.89.77,21.32-.16,31.39l-18,11.48c1.03-13.9.75-27.85,1.14-41.79s1.36-29.22,1.8-43.76c.11-3.48.13-7.03-.55-10.45,5.15-3.5,10.57-6.61,15.89-9.84,4.87-2.95,14.02-6.15,14.95-12.5.41-2.78.37-14.13,1.6-15.49l16.55-8.71c2.12,4.71-2.51,13.75,4.76,14.31l25.92-12.55c1.04-.88,1.78-1.86,2-3.25.76-4.8.09-11.42.62-16.33.08-.77.18-1.53.54-2.23l15.22-7.98c-.18,5.63-3.93,16.81,5.44,15.06.97-.18,2.87-2.21,2.77-.16l-8.33,89.23-30.49,20.28c-1.09-.24-9.04-17.58-9.86-19.96-.72-2.09-.85-4.6-1.7-7.06-.41-1.19-2.23-5.41-2.96-6.09ZM168.26,420.34l-19.27,12.86,10.21-19.26c.86.86,9.54,5.68,9.06,6.4ZM442.73,424.44l-10.14-6.37-.37-1.21,4.08-1.76c1.46,3.54,4.01,6.46,6.43,9.34ZM209.72,419.77c-.8.83-6.08-2.92-6.93-3.85l5.47-16,1.45,19.86ZM390.17,418.6v-11.68l2.1,9.66-2.1,2.02ZM198.63,412.76l-11.6-6.21c.6-10.7-6.62-25.72,2.67-34.02,3.8-.95,12.53,11.1,14.08,14.39-.31,8.93-3.12,17.26-5.16,25.84ZM408.85,372.45c.5,1.96,1.53,3.44,1.76,5.55.92,8.32-.62,18.29-.08,26.8-.39,1.12-2.43.97-3.63,1.63-1.45.79-8.85,7.11-9.72,6.34-.43-6.33-5.05-16.92-3.83-22.82.94-4.55,7.3-11.22,10.83-14.28.63-.55,4.2-3.56,4.67-3.2ZM173.51,380.05l1.75,27.45c-1.81-1.73-9.73-5.12-9.94-7.32l8.19-20.13ZM424.04,405.17v-12.27l4.62,9.58-4.62,2.69ZM124.46,379.44l-24.52,9.37-4.57-54.49c2.68-4.04,7.95-6.7,11.58-10.05,4.42-4.08,9.78-9.71,6.86-16.23-.22-.5-3.83-6.42-4.11-6.7-3.05-3.09-9.28-2.02-12.66.17-.75.49-3.6,4.13-4.43,2.61l-3.79-42.96,54.32-24.82.9,18.72c-4.17,2.75-15.21,6.46-18.16,9.87-3.14,3.63-.33,13.55-.84,14.06-3.25-.35-6.31.27-6.99,3.85l6.4,96.61ZM500.54,319.29l-6.42,69.52-20.73-10.51c-.44-.83-.34-1.71-.31-2.61.97-28.68,6.99-58.9,8.19-87.66.31-7.39,0-10.99-8.75-9.05-.95-4.36,1.68-11.22.14-15.04s-15.19-6.99-19.16-8.88l.92-21.06,52.46,22.87-2.91,32.83-1.27.88c-6.83-5.17-10.72-3.84-13.42,4.29-.95,2.86-4.5,19.26-2.95,20.97,1.71,1.89,11.52,4.32,14.22,3.45ZM84.17,302.94c-6.16-1.26-11.08,4.56-11.68,10.22-.23,2.18.54,13.5,1.3,15.06,1.93,3.95,13.43,6.69,13.8,7.81l4.16,51.04-21.3-16.36c-.99-4.87.95-19.04-2.6-22.52-1.58-1.55-12.75-4.01-13.67-6.23l-12.64-98.9,2.15.18,37.01,19.19,3.46,40.51ZM554.84,240.43l-9.27,78.64c-.13.69-.52.93-1.05,1.29-3.14,2.14-10.36,3.42-13.82,5.45-7.63,4.47-4.32,13.92-5.14,21.15-8.03,5.09-13.39,7.67-13.36,18.23,0,1.38.65,2.64.62,4.03-.05,3.36-2.03,7.74-1.3,11.6l-9.23,6.24,12.28-126.74c.96,0,1.83-.1,2.73-.47,12.61-5.19,24.94-13.9,37.54-19.41ZM378.37,333.19l-75.96,45.82-2.32.36-79.12-45.04c-1.34-1.39-.59-8.86-.71-11.27-.07-1.38-.58-2.66-.63-4.04-.41-11.05-.34-22.17-.58-33.22,2.56-1.32,5.14-2.85,7.78-4.02,1.27-.56,2.71-.47,4.15-1.11,4.44-1.97,8.66-5.77,13.16-7.83l5.88,2.65-13.77,8.12c-1.29,1.31-1.13,4.07-.19,5.54,1.43,2.24,12.31,5.68,14.84,7.94,1.31,4.57-.12,12.93,1.13,16.98,1.15,3.75,11.04,7.24,14.04,9.9.81,4.28-1.59,15.35,6.18,13.19,4.16-1.16,1.56-15.54,2.28-19.21,2.73-1.4,5.53-5.06,8.6-4.07,3.99,1.3,9.3,6.24,13.48,7.86.53,11.16-.32,22.65,2.4,33.53.52,2.23-1.47,10.27,2.63,6.02,2.54-2.63,1.16-5.78,1.52-8.99.45-3.99,1.53-8.2,1.77-12.25.38-6.51-.5-13.02-.51-19.5,3.29-.8,13.78-8.55,16.26-8.03.49.1,5.34,2.6,5.82,2.99,3.68,3.04-2.38,18.88,5,19,6.62.11,3.2-8.76,4.64-11.14.77-1.26,9.18-4.2,11.02-5.34,6.66-4.11.88-14.5,3.01-20.94,3.62-3.56,21.51-9.12,13.43-15.78-2.03-1.68-11.91-5.99-12.56-7.3-.54-1.1,3.92-2.12,4.71-2.35l24.97,13.55-2.37,47.98ZM542.58,345.58l-2.04,15.77-17.81,11.68c2.33-4.49-.06-10.73.27-15.75l7.15-6.46,12.43-5.23ZM55.56,351.42c8.54.82,7.54,7.21,8.17,14.02l-7.16-5.39-1.01-8.63ZM133.81,365.44l-2.27-.07-1.25-11.31,3.55.59.4.56c.02.24-.43.45-.43.59v9.64ZM146.07,347.33l-16.25-5.35-.67-13.93,17.23,8.75-.3,10.52ZM533.83,340.91v-9.05l10.24-6.12c.96-.15.94-.05.87.86-.24,3.28-1.19,6.89-1.46,10.23-3.11,1.54-5.93,4.21-9.65,4.08ZM184.62,296.5l8.95-5.73,18.21,9.23.86,29.22-4.69-2.15c-.48-4.69.11-11.16-.6-15.64-.44-2.75-3.29-4.32-5.42-5.68-5.23-3.36-11.77-6.33-17.32-9.25ZM412.94,294.75c-5.64,2.85-12.02,5.89-17.32,9.25-2.82,1.79-4.3,2.61-4.81,6.28s.07,13.75-2.07,16.04c-.38.41-2.32,1.5-2.65,1.14l1.86-29.09,15.99-8.87c1.16-.06,9.55,4.53,9.01,5.25ZM102.13,310.09c.32.31,3.68,6.65,3.58,7.03l-11.03,8.59-.89-15.2c1.91-1.81,6.47-2.23,8.33-.43ZM86.5,322.79l-4.38-2.33-.86-8.75,4.07-.6,1.17,11.68ZM333.93,310.71c-1.86-2.06-11.9-6.89-14.71-6.63l-19.81,9.98c-4.38-1.4-13.48-9.34-17.55-9.39-2.9-.03-13.09,6.91-14.9,9.7l-.77.18c-.36-.03-5.21-2.78-5.63-3.17-3.13-2.89.83-14.94-2.67-19.53-1.39-1.82-10.46-5.04-10.2-5.56l4.31-2.6c1.27.23,1.01,3.85,6.36,2.76,1.26-.26,14.17-6.58,15.16-7.46,3.61-3.23.13-15.6,2.5-20.45l23.66-10.29,22.48,10.27c1.74,5.91-1.42,15.65,3.82,19.54,1.38,1.02,14.87,8.11,16.15,8.37,3.57.75,5.82-.11,6.01-3.96l5.83,2.35c-2.43,3.26-10.84,5.54-12,9.31s1.13,16.02.23,17.46l-6.91,3.01c-.09-1.19-.56-3.04-1.35-3.91ZM501.71,310.53l-8.74-2.38,2.3-10.78c2.63-1.12,4.88-.76,7.57-.25l-1.14,13.41ZM173.52,306.44l-15.03-8.33c-1.89-4.61.12-16.1-2.81-19.68-1.99-2.43-14.65-7.53-18.38-9.68-.6-.34-1.47.03-1.16-1.15.13-.48,7.82-4.48,8.93-4.3l17.65,11.01c2.74,2.65,2.77,11.25,3.97,15.31,1.96,6.66,9.51,3.05,6.84-3.04l6.42,2.92c.52.69-6.42,4.01-6.42,6.13v10.81ZM423.46,305.86v-9.64c0-.47-.93-4-1.24-4.6-.63-1.25-2.29-2.37-3.66-2.66l-.36-1.2,7-4.1c.31,2.21-.57,5.59.31,7.58,1.23,2.79,6.1,2.32,6.69-.88.55-3.01.21-14.69,1.17-15.77l19.71-11.29,8.9,3.12-18.94,10.83c-3.46,4.22-.61,18.21-2.96,20.99-.86,1.01-15.99,8.28-16.62,7.61ZM211.47,291.25c-.62.69-14.71-7.64-16.78-8.05-3.68-.73-4.64,1.76-7.01,2.12s-12.44-7.62-15.79-8.21c-.36-5.5-2.35-7.4-6.55-10.38l128.47-59.01.47,32.89c-.27.95-1.11,1.21-1.82,1.68-5.39,3.64-14.91,5.95-20.97,9.4-2.7,1.54-3.58,2.03-3.96,5.38-.35,3.08.69,14.47-.29,16.07l-7.3,3.5c.02-1.26-.17-2.52-.72-3.67-1.51-3.16-13.49-9.38-16.95-8.46-2.26.6-9.98,6.01-12.89,7.55-8.7,4.61-20.4,6.61-17.91,19.17ZM433.97,266.12c-1.83.62-5.42,2.25-6.73,3.5-1.76,1.68-1.11,4.1-2.64,5.54l-13.44,8.8c-1.7.6-4.5-3.09-7.7-2.54-3.81.65-10.75,6.58-14.75,8.08-.82-3.3.77-7.41-2.32-9.94-7.89-4.49-16.06-8.46-24.05-12.74-1.57-.84-5.36-3.89-6.46-4.1-1.96-.39-11.31,5.07-13.02,6.61-2.48,2.23-2.16,4.28-2.6,7.32l-8.75-4.68c-1.98-4.65.51-15.55-2.84-19.06l-26.37-12.46-.28-32.14,131.97,57.82ZM275.13,184.35v10.22c0,5.32,6.39,7.12,7.47,2.21.76-3.47.04-15.74-.5-19.7-.1-.74-.55-1.87-.95-2.5-.93-1.49-13.72-6.96-15.73-7.15-4.37-.41-9.36,3.25-13.65,3.48l-.58-23.37,41.19,17.5,1.39,32.49-.8,1.45-135.07,62.98-6-3.25-1.8-24.42c.04-1.09.16-1.32.99-1.98,3.55-2.77,15.38-5.57,17.31-8.98.34-.61.41-1.48.44-2.18l4.66,1.78c-.17,1.09-.63,1.89-.54,3.09.17,2.34,2.55,15.51,3.63,16.58,2.41,2.4,5.89.6,6.25-2.52.21-1.82-1.59-7.66-1.1-8.34,3.76-.95,8.21-5.57,9.02-9.38,1.21-5.72-1.26-11.33.25-16.69l23.21-10.68c2.7-.54,6.04,1.1,8.32,2.51-.02,1.41-22.86,11.07-24.21,14.32-.64,1.54-.38,5.43-.3,7.28.1,2.48.59,8.18,1.32,10.36,1.09,3.26,4.28,4.6,6.6,1.66,2.48-3.14-.7-11.67.34-15.72l18.89-10.02c2.07,4.09-1.96,19.09,5.71,16.82,3.97-1.18,1.41-11.31,2.25-14.7,1.56-1.43,2.96-1.23,4.59-3.01,5.08-5.56,1.77-13.08,2.63-19.56,3.82-2.77,21.18-10.49,24.97-9.83,1.34.23,2.8,1.94,4.53,1.66.29,1.37-.19.94-.75,1.3-3.93,2.55-17.28,6.76-18.97,10.22-.43.89-.61,1.81-.72,2.79-.33,2.95-.91,12.48-.53,15.14.78,5.49,6.69,5.95,7.87.97,1.08-4.54-.55-10.4.93-15.13l17.42-7.69ZM422.87,231.08l23.09,9.91c.99,4.39-.16,8.9-.37,13.17-.19,3.72,2.18,5.06-3.65,6.62l-140.43-61.34-.15-34.13,41.51-18.93-.58,23.95c-4.58-.65-8.84-3.77-13.59-2.78-1.5.31-11.91,5.86-13.46,6.98-.69.5-1.38.91-1.81,1.69-1.17,2.14-1.44,18.04-.66,20.44,1.34,4.13,7.33,2.11,7.33-2.08v-10.22l16.2,8.32c2.58,2.67-2.3,16.43,4.63,16.65.62.02,2.58-.76,2.96-1.17,2.63-2.83.3-14.92.29-18.98-1.5-3.69-14.32-8.09-18.08-10.53-.56-.37-1.05.06-.75-1.3,1.82-.1,3.52-1.93,5.11-2.24s11.16,2.7,13.13,3.55c3.29,1.41,6.8,4.4,10.25,5.81-.15,10.53-3.42,19.21,9.2,23.22.82,3.42-.76,6.66-.33,10.26.74,6.13,7.6,5.38,7.6,2.32v-13.44l1.4-.83,16.61,8.81c1.04,4.11-1.63,13.75.99,16.83,2.3,2.71,6.19.41,6.67-2.65.37-2.37.32-16.52-.41-18.22-.36-.83-.99-1.31-1.69-1.81-5.56-4.02-14.04-6.67-19.89-10.46-.56-.37-1.05.06-.75-1.3,2.54-.39,4.45-2.91,7.15-2.24l24.93,12.21c-.2,4.37-1.7,9.94-1.08,14.21.8,5.54,6.73,6.48,10.95,8.62.73,4.05-2.18,15.31,4.92,13.83.95-.2,2.77-1.68,2.77-2.53v-10.22ZM161.74,219.31l-76.59,34.66-3.32.81c-20.25-11.1-41.69-20.2-60.77-33.29l-6.25-44.96c.14-.78.9-1.03,1.48-1.38,3.14-1.88,20.09-9.02,23.49-9.79,2.13-.48,3.78-.42,5.84.3l-13.4,6.74c-5.51,7.43,7.55,9.08,10.17,12.56,1.84,2.45,2.27,12.4,3.95,15.91,1.28,2.67,4.76,3.44,5.66,4.86,1.21,1.9.44,8.47,4.91,8.27,6.23-.28,2.87-10.2,2.73-13.87,2.63.06,4.5-1.53,7.26-1.15.77.11,10.47,4.48,10.86,4.93l4.37,25.42c1.2-1.05,1.86-1.53,2.08-3.18.87-6.49-.42-15.16-1.17-21.7l.55-1.11c.6-.47,13.57-4.6,14.55-4.68,1.11-.1,4.74,2.01,5.19,3.06,1.62,3.85.17,16.32,6.22,15.93,5.6-.36,2.82-8.15,3.31-8.71,3.46-1.67,13.07-4.01,15.39-6.51,3.04-3.26.71-13.57,1.59-17.98,3.83-2.77,17.38-4.97,15.42-11.22-1-3.18-10.17-5.4-13.17-6.99-.27-1.51.21-.9.83-1.21,1.06-.54,3.9-1.68,5.02-1.44l22.09,11.23,2.48,31.45-.73,13.05ZM580.46,173.92l-4.55,45.23c-18.77,12.76-39.51,22.13-59.46,32.86l-4.22-.78-74.78-32.8c-.36-15.18-1.57-30.56,1.14-45.51l19.02-10.14c.45,0,8.04,3.26,8.32,3.62,1.1,1.37.25,4.79,3.68,5.96,11.76,3.99,8.7-14.54,11.39-20.68l18.35-7.97,25.65,12.11c-.13,7.17-5.43,14.17,3.42,17.9,9.92,4.18,19.81,5.9,18.94-8.53l6.03-2.39,27.07,11.14ZM446.81,232.25l-22.76-10.22,5.82-3.21c-.51,7.53,11.03,8.29,16.22,11.52,1.06.66.79.59.72,1.91ZM121.45,197.11l-10.41,3.6c1.7-4.43-9.03-10.36-12.02-10.49-4.23-.18-14.15,5.54-18.74,5.63-3.11.06-9.15-4.68-12.73-5.09-4.88-.55-10.2,2.49-14.9,3.52-.79-3.78-1.64-12.64-4.37-15.2-1.3-1.22-4.02-1.68-4.98-3.48l7.27-2.95c3.14,9.92,12.55,4.63,18.11,0,6.08-5.05,2.02-11.36,2.31-18.09l26.18-11,19.02,8.76c1.15,6.01-.41,12.97,3.11,18.21,3.92,5.82,6.61,2.93,12.17,3.9-2.57,2.47-7.52,2.76-9.21,6.26-1.92,3.97.03,11.88-.82,16.42ZM360.89,92.72l-1.37,37.32-61.47,28.5-2.5-.16-60.64-26.39-.59-41.04,20.36-8.6c2.27-.36,4.73,1.63,6.73,2.69l.87,7.6c-.78.75-12.02-7.64-14.29-2.32-2.62,6.16,6.85,7.49,10.71,9.42.83,3.89-1.7,9.76-.2,13.34,1.32,3.15,11.26,5.4,11.85,7.43s-.69,3.85,2.24,5.36c1.54.79,3.09.66,4.46-.48.86-.71,1.57-5.95,1.6-7.36.05-1.99-1.57-4.65-.03-6.41.39-.45,5.38-2.49,6.03-2.47.56.02,8.83,2.71,9.17,3.05l1.74,27.18c5.05-.21,3.15-6.73,3.51-10.21.57-5.56,1.73-10.82,1.24-16.58,4.38-.69,11.82-4.74,15.33-1.18,2.61,2.65-.9,10.36,2.36,13.41,6.38,2.55,5.1-2.77,6.72-5.05s9.16-4.78,11.15-7.54c2.48-3.44-.36-9.02.64-13.09,3.52-1.49,10.37-1.77,9.91-6.79-.59-6.37-10.18-1.33-13.47-.28,1.56-4.55-.22-9.71,6.42-9.1l21.53,9.77ZM270.45,110.74c-8.08-1.15-1.42-10.4-4.08-15.77,11.89-.96,10.56-10.69,10.79-19.87l18.96-7.92,19.81,6.83c.57,4.65-1.01,11.13,1.32,15.33,1.46,2.63,8.01,6.08,11.01,5.04.09,2.63-.1,5.28-.02,7.91.14,4.39,2.21,5.25-3.19,7.86-.88-4.08-9.57-9.02-13.26-8.63-4.05.42-10.49,3.37-14.2,3.28-3.23-.07-10.15-4.11-13.36-3.96-2.9.13-15.89,5.09-13.78,9.9ZM545.51,182.31c0-1.25,1.56-4.08,2.62-4.97,1.23-1.03,11.08-6.36,12.55-6.74,3.18-.83,5.44.74,5.31,4.1-.18,4.52-8.98,5.86-12.02,8.48-1.13,1.85-.24,12.34-1.13,15.23-.75,2.45-5.09,4.68-7.21,5.93-.49,3.77.73,12.13-5.03,11.56-6.13-.61-2-13.93-2.76-18.02-1.75-.26-3.73-1.87-5.41-1.81-.9.03-10.42,3.84-10.87,4.35-1.17,1.33-.4,12.59-.74,15.62-.52,4.64-2.94,13.77-4.33,18.45-.35,1.17-.92,3.22-2.52,3.03l2.34-36.21c-5.24-.51-11.83-4.67-16.79-5.14-.88-.08-3.15.55-3.84,1.01-2.92,1.94.39,25.41-9.94,17.43l-.46-5.63c-.52-.81-15.29-5.19-17.45-7.96-3.02-3.86.5-12.41-.65-17.16-3.33-1.57-15.07-4.93-15.06-9.13.69-2.62,2.03-4.04,4.86-3.77,1.8.17,14.93,6.29,16.43,7.56,4.61,3.92.1,12.37,1.72,17.56l11.07,4.67c1.67-2.68.47-6.65,2.66-9.09,1.05-1.17,8.66-3.7,10.3-3.73,4.76-.1,13.37,5.39,18.02,5.24,3.54-.11,9.12-3.98,12.68-4.88,6.23-1.58,10.28,2.7,15.66,4.86v-10.81ZM498.21,174.72c-.25-3.02-.91-9.02-.53-11.64.73-5.04,5.69-7.93,5.83-.06.05,2.57-1.11,13.89-4.43,13.72-.92-.6-.79-1.1-.87-2.02ZM457.33,339.15c-1.92-5.93-1.39-19.86-10.92-15.88-7.79,3.25-15.99,9.41-23.84,12.95-2.07,1.59-2.26,7.18-1.99,9.6.17,1.5,2.57,8.1,3.34,9.52,3.74,6.9,9.6.42,14.13-1.58,1.29,4.49,1.48,16.49,7.8,16.19,3.56-1.49,19.2-7.61,20.12-10.76.68-2.33-.64-15.53-1.5-18.12-1.15-3.47-4.33-3.87-7.14-1.91ZM457.23,355.42l-9.24,4.18-2.3-11.04,10.47-5.32,1.07,12.17ZM447.4,333.31c.09,1.86,1.36,3.16-.26,4.71-1.72,1.64-11.85,7.41-14.53,8.83-.7.37-1.78,1.45-2.42.5-.63-1.48-2.15-3.52-.88-4.96.6-.68,14.42-8.07,15.93-8.61.72-.26,1.36-.62,2.17-.46ZM325.49,401.23c-.54-3-.59-14.9-.1-17.94.75-4.74,7.24-6.25,9.81-2.29,1.7,2.61,1.65,15.09,1.25,18.61-.16,1.39-.93,3.86-1.93,4.78-3.16,2.92-8.24,1.17-9.03-3.17ZM263.02,399.46c-1.2-3.48-1.22-16.62.13-20.01,1.76-4.45,9.31-3.95,10.2.91.54,2.94.42,14.89.04,18.09s-3.23,5.58-6.6,4.84c-1.81-.4-3.2-2.17-3.77-3.84ZM296.74,263.51c1.2-1.5,4.09-3.69,4.66-.59.97,5.29-.62,13.78-1.16,19.28-.28,2.81,1.17,7.01-1.75,8.46-.69-7.26-6.86-20.81-1.75-27.16ZM66.02,262.39c.54,2.7,1.54,14.45,1.18,16.85-.71,4.76-6.49,6.71-9.71,3.07s-2.1-17.29-2.5-22.3c1.25-3.87,6.4-4.53,9.13-1.86.94.92,1.64,2.93,1.9,4.23ZM529.72,271.66c.09-2.41.38-6.93.75-9.18,1.15-6.98,10.01-7.72,10.92-1.86.45,2.92-.42,16.27-1.28,19.1-.97,3.2-4.41,4.77-7.62,3.82-3.77-1.12-2.89-8.57-2.77-11.88ZM93.52,174.13c-.31,2.27,1.04,5.81-2.34,6.13-.41-7.49-6.17-17.43,1.45-23.19l1.33.56c1.81,5.27.29,11.16-.44,16.51ZM296.71,77.72c4.05-3.02,3.1,4.25,2.78,6.87s-1.41,4.85-2.03,7.31c-.58,2.27.57,6.07-3.06,6.58.58-6.1-3.33-16.55,2.31-20.76Z"/>
</svg>