<?xml version="1.0" encoding="UTF-8"?>
<svg id="Ebene_1" xmlns="http://www.w3.org/2000/svg" version="1.1" xmlns:svg="http://www.w3.org/2000/svg" viewBox="0 0 595.28 595.28">
  <!-- Generator: Adobe Illustrator 29.8.3, SVG Export Plug-In . SVG Version: 2.1.1 Build 3)  -->
  <path d="M24.72,401.27l66.89-28.74,63.14,11.1c4.25-8.59,8.52-17.2,12.54-25.91.46-1,.04-1.92.36-2.56,1.66-3.37,10.69-9.52,13.16-13.2.65-1.72-3.94-7.01-3.2-9.77.48-1.78,4.4-4.59,5.34-6.69,2.39-5.33,3.64-16.02,4.43-21.92l10.6-25.37c.33-.69.92-1.06,1.5-1.5,8.17-6.18,23.46-11.41,30.73-17.81.65-.57,7.6-10.13,7.83-10.75.47-1.26-.8-.87-1.42-.82l-75.27,12.52c.72,1.65,2.47,2.28,4.14,2.44.21.82.11,1.69-.08,2.5-2.12,9.29-12.5,23.87-11.87,33.12.78,11.43,5.66,24.67,6.63,36.35l2.36,1.97-22.49,18.25-2.07,4.82-20.97-52.43-2.41-1.22,22.78-39.22-39.55.6,10.19,10.17-23.86-6.48-60.02,62.52-20.98,32.04c2.57-6.97,4.26-16.91,7.48-23.37,1.49-2.98,5.04-4.21,4.39-8.56-.21-1.37-2.39-2.91-2.17-4.21.34-1.94,6.11-7.88,7.01-10.95,4.29-14.59,4.32-33.53,8.38-48.54l-3.95-22.62,13.93-19.53,1.6-22.37c.47-1.5,3.51-3.14,4.32-4.67,1.08-2.05.41-5.17,1.81-6.58l38.9-19.22c5.92-4.87,12.83-16.91,18.65-20.89,6.07-4.16,17.51-6.13,24.21-9.95s12.75-12.6,19.29-16.66l50.57-8.13,18.13,17.83,36.24,3.31,30.36,21.68,49.81-9.28c-1.72-2.79-5.01-19.99-3.92-21.59l21.89-11.35c-7.27-.57-14.61-.29-21.89-.58-10.99-.44-21.89-1.2-32.96-1.2-6.87,0-6.81,2.09-12.71,3.42-9.54,2.15-29.33,4.9-38.82,4.37-2.43-.14-4.88-1.06-7.47-.63l.66-5.93c6.94-1.61,13.7-1.76,18.98-7.09l31.89-9.16c.4-.43-2.51-3.89-3.01-4.47-5.36-6.26-13.24-8.36-19.67-13.29l3.81-29.55-30.72,3.44c-.96.41-15.43,12.49-16,13.36-1.39,2.12-.96,6.91-1.82,9.57-.7,2.16-2.91,4.3-3.73,6.46-.53,1.4-.58,4.54-1.37,5.22l-30.98,7.37-23.42,16.77-20.4-3.59-8.2-22.65-14.11,9.26-5.66,17.11-13.8,2.98-23.98,46.13-12.27,5.4,29.95-54.07c9.28-8.73,18.62-17.45,27.89-26.21,2.23-2.1,4.92-4.53,6.37-7.15l46.81,8.84,12.1-13.71c5.09-3.09,14.88-5.96,19.2-9.56,6.4-5.33,13.96-17.01,20.36-21.59,5.1-3.65,18.63-11.16,24.47-13.88,1.34-.63,2.85-1.17,4.27-1.61l57.44,8.42,16.6,28.05c5.7-4.44,10.36-11.07,15.88-15.57,3.13-2.55,9.05-4.99,11.47-7.4,1.46-1.45,3.59-6.22,5.03-7.25,4.07-2.93,14.27-3.81,18.88-6.93l78.63,26.2,3.74,2.25,17.1,39.22,16.81,18.9-7.31,29.7,33.79,13.57,12.7,56.86-.13,1.93-5.21,3.91,26.34,43.21c7.93,3.8,17.25,5.94,25.12,9.63,1.01.47,2.39.76,2.88,1.91,4.54,32.43,10.76,64.65,11.48,97.51-.25,1.36-5.05,7.48-6.25,8.73-.62.65-1.05,1.4-2.1,1.19l-12.97-37.7-30.17,8.35c-.3,1.4.19.96.77,1.34,6.05,3.94,7.98,2.13,11.73,9.83,6.52,13.42,12.16,29.88,17.78,43.94,2.57,6.43,7.1,10.62-.72,16.1l-42.73,24.97c4.09,3.63,10.21,5.45,10.22,11.98,0,4.15-5.98,27.91-7.67,32.53-.76,2.07-1.41,3.21-3.15,4.64-18.86,10.87-37.2,20.59-58.73,25.22-22.55-7.96-46.26-12.68-67.73-23.42l-1.18-11.35c2.96-5.38,3.97-10.98,5.37-16.89l-.57-1.15c-8.62-2.55-17.19-6.5-25.78-8.98-11.85-3.43-28.97-7.76-41.07-7.52-12.94.26-30.95.9-43.65,2.49-3.43.43-22.39,4.97-24.89,6.27-.84.44-3.63,3.82-4.24,4.75-.39.6-.97.43-.01,1.21l24.75,7.01c1.3.44,3.37,7.12,3.12,7.68-.22.5-6.73,7.53-7.47,8.08s-1.29,1.21-2.24,1.36c-12.35.35-24.7.43-37.05.7-13.14.29-23.9.62-37.1,0-3.95-.18-11.51.69-14.86-.11-1.65-.39-4.83-3.71-6.96-4.15l11.69-28.37c0-1.76-7.26-7.94-8.43-9.93-1.41-2.39-5.04-16.19-5.75-16.73l-2.19,1.45,1.91,17.12-35.54,29.15,7.05,24.75-95.4,13.37-15.21,7.46-47.56-3.42v-42.84l16.16-29.38,17.93-9.64,18.02-41.3,23.98-18.26c-.18-.64-3.01-1.62-3.44-1.68-2.98-.47-24.57,13.24-29.21,14.88h-18.87ZM451.95,107.65l-8.38-15.32,3.31-16.45-58.78-28.71c-7.5,2.02-17.01,2.1-24.24,4.47-2.34.77-15.06,7.04-16.76,8.41-3.52,2.82-9.78,12.61-13.22,16.74-5.71,6.85-11.67,13.52-17.36,20.39,13.39,3.51,28.25,5.06,41.47,8.86,17.14,4.93,34.61,13.73,51.86,18.88,2.43,1.35,5.19-3.36,6.77-3.22l17.05,6.4.78-.17c5.21-6.14,10.22-13.56,15.68-19.39.49-.53,1.07-.86,1.8-.89ZM399.22,170.58c3.38-6.83,10.68-13.25,14.02-19.83.77-1.52,5.64-14.87,5.15-15.52-7.15,5.1-17.74,7.86-24.76,12.68-2.84,1.95-4.33,5.64-7.04,7.34-4.61,2.87-19.11,6.06-21.85,9.31-.37.44-.94.75-.82,1.44l56.85,55.83c1.57,1.6,4.02,1.12,5.86,1.93,1.4.62,19.25,20.09,20.79,22.35l24.9,80.25-14.05-16.2c-13.58-8.96-27.66-17.84-41.87-25.84-1.43-.81-2.86-1.56-4.52-1.76l2.01-31.77c-9.96-16.14-22.67-30.84-31.44-47.56l-29.64-14.7-18.3,16.19,18.3,3.57c10.23,9.52,27.43,17.77,36.83,27.46,1.63,1.68,13.94,18,14.52,19.46,1.34,3.33-.11,9.06.75,13.04,1.15,5.33,9.08,22.01,11.86,27.68,3.24,6.61,7.7,12.97,10.93,19.63l.58,27.58,42.25,28.46-42.54-14.68c-.48.53,1.13,7.19,1.51,8.37,3.91,12.27,14.91,29.42,15.86,41.67.16,2.02.07,14.63.61,15.27,8.07-1.68,16.58-1.66,24.86-1.8,5.95-.1,5.86-.99,11.64,2.15,11.38,6.19,22.44,16.02,33.79,22.58h1.42s37.37-22.62,37.37-22.62l-58.75-72.51,19.76,2.7-9.58-12.29.88-.29,22.46,11.72,1.54-.32c1.96-8.91,2.36-18.84,4.77-27.58,2.93-10.61,9.07-21.5,12.18-32.21l-26.26-61.87-20.1,13.17-28.46-5.73c.7-11.99,5.67-23.7,8.31-35.42l22.89-31.93-49.94-24.45-28.62,20.49-26.9,4.55ZM145.3,156.64c-.7-1.82-1.46-1.88-3.29-1.52-8.68,4.33-19.47,7.03-27.81,11.76-8.15,4.62-16.29,12.87-24.32,18.22-11.18,7.45-23.89,13.55-34.86,21.47-.42,1.46-2.73,5.99-1.4,7.01,4.97,1.77,10.32,2.92,15.22,4.87.61.25,1.03-.32.82.95-11.78,11.05-23.25,22.32-35.82,32.49l-.8,27.37c-1.29,13.59-8.01,30.18-8.87,43.31-.1,1.47.18,2.44.56,3.8l32.35-33.86c-1.36-1.11-4.26,3.84-4.78,3.3l-5.88-18.2,21.13-25.57.63-13.75,15.43-18.42,26.97-2.56,11.96-17.53,23.97-3.6c10.05-7.41,21.11-11.85,32.8-16.04.39-2.14-2.67-.9-3.02-3.3l1.16-14-32.14-6.21ZM338.1,169.99l-117.89,13.93-4.17,7.05-32.55.87-38.6,25.52-36.28,7.76,8.27,14.57-13.06,18.98c56.43-8.07,111.87-21.3,167.81-32.02,6.41-4.98,11.83-14.35,18.34-18.81,4.75-3.25,21.22-11.36,26.76-13.39,2.19-.8,6.26-1.11,7.55-2.04,1.03-.74,9.42-11.59,10.25-13.12,1.51-2.77,2.22-6.42,3.57-9.3ZM324.92,300.01l-12.92,5.99c-.74,1.18.82,3.36.63,4.88-.39,3.04-3.55,4.42-6.27,3.19-2.2-.99-1.55-4.59-4.2-3.88,2.9,7.17.69,13.81,10.95,10.05,9.12-3.34,11.51-11.22,11.82-20.24ZM284.17,321.88c.48-2.88-.35-6.86,0-9.89-2.08-.21-1.39,3.38-2.55,4.64-1.3,1.41-4.22,1.69-5.83.44-2.97-2.3-.79-6.46-1.2-6.88l-14.98-2.39c2.92,5.58,3.6,11.4,9.78,14.48,3.03,1.51,13.98,4.39,14.79-.41ZM117.44,472.43l13.07-39.36,22.44-20.11,7.18-15.56-70.63-17.63-4.26,10.46-6.51-1.48-14.72,16.76-16.51,30.23,14.89,12.1-5.9,12.5-13.47-6.25-24.36,3.28-11.86,31.74,2.35,33.8,43.11-3.62,6.16-24.4,59.03-22.46ZM460.94,513.32c-2.07-7.43,11.44-15.14,11.98-20.73.54-5.53-12.37-15.66-8.57-22.9l12.03-33.99c-.11-.77-1.84-1.32-2.59-1.44-2.9-.46-12.1.3-15.53.57-2.05.16-4.21.75-6.29.9-3.12,2.85-5.86,6.15-8.99,8.99-5.21,4.73-20.53,16.59-23.31,21.63-1.91,3.47-3.47,8.46-5.13,12.25-.58,1.33-1.84,2.14-2.44,3.56-2.24,5.26-2.64,12.81-5.11,18.24l53.95,12.93ZM263.73,512.79l9.53,20.7c-1.86,3.36-3.68,11.37-6.48,13.66-1.92,1.57-23.87,14.47-25.72,15.03-1.47.45-3.01.33-4.52.26-19.54-.9-39.1-4.2-58.69-4.82l-18.94-9.95,1.23-10.08,28.63-18.7,49.59-11.58c6.58.53,14.95,5.25,21.1,5.9,1.59.17,2.76-.7,4.26-.42ZM250.62,524.7l-12.41-11.27c-1.43-.43-9.46,1.47-11.58,1.96-9.52,2.24-31.35,7.62-39.47,11.46-2.67,1.27-17.83,12.4-20.12,14.63-.59.57-1.13.79-.9,1.78l14.68,5.4,41.84.02c3.9-6.89,6.04-14.53,8.34-22.05l19.63-1.95Z"/>
</svg>