<?xml version="1.0" encoding="UTF-8"?>
<svg id="Ebene_1" xmlns="http://www.w3.org/2000/svg" version="1.1" viewBox="0 0 595.28 595.28">
  <!-- Generator: Adobe Illustrator 29.8.3, SVG Export Plug-In . SVG Version: 2.1.1 Build 3)  -->
  <path d="M583.95,199.28c-33.93,11.58-65.03,29.89-97.48,44.83-5.83,2.68-12.01,4.77-17.85,7.45-39.85,18.33-79.63,36.78-117.45,59.1,22.53,39.92,46.88,78.78,71.95,117.14,12.69,19.42,26.18,38.38,38.66,57.95,16.15,25.34,38.5,58.8,40.04,89.34.16,3.18.47,10.43-.02,13.25-.11.64-.24,1.13-.91,1.38-7.53-1.77-14.96-4.06-22.56-5.51-29.69-5.68-59.96-3.3-89.75-.24-11.58-33.93-29.89-65.03-44.83-97.48-8.56-18.59-16.05-37.69-24.89-56.18-12.36-25.85-26.19-50.97-39.62-76.25-.62-.18-1.12.05-1.68.28-3.32,1.38-10.79,6.93-14.35,9.23-62.89,40.75-125.42,89.7-172.54,148.32-5.26,6.55-12,17.98-17.53,23.3-1.25,1.2-6.13,4.1-7.75,4.35-1.21.19-3.75-6.25-4.53-7.64-4.64-8.15-9.92-16.1-15.38-23.72-1.98-2.76-5.25-5.62-7.05-8.48-3.25-5.17-5.43-13.49-8.23-19.37-6.09-12.82-14.49-24.68-24.63-34.58,26.29-20.95,51.33-43.41,77.34-64.67,20.59-16.83,40.56-32.46,63-46.83,29.1-18.63,59.06-36.11,89.05-53.26.19-.62-.05-1.12-.28-1.68-1.5-3.61-7.85-12.17-10.38-16.07-40.97-62.97-89.52-125.29-148.32-172.54-6.62-5.32-17.43-11.66-22.98-17.27-1.97-1.99-3.48-5.39-4.82-7.86-.13-1.35,6.33-3.85,7.79-4.68,8.16-4.65,16.11-9.88,23.72-15.38,2.77-2.01,5.6-5.2,8.49-7.04,5.16-3.28,13.45-5.42,19.37-8.23,12.82-6.09,24.68-14.49,34.58-24.63,20.94,26.29,43.41,51.33,64.67,77.34,32.59,39.87,56.89,78.55,83.28,122.58,5.62,9.39,11.33,21.65,17.45,30.27.41.58.72,1.22,1.46,1.46.95.24,1.72-.41,2.5-.77,6.9-3.23,15.42-8.87,22.21-12.86,52.32-30.73,101.08-65.02,152.04-97.51,28.47-18.15,66.85-43.92,102.04-40.04.8.09,1.55.02,1.93.94-1.77,7.53-4.06,14.96-5.51,22.56-5.68,29.68-3.29,59.97-.24,89.75ZM421.01,144.12c-47.28-42.44-114.08-59.68-176.25-44.83,11.17,13.97,20.55,29.16,30.48,44.02,37.28-3.38,74.28,6.91,104.03,29.33l41.92-26.86-.19-1.66ZM144.42,312.04c.93-1.9-.78-8.59-.89-11.19-1.31-31.62,3.93-54.67,18.12-82.55.67-1.31,3.1-4.45,3.19-5.49.23-2.51-27.55-35.07-31.4-39.33-.82-.21-.93.51-1.31.93-2.21,2.37-5.36,7.67-7.22,10.6-24.66,38.77-34.73,86.17-28.43,131.83,1.14,8.26,3.08,16.45,5.1,24.52,13.55-10.81,28.33-19.85,42.83-29.32ZM436.79,287.7c1.02,25.67-6.14,51.21-18.28,73.6-1.15,2.12-7.08,10.64-7.01,11.93l27.05,42.88c.88.22.92-.14,1.39-.61,3.5-3.51,8.21-10.48,11.14-14.73,26.91-39,38.76-86.87,33.45-134.16l-47.75,21.09ZM299.58,436.33c-21.21.89-41.61-1.84-61.44-9.28-6.7-2.51-12.87-6.04-19.52-8.65l-39.97,31.36c40.2,29.31,92.78,40.71,142.02,33.06l-21.08-46.48Z"/>
</svg>