<?xml version="1.0" encoding="UTF-8"?>
<svg id="Ebene_1" xmlns="http://www.w3.org/2000/svg" version="1.1" xmlns:svg="http://www.w3.org/2000/svg" viewBox="0 0 595.28 595.28">
  <!-- Generator: Adobe Illustrator 29.8.3, SVG Export Plug-In . SVG Version: 2.1.1 Build 3)  -->
  <path d="M296.13,28.23c167.87-1.52,324.28,134.56,294.11,311.07-25.91,151.62-179.76,240.78-326.45,226.2C109.95,550.21-21.51,419.55,4.6,258.36,27.23,118.63,159.77,29.46,296.13,28.23ZM293.79,77.36c-147.82-1.64-275,147.65-200.19,290.49,83.26,158.99,339.6,152.2,411.53-13.07,61.68-141.71-62.85-278.27-205.06-277.62l-6.29.2ZM176.06,379.55c90.64,82.01,260.45,45,286.6-80.12,22.81-109.18-77.27-187.37-179.39-181.73-135.29,7.48-215.52,163.85-107.21,261.84Z"/>
</svg>