<?xml version="1.0" encoding="UTF-8"?>
<svg id="Ebene_1" xmlns="http://www.w3.org/2000/svg" version="1.1" viewBox="0 0 595.28 595.28">
  <!-- Generator: Adobe Illustrator 29.8.3, SVG Export Plug-In . SVG Version: 2.1.1 Build 3)  -->
  <path d="M284.43.3c240.79-10.45,394.24,256.82,262.3,460.1-113.56,174.96-369.25,180.79-490.72,11.14C-81.64,279.3,49.63,10.49,284.43.3ZM285.64,45.73c-129.65,5.45-235.28,111.92-240.05,241.77-1.58,42.97,5.95,80.12,24.31,118.66,59.74,125.39,209.35,180.06,335.86,119.62,125.23-59.82,179.82-209.62,119.47-336.29-44.01-92.38-137.03-148.07-239.59-143.76ZM357.53,134.07c-17.56,2.25-35.02,5.43-52.3,9.11-22.44,68.16-42.58,137.1-61.2,206.43l81.37-9.07c22.72-71.14,49.17-141,77.11-210.18-15,.21-30.09,1.81-44.98,3.72ZM233.22,383c-7.95,23.39-14.9,47.18-20.04,71.38l84.69-4.53,22.37-71.17-87.02,4.32Z"/>
</svg>