<?xml version="1.0" encoding="UTF-8"?>
<svg id="Ebene_1" xmlns="http://www.w3.org/2000/svg" version="1.1" viewBox="0 0 595.28 595.28">
  <!-- Generator: Adobe Illustrator 29.8.3, SVG Export Plug-In . SVG Version: 2.1.1 Build 3)  -->
  <path d="M350.74,431.77c-6.31,13.79-10.96,28.11-16.26,42.27-1.1,2.95-2.26,5.69-3.02,8.78-1.24,5.06-1.7,8.12-3.7,12.96-1.2,2.91-.98,4.23-3.13,7.05-4.33,5.66-10.79,10.07-17.74,5.72-7.72-4.84-3.75-14.76-1.23-21.45,3.66-9.71,9.32-20.37,14.71-29.24,8.07-13.29,15.99-25.24,27.5-35.88,1.66-1.54,3.94-3.96,6.28-4.08,1.19-.06,2.14.12,2.19,1.42.09,2.18-4.46,9.92-5.62,12.46h0ZM286.41,444c-2.48.32-6,3.36-7.92,5.04-11.41,9.95-20.19,23.81-25.34,38.05-.82,2.26-2.59,9.33-1.58,11.31.23.46,3.7,2.96,4.36,3.28,2.39,1.18,7.62,1.02,10.23.5,2.33-.47,7.4-2.49,8.56-4.63.36-.66,1.86-5.33,1.98-6.12.16-1.05-.05-2.14.06-3.18.25-2.43,1.37-4.37,1.97-6.59.71-2.64.99-5.62,1.61-8.34,1.51-6.55,3.5-13.01,5.96-19.26.79-2.02,3.78-7.2,3.37-9.03-.26-1.17-2.24-1.17-3.24-1.04ZM390.58,459.57c-.1-.83-2.13-.83-2.84-.76-3.05.32-12.26,6.7-14.96,8.87-1.52,1.23-2.82,2.52-4.2,3.9-7.14,7.19-13.51,15.24-17.93,24.41-.7,2.52,1.08,4.9,3.41,5.63,2.02.63,11.4.69,13.7.37,1.74-.24,6.6-3.6,7.2-5.29.83-2.36.77-4.73,1.49-7.07.54-1.77,1.67-3.23,2.33-4.84,2.81-6.83,4.5-12.42,8.28-19.02.75-1.3,3.67-4.98,3.52-6.2h0ZM314.28,98.86c-6.31,13.79-10.96,28.11-16.26,42.27-1.1,2.95-2.26,5.69-3.02,8.78-1.24,5.06-1.7,8.12-3.7,12.96-1.2,2.91-.98,4.23-3.13,7.05-4.33,5.66-10.79,10.07-17.74,5.72-7.72-4.84-3.75-14.76-1.23-21.45,3.66-9.71,9.32-20.37,14.71-29.24,8.07-13.29,15.99-25.24,27.5-35.88,1.66-1.54,3.94-3.96,6.28-4.08,1.19-.06,2.14.12,2.19,1.42.09,2.18-4.46,9.92-5.62,12.46h0ZM249.96,111.1c-2.48.32-6,3.36-7.92,5.04-11.41,9.95-20.19,23.81-25.34,38.05-.82,2.26-2.59,9.33-1.58,11.31.23.46,3.7,2.96,4.36,3.28,2.39,1.18,7.62,1.02,10.23.5,2.33-.47,7.4-2.49,8.56-4.63.36-.66,1.86-5.33,1.98-6.12.16-1.05-.05-2.14.06-3.18.25-2.43,1.37-4.37,1.97-6.59.71-2.64.99-5.62,1.61-8.34,1.51-6.55,3.5-13.01,5.96-19.26.79-2.02,3.78-7.2,3.37-9.03-.26-1.17-2.24-1.17-3.24-1.04ZM354.13,126.67c-.1-.83-2.13-.83-2.84-.76-3.05.32-12.26,6.7-14.96,8.87-1.52,1.23-2.82,2.52-4.2,3.9-7.14,7.19-13.51,15.24-17.93,24.41-.7,2.52,1.08,4.9,3.41,5.63,2.02.63,11.4.69,13.7.37,1.74-.24,6.6-3.6,7.2-5.29.83-2.36.77-4.73,1.49-7.07.54-1.77,1.67-3.23,2.33-4.84,2.81-6.83,4.5-12.42,8.28-19.02.75-1.3,3.67-4.98,3.52-6.2h0ZM173.4,283.1c-6.31,13.79-10.96,28.11-16.26,42.27-1.1,2.95-2.26,5.69-3.02,8.78-1.24,5.06-1.7,8.12-3.7,12.96-1.2,2.91-.98,4.23-3.13,7.05-4.33,5.66-10.79,10.07-17.74,5.72-7.72-4.84-3.75-14.76-1.23-21.45,3.66-9.71,9.32-20.37,14.71-29.24,8.07-13.29,15.99-25.24,27.5-35.88,1.66-1.54,3.94-3.96,6.28-4.08,1.19-.06,2.14.12,2.19,1.42.09,2.18-4.46,9.92-5.62,12.46h0ZM109.08,295.34c-2.48.32-6,3.36-7.92,5.04-11.41,9.95-20.19,23.81-25.34,38.05-.82,2.26-2.59,9.33-1.58,11.31.23.46,3.7,2.96,4.36,3.28,2.39,1.18,7.62,1.02,10.23.5,2.33-.47,7.4-2.49,8.56-4.63.36-.66,1.86-5.33,1.98-6.12.16-1.05-.05-2.14.06-3.18.25-2.43,1.37-4.37,1.97-6.59.71-2.64.99-5.62,1.61-8.34,1.51-6.55,3.5-13.01,5.96-19.26.79-2.02,3.78-7.2,3.37-9.03-.26-1.17-2.24-1.17-3.24-1.04ZM213.25,310.91c-.1-.83-2.13-.83-2.84-.76-3.05.32-12.26,6.7-14.96,8.87-1.52,1.23-2.82,2.52-4.2,3.9-7.14,7.19-13.51,15.24-17.93,24.41-.7,2.52,1.08,4.9,3.41,5.63,2.02.63,11.4.69,13.7.37,1.74-.24,6.6-3.6,7.2-5.29.83-2.36.77-4.73,1.49-7.07.54-1.77,1.67-3.23,2.33-4.84,2.81-6.83,4.5-12.42,8.28-19.02.75-1.3,3.67-4.98,3.52-6.2h0ZM481.51,254.87c-6.31,13.79-10.96,28.11-16.26,42.27-1.1,2.95-2.26,5.69-3.02,8.78-1.24,5.06-1.7,8.12-3.7,12.96-1.2,2.91-.98,4.23-3.13,7.05-4.33,5.66-10.79,10.07-17.74,5.72-7.72-4.84-3.75-14.76-1.23-21.45,3.66-9.71,9.32-20.37,14.71-29.24,8.07-13.29,15.99-25.24,27.5-35.88,1.66-1.54,3.94-3.96,6.28-4.08,1.19-.06,2.14.12,2.19,1.42.09,2.18-4.46,9.92-5.62,12.46h0ZM417.18,267.11c-2.48.32-6,3.36-7.92,5.04-11.41,9.95-20.19,23.81-25.34,38.05-.82,2.26-2.59,9.33-1.58,11.31.23.46,3.7,2.96,4.36,3.28,2.39,1.18,7.62,1.02,10.23.5,2.33-.47,7.4-2.49,8.56-4.63.36-.66,1.86-5.33,1.98-6.12.16-1.05-.05-2.14.06-3.18.25-2.43,1.37-4.37,1.97-6.59.71-2.64.99-5.62,1.61-8.34,1.51-6.55,3.5-13.01,5.96-19.26.79-2.02,3.78-7.2,3.37-9.03-.26-1.17-2.24-1.17-3.24-1.04ZM521.35,282.68c-.1-.83-2.13-.83-2.84-.76-3.05.32-12.26,6.7-14.96,8.87-1.52,1.23-2.82,2.52-4.2,3.9-7.14,7.19-13.51,15.24-17.93,24.41-.7,2.52,1.08,4.9,3.41,5.63,2.02.63,11.4.69,13.7.37,1.74-.24,6.6-3.6,7.2-5.29.83-2.36.77-4.73,1.49-7.07.54-1.77,1.67-3.23,2.33-4.84,2.81-6.83,4.5-12.42,8.28-19.02.75-1.3,3.67-4.98,3.52-6.2h0Z"/>
</svg>