<?xml version="1.0" encoding="UTF-8"?>
<svg id="Ebene_1" xmlns="http://www.w3.org/2000/svg" version="1.1" viewBox="0 0 595.28 595.28">
  <!-- Generator: Adobe Illustrator 29.8.3, SVG Export Plug-In . SVG Version: 2.1.1 Build 3)  -->
  <path d="M413.34,173.44c-24.3,53.1-42.18,108.22-62.6,162.72-4.25,11.35-8.71,21.92-11.62,33.8-4.76,19.48-6.53,31.27-14.23,49.9-4.63,11.21-3.76,16.3-12.05,27.13-16.68,21.77-41.53,38.78-68.28,22.01-29.71-18.62-14.45-56.82-4.74-82.57,14.09-37.37,35.88-78.4,56.64-112.57,31.08-51.15,61.54-97.17,105.88-138.14,6.4-5.92,15.15-15.23,24.19-15.69,4.58-.23,8.22.45,8.42,5.46.34,8.38-17.15,38.19-21.62,47.95ZM165.72,220.55c-9.56,1.22-23.09,12.95-30.5,19.42-43.92,38.3-77.71,91.64-97.56,146.46-3.15,8.69-9.98,35.9-6.1,43.54.9,1.78,14.26,11.38,16.77,12.62,9.21,4.53,29.35,3.94,39.4,1.93,8.96-1.8,28.47-9.58,32.95-17.81,1.39-2.55,7.15-20.52,7.62-23.55.63-4.06-.18-8.25.23-12.24.95-9.36,5.27-16.83,7.58-25.38,2.73-10.15,3.8-21.65,6.2-32.09,5.8-25.21,13.49-50.07,22.93-74.14,3.04-7.76,14.54-27.71,12.96-34.75-1.01-4.51-8.63-4.5-12.48-4.01ZM566.72,280.48c-.39-3.18-8.2-3.21-10.95-2.92-11.76,1.24-47.19,25.81-57.59,34.16-5.87,4.72-10.87,9.7-16.15,15.02-27.47,27.69-52,58.68-69.02,93.95-2.7,9.69,4.15,18.86,13.12,21.67,7.79,2.44,43.87,2.64,52.73,1.44,6.68-.91,25.41-13.84,27.71-20.38,3.18-9.08,2.98-18.19,5.74-27.22,2.08-6.8,6.41-12.45,8.96-18.65,10.82-26.29,17.31-47.83,31.88-73.21,2.87-5,14.14-19.16,13.56-23.87Z"/>
</svg>