<?xml version="1.0" encoding="UTF-8"?>
<svg id="Ebene_1" xmlns="http://www.w3.org/2000/svg" version="1.1" xmlns:svg="http://www.w3.org/2000/svg" viewBox="0 0 595.28 595.28">
  <!-- Generator: Adobe Illustrator 29.8.3, SVG Export Plug-In . SVG Version: 2.1.1 Build 3)  -->
  <path d="M282.13,444.11c.55-3.89,7.34-12.32,10.97-13.58,5.72-1.98,13.85-.12,19.69-.13,6.13,0,14.51-.02,20.48-.62,3.2-.32,6.21-1.92,9.43-2.26,3.32-.35,9.23-.51,12.11,1.18,3.12,1.83,9.55,12.98,10.27,16.62.26,1.31-.53,4.49.97,4.85,9.8-3.18,20.25-2.08,30.09-4.38,1.16-6.27-3.61-17.46.81-22.46,6.71-7.6,13.45-5.95,22.09-7.72s26.97-8.1,34.75-4.06c1.87.97,3.53,3.06,5.24,4.11,6.09,3.76,11.87,4.35,11.31,13.53.85.87,7.81-1.65,9.16-2.23,1.14-.49,8.99-4.32,9.26-4.77,1.44-2.38-2.41-9.41-1.91-13.59.62-5.17,2.28-6.4,6.47-8.73,6.93-3.86,16.13-6.23,23.41-9.91,4.39-2.22,16.53-11.13,20.45-10.85,1.12.08,2.11,1.06,3.28.99,0-1.92.82-3.5,2.77-4,4.09.26,5.6,4.73,6.6,8.09,4.88-.71,2.39-5.1,2.55-8.37.12-2.5.82-10.6,2.38-12.11.75-.72,2.55-1.07,2.63-1.19.24-.35-.45-1.91-.3-2.9.34-2.23,2.58-4.59,2.69-5.55.03-.3-1.56-5.07-1.82-5.65s-.98-.59-1.29-1.2c-2.38-4.69.35-6.57,1.2-10.8.29-1.47,1.17-9.08.99-10.16-.31-1.81-2.8-4.38-3.2-6.36-2.22,1.95-1.18,3.62-4.96,3.55-4.78-.08-12.96-6.66-17.05-9.3-1.34-.87-8.98-4.9-9.25-5.35-1.74-2.88,1.93-6.08,2.91-8.79,2.28-6.29,1.26-13.29,1.47-19.86.25-.25,6.31.61,6.44-2.04,0-2.21-5.52-1.34-7.31-3.81-.48-.67-4.89-12.93-4.39-13.43,3.61.89,6.69,3.54,10.12,4.78,3.54,1.28,6.78,1.02,10.04,3.4,7.62,5.57,7.18,15.36,7.97,23.88,3.37.75,5.42,2.11,6.71,5.38,5.15-.61,9.83-5.47,14.81-1.48,5.11,4.09,9.23,12.32,13.75,17.23,2.77,3.01,7.73,5.04,7.95,9.03.3,5.26-1.25,14.76-1.85,20.43-.54,5.07.17,5.77.09,9.98-.2,11.12-1.28,22.14-1.24,33.34.09,25.97,1.09,52.34.63,78.32-.94,53.47-82.35,85.37-125.1,97.57-76.89,21.95-159.91,25.45-239.33,18.41-1.8.34-1.53,2.26-3,3.44-.96.76-8.11,4-9.16,4-2.34,0-3.55-1.93-5.65-2.48l-81.81-16.37c-10.59,2.58-17.19.21-15.89-11.88-34.54-12.19-79.09-30.51-99.52-62.67-17.94-28.25-8.13-80.77-9.67-114.23-.46-10.06-2.64-20.29-2.97-30.34-.22-6.76,2.21-16,4.41-22.53,1.61-4.78,8.65-21.38,12.62-23.62,7.65-4.33,10.67,5.41,18.07,3.75.7-5.58-1.39-11.73-.55-17.21.16-1.01,4.17-8.28,4.93-9.1,5.61-6,19.8-10.46,27.57-13.92,3.98-1.77,14.93-8.31,18.34-8.02,1.64.14,3.8,1.18,5.51,1.49.65.16.37.77.03,1.18-1.37,1.66-6.73,4.37-8.77,6.42-1.75,1.77-2.58,4.18-4.78,5.74-3.28,2.34-20.49,8.13-21.23,9.75l5.84,5.84c3.19,4.36,3.67,17.41,2.07,22.53-1.14,3.66-10.07,11.52-13.2,14.27-1.47,1.29-1.17,2.76-3.81,3.2-7.81,1.3-9.25-5.17-9.1-11.57l-16.49-2.43c-1.11.28-8.46,18.45-8.57,21.06,2.41-.06,4.85.13,7.26-.04,1.24-.09,2.29-.98,3.54-1.03.89-.03,5.91.62,6.49,1.03.44.32,4.36,6.29,4.64,7.05.72,1.94.62,6.82,1,7.49.12.21,1.42.66,1.95,1.24,4.34,4.72,8.71,12.83,13.76,16.06,1.73,1.11,4.5,1.64,6.34,3.01.56.42,6.18,6.06,6.41,6.45.49.87,2.09,9.4,2.34,11.1.45,3.1-1.41,7.57,3.71,7.14,4.59-.39,11.72-5.91,16.47-5.7,3.85.17,14.65,5.7,19.06,7.24,6.86,2.4,23.77,5.88,27.56,12.18,3.41,5.66,1.71,14.44,4.56,20.57,1.6,1.7,17.74,6.61,20.85,7.22,1.13.22.66.07.76-.79.22-1.74.02-2.7.72-4.55,1.14-3.01,9.96-8.66,13.01-10.95,1.18-.89,2.06-2.33,3.27-3.16,5.87-4.03,10.64-.36,16.63.28,5.46.58,12.43-.38,18.13-.05,10.15.6,21.81,3.38,31.39,6.44,1.63,2.73,4.55,3.31,5.08,6.77.45,2.95-.68,16.82,1.17,18.12,2.34.02,4.57,1.09,6.82,1.36,3.6.43,10.4.85,13.96.64,4.04-.24,8.07-2.28,11.99,0,.26-2.67-.36-5.9,0-8.47ZM533.44,298.29c4.72-.98,9.78-3.47,7.03-9.1l-6.97,1.56-.06,7.54ZM54.07,297.83c-2.89-1.7-4.86-4.3-8.56-2.96-.9,7.67-3.54,20.06,8.57,14.41,1.32-3.91.33-7.5,0-11.44ZM578.44,321.08l-10.54-13.75-6.41.9,7.57,13.74,9.38-.88ZM581.36,331.61c-4.42-.75-8.67,1.79-12.85.58l-1.75,11.1c4.91-5.89,7.66-3.81,14.02-2.34l.59-9.35ZM22.92,347.97c-3.79.08-7.61-.06-11.4,0-.85,8.29,9.08,4.15,14.03,4.09l-1.53-4.63c-.49-.09-.93.54-1.1.54ZM583.03,350.98l-8.69.2-7,11.98c4.15.17,8.91,3.83,12.58,1.19s5.98-9.24,3.12-13.37ZM47.76,378.37c-.09-.09-1.59-.31-2.31-.91-1.63-1.34-4.61-3.76-5.89-5.22-2.67-3.05-4.09-7.87-8-10.14-.72-.22-10.49.85-11.47,1.17-.56.18-1.34,1.67-2.12,2.06l.11,40.67,17.12,14.44,1.48-4.33c-1.2-.88-2.72-1.64-3.45-3.05-1.44-2.76-2.27-19.7-1.57-23.04,1.58-7.5,9.22-8.65,15.25-10.48.63-.19,1.84-.18.86-1.17ZM571.42,380.7l-.56-5.57-8.2-2.02c.33,1,.33,3.99.69,4.56.23.37,7.44,3.65,8.07,3.04ZM56.53,397.07c-.33-1.71.85-8.21-.95-8.72-1.14-.33-13.1,3.09-13.56,4.43l.49,8.38c4.71-.99,8.85-4.62,14.03-4.09ZM113.22,492.04v-12.86c0-.24,1.96-3.65,2.33-4.1,3.2-3.88,10.18-4.94,14.9-4.36,27.5,6.82,57.22,10.02,84.47,17.23,3.25.86,6.34,1.48,8.43,4.43.83,1.18,5.59,12.73,5.59,13.7v31.85h21.33c.67,0,3.46,2.17,4.06,2.96,1.66,2.21,1.86,5.19,3.02,7.6,9.06.48,18.4.02,27.43.52,1.77.1,7.5.59,8.68,1.26,4.8,2.72,2.45,12.42,3.93,16.82,39.94.01,80.01-3.02,119.27-10.06,8.36-1.5,16.7-3.24,24.97-5.13.94-5.74-1.92-17.13,2.16-21.51,1.22-1.31,6.21-4.07,8.01-4.84,4.74-2.02,13.63-5.49,18.49-6.64,5.1-1.21,15.48-3,18.27,2.83.37.78,1.63,5.88,1.63,6.55v8.47c20.11-6.83,39.45-16.51,56.59-29.03,0-4.23.35-8.56.12-12.78-.13-2.3-1.07-4.79-1.18-7-.31-6.13,2.82-18.2,6.76-23.02,1.79-2.19,5.88-4.57,6.55-7.48,2.45-10.71-3.95-21.86,4.8-32.02,1.52-1.76,3.13-3.52,4.67-5.26s7.29-6.6,7.88-7.9c1.26-2.81.74-8,.89-11.09-2.99,4.75-8.06,6.64-11.96,9.95-1.64,1.39-3.67,4.61-5.23,5.29-1.88.82-4.3.23-4.93.63-.21.13-.5,1.62-.97,2.23-2.77,3.58-8.89,1.87-9.6-2.65-.84-5.3,1.44-19.81-1.19-23.36-1.17-1.58-3.59-1.5-2.94-4.37-7.64,2.05-13.72,7.49-20.83,11.03-4.96,2.46-10.74,4.82-15.99,6.52,1.27,2.36,4.62,2.48,6.42,3.8,5.31,3.91,2.62,11.42,2.91,16.96.13,2.43,1.04,5.2,1.18,7.58.68,11.44-3.94,9.93-12.42,13.28-9.07,3.58-22.9,9.12-32.1,11.15-2.43.53-4.95,2.41-7.49-.46-2.32-2.61-.53-4.73-.69-7.02-.22-3.1-1.39-6.4-1.62-9.36-.38-4.68.25-9.75,0-14.48-.12-.5-6.3-3.68-7.45-4.37-.96-.58-1.87-1.88-2.51-2.17-5.75-2.64-21.53,2.99-27.89,4.24-3.39.66-8.85.45-12.04,1.4-.58.17-1.11.7-.97,1.35,2.38,3.46,6.95,7.5,7.54,11.76-.73,7.8,1.37,16.29.66,23.93-.31,3.36-1.55,5.64-4.95,6.73-8.71,2.79-21.42,2.67-30.87,4.19-5.9.95-9.83.93-15.35,1.6-1.73.21-2.84,1.31-4.64,1.23-2.74-.12-4.75-2.08-5.32-4.68-1.5-6.93.37-17.96-.97-25.33-.23-1.24-4.66-9.2-5.47-9.72-3.51-2.24-12.46,1.92-16.87,2.3-10.71.91-21.96-.87-32.59-.45-2.64.1-6.41,2.51-7.2,5.07-.88,2.84-.34,12.51-.28,16.13.08,5.29,2.44,15.84-1.35,19.94s-8.56,1.73-13.54,1.38c-13.89-1-28.95-1.27-42.65-2.94-3.45-.42-8.99-2.06-9.62-6.16-1.52-9.97-1.09-21.41-2.37-31.52.22-4.27,4.46-6.28,7.02-9.06-7.2-1.34-14.47-3.14-21.89-3.54-5.5-.3-11.56.52-16.97.02-1.98-.18-7.02-2.03-8.46-1.46-.56.22-8.6,6.42-9.65,7.32-.7.6-2.3,1.96-2.52,2.74-.17,2.28-.23,4.63-.14,6.92.21,5.71,4.32,21.86-3.91,23.51-11.33,2.28-34.94-9.61-46.88-13.05-2.19-.63-4.39-.31-6.88-1.33-5.34-2.17-3.28-8.6-3.68-13.24-.55-6.47-2.61-15.46-1.78-21.66.37-2.82,4.04-5.93,5.88-7.85-3.98-1.14-8.09-2.1-11.99-3.5-2.77-.99-12.82-5.87-14.94-5.55-3.25.5-7.46,3.84-10.24,5.48-.92,2.69-1.3,7.21-1.43,10.26-.14,3.46.06,6.99.12,10.45.56,1.64,4.38,1.33,5.68,3.67.54.96,1.41,6.89,1.49,8.32.14,2.52.04,11.79-1.4,13.26-2.73,2.79-4.65.71-7.04-.03-4.23-1.3-7.31-2.49-11.1-4.96-.63,5.46,1.46,18.61-7.26,17.52l-37.17-22.19c.05,3.58.26,7.24.58,10.81.94,10.22,1.82,18.06,6.71,27.19,7.23,13.51,21.62,25.3,34.48,33.31,3.04,1.89,10.47,6.68,13.47,7.57,1.14.34.75-.23.85-.87,1.81-11.92-1.04-21.21,15.79-14.32-.6-4.06-.3-10.73.74-14.76.54-2.08,2.15-4.52,4.37-5,3.44-.75,13.23,3.82,17.09,4.9l1.19-.62ZM555.06,405.83c5.05-4.96,11.69-7.16,15.18-13.74l-7.76-2.56c-1.17,1.48-7.43,4.43-7.43,6.06v10.23ZM64.13,409.34c-1.4.18-2.63-1.7-3.69-1.65-.89.05-2.71,1.49-4.27,1.63s-2.72-.59-3.89-.45c-.49.06-3.04.95-2.76,1.93.09.33,4.75,2.74,5.8,3.56,2.81,2.2,4.77,5.53,8.82,6.09v-11.1ZM502.46,418.1l-3.5-1.17c.49,3.84-2,9.19,3.5,9.35v-8.18ZM125.49,417.52l-7.6,3.92,1.77,17.71c.39.39,7.16-6.94,7.48-8.02l-1.65-13.6ZM17.96,419.86v10.81l33.03,21.33c1.3.19.68-.19.85-.87.66-2.68.64-5.46.64-8.2l-.14-.76c-3.55-1.12-7.32-4.85-10.58-6.07-2.12-.79-3.58-.33-5.88-1.72-6.02-3.62-11.73-10.75-17.92-14.51ZM46.01,421.61v4.95s23.94,14.08,23.94,14.08l1.19-.64c-.05-4.72-2.47-3.07-4.91-4.43-1.22-.68-1.6-2.24-2.71-3.13-2.06-1.67-6.41-2.93-8.92-4.52-3.26-2.06-5.1-5.26-8.59-6.31ZM569.67,435.35c.03,3.51-.02,7.01,0,10.52,4.58,3.14,7.53,1.16,7.64-4.09.1-4.93-.86-9.94-.63-14.9l-7.57,7.28c.03.56.56,1.01.57,1.19ZM500.7,436.81c-3.19.41-6.93-3.43-9.21-4-1.45-.36-7.3,3.39-9.51,4.26-1.86.73-4.64,1.59-6.61,2.16-1.28.37-3.82.33-4.5.76-1.46.92,1.25,5.53.61,7.33l29.22-10.52ZM160.48,449.74l-26.59-8.84c-1.6-.08-6.44,5.53-4.16,6.57,1.8.82,4.43.97,6.45,1.73,4.66,1.75,9.35,4.15,14.12,5.75,2.58.86,7.51,2.58,9.99,2.87,1.16.14.74.02.85-.85.29-2.26-.94-4.84-.67-7.23ZM238.29,441.48c-1.89-.15-3.61,1.11-4.53,2.7l1.62,16.58,3.47-5.58-.56-13.7ZM557.99,497.59c12.7-10.6,18.9-26.84,18.69-43.25l-4.37,5.85c-3.57,3.71-8.48,7.32-11.94,10.85-5.13,5.22-1.51,19.79-2.38,26.55ZM402.52,461.94c-2.11-8.23-4.98-5.11-10.82-4.68-4.04.29-8.21.03-12.25.6-4.46.63-8.59,2.75-13.16,2.33v5.85c2.55-.18,5.34.27,7.84-.05,5.22-.66,11.67-2.74,17.07-3.39,3.62-.43,7.6.18,11.32-.66ZM282.02,463.21c-1.7.09-3.47-1.15-4.93-1.26-6.99-.51-16.06.43-23.83-.08-1.24-.08-3.18-1.15-4.08-.98-2.39.47-6.96,7.19-1.78,8.59,10.93.79,22.05,2.52,32.95,2.06,3.63-1.2,2.44-5.44,1.68-8.34ZM138.35,489.41c-4.51-1.29-7.18-.07-8.18,4.67l8.18-4.67ZM130.17,501.1v8.77l28.06-15.49c0-.38-6.5-1.91-7.38-2-5.54-.52-14.88,7.38-20.68,8.72ZM168.16,496.42l-37.99,21.33v10.23l37.99-22.21v-9.35ZM211.99,528.56v-8.47c0-1.81-26.91-17.18-29.99-20.27l-7.41-1.64v8.47l37.4,21.92ZM113.22,515.12v-9.64c-3.91-2.63-7.79-4.86-12.54-5.56-2.06,3.52.25,6.98-.66,10.57l13.2,4.64ZM211.99,511.61c1.17-7.5-7.14-6.89-12.27-8.17l1.57,1.64,10.7,6.53ZM168.16,525.64v-12.86l-37.99,22.21v9.35l37.99-18.7ZM174.59,514.54v10.81l36.53,18.98c1.14-.06,1.58-7.72-.06-8.69l-36.47-21.1ZM113.22,539.67v-12.57l-28.05-10.23-.89,11.12c9.27,4.67,19.02,8.56,28.93,11.68ZM452.2,537.62v11.4l27.71-8.12-.24-12.92c-5.92-.2-10.19,2.53-15.2,4.37-2.23.82-11.71,3.36-12.26,5.27ZM168.16,543.76v-11.1l-37.41,18.4c-.86.97-.89,8.08-.24,8.54,2.64,1.89,3.85-.99,5.68-1.93,9.32-4.83,20.15-8.93,29.82-13.45.68-.32,1.39-.51,2.15-.46ZM174.59,544.93l36.54,14c1.3-.11,1.04-5.77.58-6.99l-37.12-18.7v11.69ZM243.84,548.44c-4.96.16-9.95-.12-14.9,0v15.2l16.95,1.75c-1.26-3.42,2.7-15.38.03-17.29-.83-.74-1.72.33-2.07.34ZM168.16,550.77l-24.55,10.53c.11.88.83.94,1.52,1.11,1.64.4,13.17,2.57,13.86,2.43.49-.1.77-1.49,1.57-2.07,1.89-1.38,5.34-2.95,7.59-3.81v-8.18ZM211.99,574.15c-.43-2.78,1.26-7-1.54-8.69l-35.86-13.52.09,7.51c5.28,1.96,9.95,8.32,14.78,10.64,1.82.87,21.71,4.87,22.53,4.07ZM286.22,559.54l-29.81-.58v7.02s29.81,1.17,29.81,1.17v-7.6ZM427.08,316.72c-21.44,11.45-40.13,7.43-62.56,1.75-4.04-1.02-12.49-1.7-12.77-6.51-3.89-31.03-8.65-61.95-12.85-92.93-2.77-20.43-7.63-44.73-8.84-64.8-.73-12.16,10.84-23.51,16.95-33.29,22.51-35.99,14.95-78.5-20.87-101.89-18.99-12.4-32.42-13.33-54.82-11.79-25.77,1.77-56.37,25.31-63.71,50.26s1.9,61.33,19.27,79.5c8.9,9.31,25.88,17.84,27.19,32.43,1.66,18.62,1.77,37.96,2.94,56.68,1.84,29.38,5.17,60.09,5.86,89.4.12,5.28.61,10.53-4.49,13.67-13.36,8.23-44.81,29.98-59.01,31.58-7.3.82-21.4-4.97-27.12-9.57-2.78-2.24-13.31-14.22-13.78-17.22-.26-1.65,11.01-7.9,12.93-9.94,10.94-11.64-2.39-23.15-12.2-28.76-13.66-7.81-36.44-18.22-51.25-23.56-32.76-11.81-29.8,45.87-30.38,63.7-.28,8.74-1.02,17.58-1.2,26.27-.34,16.76,9.64,21.77,24.56,15.8,2.44-.98,12.91-7.51,14.02-7.03.49.21,5.69,5.6,6.43,6.48,5.7,6.81,9.77,15.33,15.78,22.21,7.16,8.19,16.17,15.18,25.55,20.66,7.45-6.16,15.7-11.98,25.9-9.86l-17.48-9.1c-5.02-3.53-10.94-7.27-15.27-11.62-12.28-12.34-25.78-48.24-48.3-38.99-1.45.6-9.58,5.9-10.12,5.36,1.1-4.08.41-8.39.56-12.59.05-1.38.58-2.66.63-4.04.55-15.52-.68-31.4,3.49-46.49l47.06,21.02c.71.7.12.99-.29,1.5-2.5,3.06-8.74,5.97-11.43,9.61-4.6,6.22-1.16,11.72,1.96,17.36,23.05,41.61,69.83,51.19,111.16,29.72,10.49-5.45,42.15-24.89,47.82-34.01,1.17-1.89,1.91-4.66,1.87-6.89-7.86-60.9-12.62-122.32-21.61-182.99-3.69-8.91-11.62-14.88-17.54-22.2-19.72-24.4-30.75-59.46-3.54-82.98,15.65-13.53,33.72-19.77,53.32-10.05,25.81,12.8,38.22,36.57,27.79,64.86-5.47,14.83-19.52,26.37-24.57,42.06-3.83,11.91.34,30.09,2,42.74,5.89,44.92,11.41,92.94,19.3,137.33.88,4.94.65,8.09,5.34,11.02,9.42,5.89,44.1,12.52,55.61,12.77,26.96.57,55.73-17.15,67.45-41.31,3.06-6.3,8.56-23.12,8.81-29.81.37-9.9-8.46-10.16-15.14-13.94l30.13-30.66c.92-.21,1.18.76,1.54,1.32,1.67,2.59,3.14,6.91,4.13,9.9,4.14,12.54,6.19,26.13,10.37,38.72-5.7-.15-8.78-2.92-14.45.18-12.02,6.55-16.31,39.32-23.83,52.74-18.25,32.61-48.74,47.42-85.92,44.99-8.92-.58-14.19-4.75-21.65,2.91-3.26,3.35-7.63,13.14-9.73,17.74-3.44,7.54-6.27,15.46-9.25,23.19l18.59-1.86,11.22-24.17c27.87,3.56,54.83-.94,77.91-17.32,17-12.07,32.31-33,38.99-52.77,2.45-7.26,3.52-15.13,6.4-22.23.58-1.44,2.3-6.05,3.76-6.1,12.71,4.11,26.7,2.3,24.82-14.28-4.96-15.18-7.89-31.33-12.5-46.52-3.6-11.86-12.11-35.97-28.07-22.81-8.21,6.78-36.17,35-39.94,43.64-6.32,14.5,1.98,19.85,15.04,22.49-1.87,16.87-13.25,31.53-27.97,39.39ZM287.84,47.15c29.25-3.52,48.58,33.4,33.56,57.52-21.22,34.07-76.05,3.68-57.67-37.22,3.77-8.39,14.75-19.18,24.12-20.3ZM287.18,73.49c-.48-.43-1.78-1.4-2.34-1.31-7.72,6.11-8.63,18.64.61,23.81,7.22-3.88,7.44-17.36,1.73-22.5ZM153.55,275.5c-.51.54-9.57-3.33-11.1-3.8-8.64-2.7-17.93-3.04-25.13-8.76l7.31-3.79c2.02-6.34-1.96-14.06,4.73-18.06,11.07-2.64,22.27-5.22,33.41-7.5,10.5-2.14,27.3-6.37,37.31-7.12,2.39-.18,4.5-.06,6.31,1.73.73.72,1,2,1.7,2.68,3,2.91,5.73,5.67,8.4,8.86,5.39-.52,10.83-.64,16.23-1.07,3.94-.31,12.31-2.61,15.82-.61,1.82,1.03,5.38,7.08,4.11,8.83l-31.36,3.16-1.12,9.07,33.31-4.09c.54,3.28-3.32,10.49-6.39,11.43-10.48,1.03-20.26,3.28-30.78,2.65-1.09-.07-2.01.63-3.3.44-6.59-.98-4.65-13.04-5.12-17.72-.5-4.98-4.26-7.48-6.42-11.73-2.31.8-3.75-.84-5.54-.87-2.09-.03-6.57,1.98-8.81,2.34-3.07.49-7.25.17-10.42.69-11.12,1.8-21.91,5.08-33.09,6.36,1.83,2.44,5.34,3.03,7.33,5.23.45.5,2.6,4.15,2.6,4.41v17.24ZM141.71,260.45c-.23-.28-6.04-3.92-6.28-3.65-1.37,6.69,2.91,6.82,7.59,9.35.29-.39-.93-5.24-1.31-5.7ZM411.12,231.79c-1.69.38-4.92,3.26-6.83,4.27-5.83,3.06-11.99,5.47-17.83,8.51-4.66-1.34-9.4-.78-13.96-1.29-7.09-.79-14.1-3.01-21.32-2.18-1.54.97,1.09,7.96,1.16,9.78l33.44,4.26c1.6.37,1.03,6.36.66,6.35-3.46-2.06-7.02-1.26-10.44-1.84s-6.94-1.86-10.08-2.19c-4.1-.43-8.38.23-12.49-.65l1.81,11.04c2.95.3,5.99-.21,8.94.13,7.09.8,14.37,3,21.24,4.47,1.73.37,7.6,1.04,9.09.6,6.26-1.86,1.43-17.13,2.77-22.06,3.02.23,4.71-2.24,7.18-3.63,1.79-1,7.4-4.12,9-4.45,3.36-.69,13.34.82,14.76.16,2.66-1.23,4.97-7.34,2.8-9.5-1.4-1.39-17.44-2.32-19.9-1.77ZM306.39,405.24c-2.67-2.88-10.71-11.14-13.8-12.5-9.29-4.07-13.5,1.89-20.97,5.8-13.85,7.26-28.72,13.17-44.43,14.9l11.69,2.62c6.71,1.84,11.56,5.83,16.68,10.25,10.5-3.4,20.18-8.74,29.8-14.04l10.77,9.68,23.4-.93c-4.58-5.04-8.51-10.79-13.14-15.78ZM529.94,367.54c-3.25-1.32-7.65-3.35-10.92-4.86-1.74-.8-3.58-2.84-5.42-3.34-4.19-1.14-10.06-1.83-10.99,3.67l-.73,17.69c-11.5-4.07-23.77-5.05-35.37-8.72l-11.96,9.3,38.73,12.17,22.05-9.53-3.31-1.72.98-10.85,13.15,5.82c3.12-2.43,7.51-2.81,10.75-4.42.58-.29,3.06-1.67,2.4-2.56-3.02-1.12-6.36-1.43-9.34-2.64ZM499.54,328.98l-1.19.63-6.12-3.24-3.72,9.64c4.93,3.85,19.39,9.97,20.93-.05.43-2.81.57-9.07.65-12.21.24-9.67-2.67-14.26-12.83-14.87l-2.36,8.96,4.64,2.38v8.77ZM106.4,392.24l14.43-5.42-5.03-7.84-20.1,9.31,10.71,3.95ZM71.15,379.53l1.75,10.52c1-.53,8.69-2.63,7.59-4.08-3.77-1.09-6.45-4.06-9.34-6.44ZM361.79,525.46c-2.8-2.59-2.91-15.05-2.55-18.84.66-6.83,7.18-8,12.86-9.34,5.44-1.29,19.26-4.3,22.82.6,2.3,3.17,2.17,14.1,1.78,18.15s-1.76,5.07-5.41,6.28c-8.19,2.73-17.18,5.49-25.91,4.51-1.06-.12-2.84-.66-3.61-1.37ZM369.79,508.69v8.18c5.97-.2,11.44-2.6,16.98-4.43l-.03-6.68c-5.79-.33-11.37,1.68-16.95,2.93Z"/>
</svg>