<?xml version="1.0" encoding="UTF-8"?>
<svg id="Ebene_1" xmlns="http://www.w3.org/2000/svg" version="1.1" viewBox="0 0 595.28 595.28">
  <!-- Generator: Adobe Illustrator 29.8.3, SVG Export Plug-In . SVG Version: 2.1.1 Build 3)  -->
  <path d="M588.56,373.99c-30.63-34.23-62.18-67.81-90.92-103.65-30.37-37.88-45.98-81.24-103.44-79.37-28.01.91-52.63,12.79-76.55,26.14-62.07,34.66-115.1,81.43-169.26,126.8-12.43,10.41-28.27,21.42-39.63,32.43-11.82,11.45-3.72,30.29,12.47,28.08,5.54-.75,15.7-7.34,20.82-10.4,35.79-21.42,67.04-47.83,100.14-72.81,35.01-26.42,98.99-62.85,141.54-72.25,48.46-10.71,84.16,48.45,111.17,79.36,2.72,3.11,6.67,5.72,9.62,8.99,14.31,15.87,27.97,32.51,42.62,48.06,9.78,10.39,14.58,16.77,30.49,14.26,11.35-1.79,17.76-16.06,10.92-25.64ZM180.26,259.83c4.87,1.64,8.07,6.55,12.64,7.18,13.78,1.88,20.01-3.62,18.11-17.51-.76-5.57-3.79-8.08-8.06-11.15-13.02-9.38-32.82-16.74-48.95-15.54-23.62,1.75-41.41,16.12-58.14,31.34-25.43,23.15-53.2,50.67-74.1,77.83-3.38,4.39-16.8,21.62-17.63,25.6-1.38,6.62,4.44,13.28,10.97,13.98,14.05,1.51,15.37-5.6,24.31-13.52,7.72-6.84,16.25-13,24.04-19.8,19.2-16.76,37.62-34.56,57.03-51.06,15.09-12.82,38.38-34.55,59.78-27.34Z"/>
</svg>