<?xml version="1.0" encoding="UTF-8"?>
<svg id="Ebene_1" xmlns="http://www.w3.org/2000/svg" version="1.1" viewBox="0 0 595.28 595.28">
  <!-- Generator: Adobe Illustrator 29.8.3, SVG Export Plug-In . SVG Version: 2.1.1 Build 3)  -->
  <path d="M556.9,300.1c2.59,17.14,3.6,35.11,6.66,52.12,5.44,30.31,15.48,60.87,21.04,91.29.61,4.9-1.46,9.56-2.85,14.15l-169.91,51.21c-1.11.66-1.97,4.15-3.2,5.67-2.1,2.59-3.88,2.38-6.26,3.8-10.73,6.39-21.7,12.54-32.27,19.16-7.08,4.43-22.05,16.5-28.44,18.85-4.89,1.8-8.27-.02-9.78-4.97l-3.84-41.39c-2.47.72-13.87-1.81-15.08-.07-1.11,10.1,3.51,23.74-6.56,30.68-3.93,2.71-20.73,9.11-25.89,10.77-12.96,4.17-18.32-1-30.1-4.25-53.32-11.33-105.89-26.69-159.29-37.59-15.68-3.2-37.02-4.71-51.56-9.34-4.71-1.5-8.89-7.5-10.34-12.12s.48-10.8.88-15.67c1.91-23.58,3.37-44.28,2.93-67.96-.53-28.63-1.26-57.13-2.34-85.75l-.99-1.38c-7.74-2.04-22.23.77-27.29-6.41-3.33-4.72-3.36-11.34.77-15.59,2.38-2.45,4.1-2.99,6.71-6.3,20.54-26.03,38.46-56.62,58.4-83.5,18.66-25.15,38.94-49.51,58.8-73.63l9.7-2.71,97.91,2.14c1.08-.78.41-7.06.56-8.91.51-6.38,1.05-12.55,1.2-18.9.2-8.47-1.56-32.32,1.04-38.57,1.37-3.29,8.55-9.84,11.95-11.1l96.58-15.61c4.71.37,7.46,2.34,11.2,4.77,6.7,4.34,25.96,17,30.27,22.35,5.75,7.14,4.27,19.32,4.4,28.11.04,2.65.73,5.24.64,8.28-.05,1.56-1.7,8.26-.3,8.54l84.67-23.49c4.99-.49,10-.5,14.02,2.82,38.02,58.59,70.85,120.42,103.21,182.35,3.06,8.24-.47,12.82-6.58,17.71-3.01,2.41-8.49,6.27-12.05,7.46-5.74,1.93-12.67,1.62-18.63,2.96ZM276.35,122.72c3.13.53,8.92,0,12.42,0,.25,0,.99-.93.86-1.42-.79-7.96-2.15-16.05-1.46-24.04l-28.07-12.97v31.04c0,.26.64,1.3,1.04,1.48,4.72.44,11.11,5.22,15.22,5.91ZM367.69,88.42l-53.2,10.67,2.95,27.76,48.49-9.15,1.76-29.28ZM477.54,112.19c-2.17-1.28-35.23,9.8-40.43,10.48l-1.42.97,90.11,154.61c.81.88,1.78,1.34,2.98,1.44,2.38.19,10.82-1.07,13.46-1.64.7-.15,1.95-.21,1.58-1.24-2.5-3.8-5.15-7.59-7.34-11.58-11.52-20.96-22.91-45.05-33.11-66.8-.6-1.28-1.36-2.73-1.45-4.16,19.6,26.2,39.68,52.15,56.73,80.13,2.37,2.1,6.1.09,8.89.27.82-.81-2.08-5.96-2.65-7.11-12.37-25-26.77-51.67-40.41-76.06-14.97-26.79-31.94-52.51-46.92-79.3ZM422,127.53l-14.69,3.47c3.28,7.05,6.73,14.12,9.73,21.3.64,1.54,1.84,4.04,2.19,5.51.17.73.86.66-.41,1.56l-24.36-24.75-17.31,4.65.31,1.75,90.42,142.56c1.21,1.17,5.37-2.97,7.09-3.05,11.57-2.82,23.95.75,35.79.03l-88.76-153.03ZM362.87,143.51l-41.88,7,.1,1.37,92.02,146.25,1.9,5.49,14.77-2.36-11.23-29.56,6.51,5.01c5.11,5.73,11.18,10.52,16.56,15.96,1.57,1.59,2.06,4.26,4.71,3.61,1-.24,10.04-5.38,10.04-5.96l-93.5-146.82ZM167.57,153.46c-3.26-.49-7.54.36-10.94,0l89.97,166.33c3.78,7.41,6.82,15.93,13.74,21.04,11.86-1.98,23.7-5.2,35.82-4.68l-19.51-44.34,33.71,39.92c.42.31.88.26,1.37.26,1.64,0,10.71-1.77,12.54-2.32.66-.2,1.05.39.85-.89l-105.98-173.36c-1.79-1.49-18.29-.63-22.03-.74-3.23-.09-6.86-1.17-10.32-.61l14.49,40.2c-10.16-13.26-21.5-25.67-30.76-39.59-.48-.39-2.35-1.11-2.94-1.2ZM400.8,305.4l-95.19-151.65c-5.7-.1-11.73,1.89-17.51,2.59-1.58.19-3.24-.12-4.67.07-.83.11-1.01-.32-.89.9l29.57,59.41-46.96-60.34-29.3-1.15,98.71,162.3c.61.58.72.52,1.23-.09,3.3-3.92,3.1-8.19,9.2-10.8,5.17-2.21,8.57-1.21,13.51-1.22,14.1-.03,28.2-.02,42.29-.03ZM199.79,430.15l-19.66-.74c-4.6-1.1-9.19-5.52-9.84-10.26s.68-23.47,1.99-28.05c2.93-10.22,15.51-6.43,23.66-7.08s15.06-2.45,24.24-1.76c16.05,1.21,15.84,7.07,17.44,20.99.69,5.98.92,12.07,1.44,18.07l10.11,2.23c2.04-.35.29-9.05.25-10.82-.25-10.65-.26-21.33-.59-31.93-.17-5.48.28-10.99-.09-16.47-.45-1.49-5.65-3.82-7.26-5.15-4.53-3.73-6.21-10.97-8.86-15.97-8.26-15.58-17.4-30.79-25.84-46.28-21.56-39.54-42.04-79.87-64.24-119.04-.61-1.07-2.93-5.76-3.94-5.51l-78.66,124.72c-1.42,4.65,1.82,5.68,2.12,9.76l-1.24,100.44c7.65,2.8,15.6,4.17,22.89,7.97,4.33,2.25,6.16,4.05,6.69,9.27.74,7.31-.81,15.38.85,22.8,8.99,1.6,20.11,5.68,21.05,16.19.34,3.78-.66,25.15.05,26.25l138.1,33.09,1.07-.46-.97-53.77c-4.77-.45-9.66-1.47-14.43-1.83-3.67-.28-7.49.32-11.15-.08-3.11-.34-12.14-2.6-15.41-3.51-11.15-3.11-11.04-23.89-9.79-33.07ZM529.03,304.29c-.98-.83-10.5,1.12-12.62,1.14-11.28.11-22.84-2.81-34.2-1.67-13.28,6.65-24.75,15.71-39.42,19.11-9.64,2.24-24.59,5.8-34.09,6.71-16.59,1.59-34.52-1.69-51.25-.41-8.54,9.74-6.37,19.4-20.97,22.78-17.43,4.04-36.85,5.87-54.64,9.22-1.58.3-9.2,1.46-9.68,2.14l2.7,161.44c1.52.19,2.68-.36,3.96-1.06.5-.28,4.77-3.66,4.95-3.92.59-.83,1.09-4.69,1.16-5.93.7-12.48-2.73-30.61-3.56-43.78-1.44-22.81-1.91-45.76-2.94-68.6-.77-17.12-7.21-32.35,14.05-37.33,30.99-7.27,65.39-9.7,96.77-15.6,4.92-.11,7.41,1.85,9.04,6.38l7.23,102.45c5.12-1.24,10.45-1.18,15.59-1.84,4.08-.53,8.42-2.95,12.63-1.26,6.38,2.57,4.07,16.5,5.48,22.02l74.47-20.12c.07-4.79-1.99-8.98-1.74-13.86.17-3.27,2.01-12.1,3.1-15.23s4.1-4.92,7.07-5.94c5.71-1.95,12.42-2.23,18.23-3.65,2.9-.71,5.75-1.73,8.59-2.66l.13-1.94c-3.8-18.9-9.96-38.18-13.3-57.09-2.98-16.86-3.63-34.6-6.74-51.49ZM381.15,366.4c-1.5.19-3.84,1.86-4.61,3.13-2.14,3.56-.2,12.8,0,17.17,1.06,22.33,2.74,44.53,4.14,66.81,1,15.86.79,32.08,2.38,47.88.39,3.87.49,9.05,4.88,10.49,8.02,2.63,8.29-6.9,8.15-12.28-.56-20.28-2.92-40.64-4.16-60.87-1.28-20.83-1.08-43.28-3.56-63.84-.48-3.99-2.23-9.11-7.22-8.48ZM358.68,368.18c-3.26.62-5.63,4.16-5.71,7.34-.22,8.64,2.17,19.99,2.9,28.92,3.07,37.64,6.13,75.26,9.51,112.87,1.87,8.39,12.66,7.04,12.85-1.13.19-8.58-2.12-19.56-2.84-28.39-2.62-31.96-5.21-63.87-8.28-95.78-.57-5.96-.29-12.99-1.32-18.78-.55-3.1-3.97-5.65-7.1-5.05ZM345.23,537.75c3.71-2.07,5.99,1.13,9.48-2.64,3.64-3.93.98-11.65.57-16.58-3.89-46.74-8.78-93.37-13.05-140.08-.85-4.53-5.74-7.14-9.72-4.47-3.43,2.29-2.82,6.7-2.65,10.34,1.49,31.36,6.4,64.9,9.45,96.38,1.85,19.03,2.64,38.25,5.92,57.05ZM207.34,396.02c-2.35.24-4.96,1.28-7.33,1.54-4.81.53-9.63.62-14.45.92l-1.49,16.92c.88,1.21,17.64.28,20.73.56,3.65.33,7.45,1.87,11.32,2.28,2.63.28,5.31-.2,7.92.41,1.85-1.32-1-18.51-1.47-21.64l-1.2-.57c-4.75.45-9.29-.91-14.03-.42ZM60.85,443.16c4.84,2.21,9.46,2.26,14.63,2.84l1.33-.77v-17.15c-4.45-3.33-10.42-4.93-15.96-5.62v20.69ZM552.7,429.01l-24.54,5.24c-2.92,5.19-2.36,11.59-.8,17.14l27.75-7.33c2.03-1.71-2.41-12.26-2.41-15.04ZM213.39,432.81v12.42c0,.92.88,4.23,1.79,4.72.47.25,9.4,2.49,10.38,2.62,2.81.38,5.98-.23,8.81.06,4.12.41,10.39,1.93,14.2,1.82.64-.02,1.4-.03,1.81-.61l-.92-15.71c-7.63-2.67-15.83-3.29-23.79-4.59-3.83-.63-8.56-3.28-12.28-.72ZM60.26,458.82v13.6l36.88,12.76c1.84-.38,2.11-18.23,1.25-20.14s-4.37-2.81-6.19-3.27c-7.29-1.82-16.42-1.33-23.88-2.13-1.79-.19-7.53-2.58-8.05-.81ZM425.56,480.33c-.63-2.07.14-10.54-1.49-11.08-2.72-.5-16.57,1.17-17.29,3.25l1.11,12.63,17.66-4.81ZM119.09,232.09c-3.42,9.91-3.41,23.55-3.82,34.02-.36,9.18-3.34,22.8,7.85,26.98,3.66,1.37,22.27,4.71,26.03,4.58,5.9-.21,10.73-4.13,12.07-9.86-.47-17.55,1.41-35.39-.16-52.77-2.86-8.76-17.12-12.18-25.24-11.65-6.78.44-14.21,1.39-16.73,8.69ZM510.03,316.79c4.95-.59,9.18,1.6,10.05,6.79,1.43,8.49.43,19.5.71,28.26.04,1.4.6,2.69.64,4.09.2,7.03-.73,14.29.7,21.18l17.88,15.23c3.11,5.06.21,10.29-5.01,12.09l-87.28,26.29c-3.35.19-12.6-5.07-16.44-6.5-1.97-.74-3.67-.27-5.63-1.47-2.4-1.48-3.36-4.38-3.6-7.04-1.19-13.45.19-29.93.05-43.8-.13-12.81-5.11-31.07,10.48-36.77l77.44-18.34ZM515.89,390.15c-2.42-2.72-8.09-4.91-10.47-8.2l-66.07,16.7c-11.26,5.84-.96,14.53,7.22,16.13l71.28-21.57c-1.31-.58-1.42-2.44-1.96-3.05Z"/>
</svg>