<?xml version="1.0" encoding="UTF-8"?>
<svg id="Ebene_1" xmlns="http://www.w3.org/2000/svg" version="1.1" xmlns:svg="http://www.w3.org/2000/svg" viewBox="0 0 595.28 595.28">
  <!-- Generator: Adobe Illustrator 29.8.3, SVG Export Plug-In . SVG Version: 2.1.1 Build 3)  -->
  <path d="M170.83,44.94l2.55,29.83c.41.95,1.36,1.5,1.81,2.43,18.84,39.03,37.64,78.1,56.24,117.24l92.59-40.83c6.2-2.21,8.95-2.21,13.21,3.12,12.67,15.86,22.66,37.53,34.93,54.07,3.42,7.42.11,16.36.29,24.23,5.35-4.19,8.21-3.19,13.9-.89,3.81,1.54,16.29,7.22,19.09,9.37,3.65,2.79,4.3,6.45,3.94,10.9,4.87-3.32,6.92-6.66,13.3-4.52,3.55,1.19,21.03,11.17,23.93,13.6s3.78,5.57,3.94,9.08c.31.32,6.38-2.65,7.71-2.88,8.43-1.46,16.37,7.12,24.12,9.54l68.98-32.09c3.67-.46,6.74.92,8.69,4.03.64,1.02.74,2.39,1.4,3.44,9.76,15.6,23.83,33.98,31.87,49.87,3.49,6.9,1.9,9.16-2.29,15.04-2.65,22.04-2.24,45.18-4.94,67.11-.48,3.87-2.84,8.61-5.66,11.29l-271.61,193.98c-2.81,1.63-4.62,2.67-8.08,2.13-48.38-31.24-95.32-65.01-143.18-97.18-5.78-5.08-2.15-9.23-4.24-12.71-.41-.69-11.81-8.83-13.03-9.4-2.75-1.29-7.47,2.89-11.02,3.05-1.86.08-3.47-.6-5.02-1.52-34.35-26.12-72.68-49.17-106.53-75.71-2.82-2.21-4.9-3.58-5.99-7.33l-3.78-68.87c-.57-2.9-7.91-4-7.91-10.91,0-6.78,10.15-10.67,15.38-13.73,19.46-11.4,40.08-23.28,59.94-33.9,4.51-2.41,34.24-16.33,35.24-18.05,1.18-2.03-.56-1.75-1.54-2.7-2.98-2.87-7.7-6.65-7.81-10.99,19.54-53.55,40.13-106.99,61.69-159.8l-3.12-34.39c-.74-2.14-9.14-2.7-9.56-8.65,2.41-8.1,3.73-18.16,6.67-25.93,1.84-4.87,6.87-5.69,9.91-1.5,2.9,10.85,8,21.03,11.26,31.73,2.09,6.85.83,11.11-7.27,9.4ZM118.21,231.94l52.88,26.71,60.24-30.63-56.87-117.69-3.63,118.05-7.86-113.21-44.76,116.77ZM327.54,169.74l-88.01,38.66c2.54,7.23,12.37,18.29,10.33,26.06-1.43,5.42-11.72,6.92-12.34,9.48l2.34,23.2,114.4-54.52-26.71-42.88ZM357.91,222.33l-117.44,55.11,1.2,12.09,114.05-53.35c2.47-2.01,1.49-10.58,2.18-13.85ZM389.39,252.61l-8.74-3.64-6.38,4.55c-.02.53,8.08,3.58,9.34,3.35l5.78-4.25ZM222.29,251.39l-44.7,22.75,9.59,101.36c1.44.33.98-.24,1.35-.79,6.1-8.95,11.56-20.84,18.13-29.08,7.44-9.33,14.49-1.13,23.51.2l-7.87-94.44ZM332.48,268.04v25.73l7.88-4.06.6-30.75,1.82-5.14-15.74,6.66c2.22,1.87,4.94,4.53,5.45,7.56ZM177.49,380.35l-9.81-104.31-1.88-1.75-34.93-17.44,1.79,43.92c1.57,17.84,1.42,35.81,3.05,53.71l41.78,25.87ZM394.24,262.29l-5.95,3.12-.6,6.21,11.4,5.8c2.58-5.64-1.95-5.29-3.74-8.66-1.06-2-1.24-4.24-1.1-6.47ZM377.79,266.02l-8.98-3.12c.44,5.67-1.39,11.53-8.21,9.11-1.16-.41-9-5.26-9.35-4.87.13,6.39-1.13,13.25-.99,19.6.02.69.23,1.78.79,2.24l66.74,32.36,23.05-12.73-20.6-12.09c-2.59-3.76-1.53-8.4-1.9-12.63-1.69-1.32-8.99-5.89-9.58-2.51-.7,4-.28,8.66-6.36,8.21-2.2-.16-15.43-6.37-18.28-7.8-8.85-4.45-6.12-6.64-6.35-15.75ZM115.13,263.5c-1.48.31-15.62,7.14-15.13,7.86l15.74,8.48-.61-16.34ZM429.96,271.38l-10-5.29-4.53,4.38c-.22,1.19.19.74.76,1.03.91.46,7.67,3.33,8.11,3.37,1.11.1,6-2.99,5.65-3.49ZM575.69,314.78l2.32-5.84-27.85-42.94-239.45,134.05-1.22,1.81-1.22,81.42,267.42-168.49ZM309.48,281.36c.9,7.58-.66,16.76,0,24.52l5.47-2.83-.03-36.53-11.5,6.05c3.75.75,5.65,5.36,6.05,8.79ZM287.08,290.44v26.34l4.26-1.62.58-37.73-11.5,6.05c3.31.29,6.16,3.94,6.66,6.97ZM216.86,359.16l-24.93,40.17c-5.92,5.77-10.36,2.81-16.2-.57-14.85-8.57-31.78-19.42-46.01-29.06-5.84-3.96-9.63-5.39-10.33-13.28l-2.53-56.81-34.57-19.67-60.38,33.81,275.19,169.5,1.8-81.12-82.03-42.98ZM440.15,289.63c-.14-.22-3.4-1.4-4.4-2.56-1.13-1.32-1.74-3.73-2.17-5.4l-4.77,1.88.23,6.6,10.3,6.03c1.14-.07,1.24-5.86.81-6.55ZM471.13,290.75c-5.7-1.41-9.06-7.56-15.13-3.63-.23,1.07.31,1.2,1,1.72.77.58,8.53,4.87,9.04,4.94,1.45.2,6.09-1.7,5.1-3.03ZM270,326.34l.12-38.63-13.93,6.36c3.6,1.11,7.17,2.03,8.51,6.03l1.18,28.18,4.11-1.94ZM449.94,303.45l6.04-3.33-6.04-3.33v6.65ZM248.23,337.87c.18-1.65.18-3.38.09-5.05-.49-8.82-1.66-21.68-.61-30.29.26-2.15,1.55-3.17,1.82-5.13-2.17,1.21-6.52,1.6-6.69,4.5l3.06,36.67,2.32-.7ZM406.95,327.08l-60.14-28.93-100.13,51.59c1.08,2.09-.37,5.75,1.03,7.31.22.25,4.55,2.52,5.44,3.03,12.88,7.29,27.3,14.47,40.56,21.19,1.84.93,8.47,4.63,9.86,4.43l101.76-56.91,1.61-1.71ZM41.27,337.36l-17.56-10.29v9.38c0,.54.92,2.82,1.57,3.27l15.98,7.93v-10.29ZM574.66,327.68l-266.43,167.96c-1.3,1.66.03,3.57.07,5.47.19,9.58-.19,19.2-.02,28.78.87.99,20.22-12.45,22.58-13.43s4.89-1.55,7.05.45c2.38,2.2,5.72,17.34,1.78,19.88l-30.5,20.97c-2.49,3.55.51,10.34-.31,14.52l228.73-162.38c-.73-4.01,1.29-7.16,1.91-10.51.27-1.48-.14-3.19.09-4.76.71-4.96,4.17-6.14,7.87-8.62-.54-4.74-1.62-13.84-.19-18.21,1.96-6.01,20.35-15.21,25.88-18.92l1.5-21.2ZM297.97,527.47v-31.18L51.85,344.03c-1.32-.18-.73.15-.88.91-1.23,6.45,1.76,18.08-8.92,14.33-1.99-.7-16.5-9.3-17.14-8.59l2.12,37.53,98.38,69.63v-38.45c0-2.03,1.98-7.69,3.36-9.35,11.39-13.65,32.26,2.99,37.91,14.7,3.41,7.05,5.94,15.5,6.02,23.35.89.17,1.77.31,2.59.73,4.4,2.25,11.1,5.82,15.09,8.54,1.23.83,2.98,1.63,3.6,3.06,2.08,4.82-1.93,13.05-1.27,18.22,2.97,3.11,13.36,6.26,14.31,10.52.44,1.98.19,5.56.12,7.74-.1,3.1-1.93,12.45-.64,14.58l92.07,62.62v-18.47c-4.27-4.65-20-9.55-22.93-14-.43-.66-1.04-2.25-1.09-3.03-.16-2.23,2-15.58,3.14-17.17,4.18-5.8,15.54,4.26,20.27,6.04ZM572.24,360.98c-.86-.95-14.69,8.67-15.77,10.56-1.26,2.21-.28,5.67-.57,8.2l15.65-8.56.69-10.21ZM570.42,382.77c-.37-.43-8.92,4.95-9.87,5.56-1.62,1.04-10.95,7.35-11.2,8.18l-.72,5.03,21.18-14.84.61-3.92ZM140.56,415.46v41.47l7.26,3.94.64-28.73c.06-2.53.4-11.41-.34-13.03-.65-1.44-6.39-4.79-7.56-3.64ZM155.09,425.76v40.26l8.47,5.75c-.05-14.37.47-31.06-6.54-44.01-.43-.79-1.03-1.74-1.94-2ZM173.86,468.14l9.39,4.22c.81-.07,2.08-6.28.91-7.56-1.53-1.67-8.14-4.03-10.3-5.74v9.08ZM197.37,492.45l-23.83-12.83.28,9.44,22.15,15.39c1.32.18.73-.15.88-.91.69-3.64.8-7.4.53-11.09ZM308.27,546.24l23.52-15.53-.2-2.64c-.7-.98-.96-.23-1.7.14-5.11,2.59-12.66,9.05-17.55,10.91-1.42.54-2.59.57-4.08.47v6.66ZM297.97,543.82c-.16-2.08.67-4.42-.87-6.09-.41-.44-9.83-5.56-10.6-5.76-2.49-.64-2.38,3.63-1.24,4.89,1.8,2.02,10.12,4.93,12.72,6.95ZM410.59,454.21c4.95-2.12,16.38-12.6,19.22-3.18.8,2.66,1.86,14.02,1.74,16.91-.07,1.81-.73,3.77-2.05,5.05-9.19,4.68-18.62,12.55-27.8,16.83-5.83,2.72-8.17,1.02-9.21-5.1-.22-1.32.45-5.39-.99-5.69-2.53-.52-15.44,13.12-21.33,7.72-1.93-1.78-1.57-12.87-1.36-15.88.21-2.86.39-7.02,2.72-8.78,9.85-5.14,19.67-12.89,29.55-17.68,8.72-4.22,9.93,2.3,9.5,9.8ZM400.9,456.03l-21.8,12.4-.59,6.97,21.8-13.01.59-6.36ZM421.48,459.66c-.54-.56-10.16,4.62-11.07,5.42-.85.74-.91,2.03-1.94,3.07-1.68,1.69-7.39,3.69-7.58,5.75l.61,4.53,20.04-11.78-.07-6.98ZM204.91,268.47c-4.69-1.07-7.29,1.19-8.01,5.67l2.06,18.44c.68.92.74.31,1.38.15,3.22-.85,6.54-2.98,9.83-3.84-1.8-4.75.78-19.04-5.26-20.41ZM153.28,283.77c-.23-4.41,1.12-13.99-5.21-14.81-2.38-.31-5.83,1.5-6.29,3.94-.4,2.1-.25,13.42.38,15.33,1.01,3.02,8.42,4.82,11.1,6.75,1.49-3.77.2-7.6.01-11.21Z"/>
</svg>