<?xml version="1.0" encoding="UTF-8"?>
<svg id="Ebene_1" xmlns="http://www.w3.org/2000/svg" version="1.1" xmlns:svg="http://www.w3.org/2000/svg" viewBox="0 0 595.28 595.28">
  <!-- Generator: Adobe Illustrator 29.8.3, SVG Export Plug-In . SVG Version: 2.1.1 Build 3)  -->
  <path d="M129.82,56.97c-3.67-2.41-6.64,1.15-10.94-1.66-4.11-2.68-3-7.1-1.57-10.84,2.14-5.6,8.48-17.69,11.63-23.01s7.79-6.89,12.55-2.62c2.6,2.33,10.4,17.05,12.36,21.02,5.79,11.72.8,14.17-10.78,14.94l.11,14.63,59.38,121.37c2.37-1.5,4.87-2.77,7.43-3.89,33.84-14.89,68.13-28.99,102.19-43.29,3.35-.55,6.1.7,8.45,2.96l37.3,53.2c1.03,8.91-1.23,18.02-2.03,26.91,3.44-.67,5.94-1.81,9.61-1.11,4.41.84,22.73,8.32,27.15,10.64,5.22,2.73,6.04,5.49,6.7,11.26,6.02-1.6,10.4-6.46,17.02-4.74,2.58.67,20.16,10.41,22.32,12.31,2.98,2.62,3.59,5.51,3.48,9.43.23.27,5.55-2.19,6.76-2.37,7.47-1.07,19.43,8.44,26.93,10.3l64.11-31.35c7.74-2.75,9.89.7,14.17,6.22,12.19,15.7,26.48,36.67,37.16,53.53,2.75,4.34,5.83,7.68,2.53,13-1.53,2.46-5.06,4.02-5.53,7.07l-4.45,69.24c-.33,3.11-1.48,6.01-3.82,8.14l-207.52,148.92c-2.28,1.06-5.26,1.01-7.63.2l-40.54-24.41-80.36,54.38c-2.83,1.97-6.71,1.82-9.79.59l-97.14-69.12c-2.94-3.03-2.89-6.11-2.5-10.06l-23.04-19.19c-3.99-2.52-10.88.84-15.04-3.23-24.58-19.5-54.69-35.67-78.72-55.42-1.65-1.35-3.65-3.11-4.29-5.15l-5.81-75.95c-5.75-.85-8.81-4.58-7.28-10.5,12.53-18.63,24.51-37.93,37.6-56.23,4.24-5.93,9.06-14.75,17.87-11.8,1.73.58,4.49,3.35,5.96,2.95l17.3-13c.62-1.37.54-10.31.27-12.21-.68-4.8-4.79-4.34-3.43-11.74l53.87-157.09v-13.22ZM146.83,256.29l57.29-26.76-60.13-123.13,2.84,149.89ZM136.74,256.29l-3.46-148.63c-11.39,34.13-24,67.95-35.12,102.17-2.49,7.67-6,14.64-2.99,22.85l41.57,23.6ZM209.8,266.99l131.98-62.31-29.61-43.53-103,42.25c-1.02,1.08,8.45,17.86,9.31,20.61,3.01,9.71-3.31,11.52-10.61,15.07l1.94,27.92ZM341.42,215.99l-127.83,60.21-3.15-.39,1.89,27.7,125.93-63.31,1.27-1.88,1.9-22.34ZM376.69,246.22c-3.55-.07-10.75-4.99-13.54-5-1.71,0-4.03,2.43-5.98,2.48-.29,1.63.23.97.89,1.31,1.91.97,11.14,4.71,12.81,4.88,1.37.14,6.25-3.1,5.81-3.67ZM198.46,243.7l-52.17,24.34.53,137.5c1.58-1.49,2.86-3.84,4.03-5.72,9.43-15.1,19.63-35.65,30.08-49.27.82-1.08,1.72-2.04,2.69-2.98,3.96-4.3,21.98,11.23,23.02,10.11l-8.19-113.98ZM136.74,408.69l.04-133.85-.76-6.79-40.83-23.72,1.99,140.01,39.56,24.35ZM345.83,253.14v-4.41s-4.4,1.9-4.4,1.9l4.4,2.51ZM384.87,253.77l-7.88,4.4-.32,7.12,12.6,7.37c-.51-2.06,1.06-4.61.53-6.47-.32-1.1-2.95-2.85-3.82-5.04s-1.12-5.05-1.13-7.38ZM336.38,260.07v23.3l74.54,35.36,5.22,3.59,39.28-22.89c.15-1.03-.8-1.25-1.46-1.69-.96-.63-11.34-6.03-11.77-5.54-.2,5.27.22,13.36-7.09,12.48l-24.35-12.84c-4.4-4.47.27-11.01-1.62-14.13l-9.46-5.02c-2.18,5.87,1.39,14.81-8.68,13.08l-22.5-14.02c-3.13-3.65-1.08-12.07-2.26-12.99l-10.94-3.71c.07,3.99,1.1,11.15-4.71,11.27-2.64.05-13.44-7-14.18-6.23ZM326.31,283.68c-.53-8.53.39-17.56,0-26.14l-7.48,4.17c-.1.56.55,1.01.55,1.18v26.14l7.55-3.81c.25-.64-.61-1.26-.63-1.54ZM424.55,265.1c.36-.53-9.84-6.16-11.08-6.29-2.63-.26-7.9,3.3-10.33,4.72l12.91,6.37,8.5-4.81ZM572.99,316.56l4.34-8.67-33.46-48.46-1.73-.54-207.58,124.83,41.07,65.2,197.35-132.37ZM85.74,266.36l-12.55,8.55-1.32,1.83,13.86,7.88v-18.26ZM300.49,270.77l-7.56,3.15v28.97l7.56-4.09v-28.02ZM426.43,275.81c-3.62,1.72-9.22,3.99-7.45,9.03.47,1.35,11.08,5.7,12.81,7.33,2.01-1.9.09-5.17,1.57-7.52-4.26-.84-7.31-4.42-6.93-8.83ZM87.62,379.09c-1.27-12.58-.44-25.43-.6-38.12-.02-1.49-.66-2.87-.68-4.36-.21-13.38.8-26.94-.74-40.2-3.33-2.55-30.43-18.57-32.21-18.04l-35.67,52.85c4.12.37,4,4.33,6.06,6.86l63.84,41.01ZM473.04,287.78c-2.22-.36-4.68-1.47-6.72-2.41-3.24-1.5-11.81-6.39-14.53-6.92-3.09-.6-4.84,1.9-7.71,2.41-.32,1.47.2,1.01.81,1.4,6.03,3.91,14.37,6.2,20.43,10.46,1.22.2,5.76-2.58,6.94-3.5.52-.4,1.15.01.79-1.44ZM266.48,316.75l7.56-4.09v-28.65l-7.56,4.09v28.65ZM406.91,328.7c.48-.72-10.06-5.69-11.11-6.2-20.35-9.98-41.17-19.01-61.31-29.42l-1.43-.17c-37.89,19.39-75.01,40.44-113.03,59.57-1.99,1-3.72.11-3.99,2.99-.24,2.58,1.72,5.4.04,8.14l59.43,36.16,53.11-24.35,78.3-46.72ZM240.03,330.6l7.56-4.09v-29.28l-7.89,4.4c-.2.5.33.82.33.95v28.02ZM221.14,311.08l-7.17,3.08-.44.98,1.94,28.05,5.66-2.83v-29.28ZM572.54,329.34l-9.39,5.98c2.7,2.56,1.57,7.01,4.05,9.77.25.06,3.9-1.99,4.07-2.37,1.54-3.34-.15-9.6,1.26-13.38ZM546.1,359.57l14.82-9.46-2.24-11.95-14.18,9.46,1.6,11.96ZM47.95,374.68v-9.13l-23.62-15.43.31,9.76.64,1.25,22.67,13.55ZM570.65,350.75l-10.38,7.56c-.93,1.22.03,6.67,1.27,6.93,7.23-3.57,10.57-5.55,9.11-14.49ZM538.53,352.01l-163.74,109.25-1.25,28.03c7.75-3.48,21.12-17.37,23.94-1.26,3.81-.83,5.1-4.97,9.69-4.39,4.14.52,7.2,10.24,8.24,13.84l152.12-109.23,1.21-1.93,1.28-17.93-3.58,1.14-24.33,15.4c-3.39,1.22-5.06-3.51-6.21-6.05-4.01-8.79-2.63-9.97,5.1-15.29l-2.48-11.58ZM188.12,358.32l-38.03,61.4,82.57,53.78,42.62-61.97-87.16-53.2ZM554.28,362.72c-1.1-1.13-12.25,8.02-13.92,9.11l1.34,5.37c.59.43,12.2-6.6,12.63-7.19,1.53-2.1-.12-4.97-.05-7.29ZM34.1,373.42l-8.51-5.03.63,10.71,7.88,4.4v-10.08ZM54.25,369.65v10.39c0,.28-.96,2.19-1.27,2.5-3.26,3.18-9.33-3.55-12.58-4.71-.32.45-.38,9.48-.65,11.01-1.18,6.52-12.62-2.85-13.21-2.19l1.85,22.86,68.05,47.67v-16.06c0-4.96,5.04-14.8,9.13-17.95,3.71-2.85,12.71-7.66,16.71-4.12,2.68,2.37,12.32,18.54,14.57,22.59,8,14.43,10,22.1,8.06,38.5-.64,5.41,1.39,10.72.06,16.02l38.7,27.13c1.28.16.82-.05.93-.93.46-3.42-2.28-11.51,2.35-12.19,2.86-.42,14.12,10.04,14.65,9.34.56-3.52-1.01-13.02,3.47-13.28l27.39,13.91-2.03-35.75-176.18-114.76ZM360.31,444.59l-35.01-56.63-38.66,16.97c.34.95,2.4,1.56,3.35,1.99,8.97,4.09,29.81,10.78,36.54,15.73,1.86,1.37,1.81,2.91,3.33,4.22l30.45,17.72ZM249.48,467.26l63.59-39.36-28.95-11.99-34.63,51.35ZM119.74,466v-33.06c0-.27-2.42-4.18-3.36-4.03-6.79,4.31-6.65,9.43-6.75,16.65-.03,2.39-.09,5.82-.01,8.16.1,3.07,1.03,6.03.67,9.13,3.67-.51,6.52,1.37,9.45,3.15ZM364.09,491.82l.33-33.39-39.37-22.66,4.71,71.8,22.36,13.84c-.08-2.52,1.91-9.91,1.64-11.68-.17-1.14-3.44-2.49-3.55-6.29-.03-1.09,1.49-9.73,1.87-10.73,2.41-6.31,11.5-.33,12.01-.9ZM309.3,442.38v12.28c1.64-1.63,6.91-5.86,6.96-7.84.05-2.29-1.36-5.83-.67-8.53l-6.29,4.09ZM135.49,479.22v-12.91c0-2.89-3.62-12.13-5.03-15.12l-4.42-7.23v27.39l9.45,7.87ZM303,446.48l-62.03,37.79,1.58,34.63c3.48-.49,10.95-5.83,14.06-3.82,1.97,1.27,2.38,10.09,2.95,12.64,3.88-.99,12.36-9.59,15.79-4.77,1.34,1.88.31,10.68,1.52,13.58l43.04-29.38-3.05-50.59c-3.09,2.48-7.43,7.27-11.81,5.2-.63-.3-2.04-1.86-2.04-2.37v-12.91ZM373.54,507.56c3-1.4,18.95-14.77,18.78-16.57-.08-.87-1.4-2.91-1.76-3.95-1.13-.91-9.58,5.02-10.94,6.14-2.22,1.83-3.49,3.94-5.77,5.57l-.32,8.81ZM406.28,490.56c-.81-.61-14.35,9.02-15.41,11.35-1.47,3.24.67,9.04.31,12.58l17.96-12.59c1.35-2.7-2.09-8.57-2.86-11.34ZM362.5,499.09c-1.48-1.78-2.48-2.14-4.7-2.86-2.14,7.31-1.45,8.7,5.65,11.34-.36-3.06,1-6.11-.96-8.47ZM384.87,507.57l-9.37,6.68-1.61,2.16-.97,11.3,12.46-8.31-.5-11.84ZM363.46,513.86l-4.11-.65c-.64,1.93-.11,3.95-.37,5.93-.8,6.17-2.69,6.02,4.48,9.21v-14.48ZM233.1,527.09l-25.19-12.6v9.45l25.19,13.85v-10.71ZM214.2,544.72c-.64-2.8,1.52-5.87-.35-8.15l-22.94-16.41-.59,8.1,23.88,16.46ZM252.62,522.04l-9.77,3.77.33,11.98,10.4-6.31c.86-1.39-1.17-7.36-.97-9.44ZM269.62,529.61l-25.49,15.12.31,13.22,26.31-17.13-1.13-11.21ZM220.51,538.42v11.02l13.54,9.76c1.08-4.58-.51-9.15-.42-13.75l-13.12-7.03ZM480.45,403.77c7.27-.83,6.41,9.24,5.83,14.07-.72,5.96-10.46,11.18-15.08,14.52-3.44,2.49-4.61,6.12-10.07,3.04-3.57-2.01-4.29-12.29-2.88-15.36.56-1.21,4.76-5.53,6.02-6.57,2.05-1.7,14.25-9.48,16.17-9.7ZM464.23,429.47l15.15-10.98.59-7.28c-3.9,2.01-15.19,7.86-15.77,12.25-.25,1.84.23,4.1.04,6.01ZM167.76,264.31c-.41,2.46.25,10.23.64,12.91,1.23,8.47,10.66,9.61,13.54,1.91-.41-6.94,1.91-23.42-9.48-20.82-2.53.58-4.3,3.61-4.7,6ZM108.39,284.33c.94,7.81,10.89,8.57,12.94,1.58,1.87-6.37,3.21-22.82-7.43-20.66-6.51,1.32-6.14,13.89-5.51,19.08Z"/>
</svg>