<?xml version="1.0" encoding="UTF-8"?>
<svg id="Ebene_1" xmlns="http://www.w3.org/2000/svg" version="1.1" viewBox="0 0 595.28 595.28">
  <!-- Generator: Adobe Illustrator 29.8.3, SVG Export Plug-In . SVG Version: 2.1.1 Build 3)  -->
  <path d="M586.39,483.08c-30.42-34-61.75-67.34-90.28-102.93-28.12-35.07-44.91-78.59-97.95-77.62-31.96.59-64.37,18.52-91.07,34.76-69.82,42.47-128.97,98.38-192.4,149.31-12.87,15.21,6.96,28.34,21.8,20.61,3.18-1.66,5.38-4.53,8.14-6.18,3.93-2.36,6.95-3.01,11.21-6.08,19.57-14.12,36.91-32.83,56.79-47.57,46.96-34.83,109.58-75.81,165.98-91.65,51.09-14.35,81.79,31.49,110.34,65.58,19.15,22.87,41.66,47.7,62.3,69.5,3.05,3.23,9.09,9.9,12.83,11.62,13.2,6.04,31.44-4.55,22.32-19.34ZM245.81,243.21c7.2-4.72,15.63-21.77,20.66-29.43,18.56-28.22,31.69-58.32,72.29-49.01,33.28,7.63,37.05,42.04,49.46,68.62,7.09,15.17,16.19,29.37,23.74,44.24,1.5,2.95,11.68,13.61,14.53,15.29,10.72,6.33,28.24.52,25.91-13.99-1.66-10.33-12.42-33.16-16.87-43.96-12.45-30.18-26.37-64.05-42.52-92.26-13.23-23.12-36.85-60.38-67.62-56.68-13.65,1.64-23.01,13.46-30.41,23.85-16.22,22.78-30.2,48.36-45.77,71.71-9.68,14.51-23.61,29.99-29.35,46.39-5.19,14.82,14.98,22.42,25.95,15.22ZM198.63,298.6c31.66-8.56,60.54,19.75,84.59,35.02,13.12,8.33,33.21-.41,25.61-17.26-3.98-8.84-30.48-32.82-39.09-39.63-7.76-6.14-23.56-16.91-32.5-20.58-3.79-1.56-7.88-1.95-11.64-3.27-10.82-3.8-12.65-5.86-25.45-4.62-35.42,3.43-57.57,45.81-77.17,71.33-19.99,26.03-37.91,53.72-57.6,80.16-10.08,13.54-20.91,26.43-31.14,39.83-5,6.55-26.33,33.55-27.53,39.26-3.26,15.49,20.09,22.35,30.45,10.18,8.31-9.75,15.97-22.4,23.91-32.74,10.79-14.06,22.08-27.65,32.67-41.87,20.14-27.04,39.32-58.01,60.61-83.71,9.73-11.75,29.43-28.08,44.24-32.09Z"/>
</svg>