<?xml version="1.0" encoding="UTF-8"?>
<svg id="Ebene_1" xmlns="http://www.w3.org/2000/svg" version="1.1" xmlns:svg="http://www.w3.org/2000/svg" viewBox="0 0 595.28 595.28">
  <!-- Generator: Adobe Illustrator 29.8.3, SVG Export Plug-In . SVG Version: 2.1.1 Build 3)  -->
  <path d="M147.79,204.21c.47-4.13,2.95-8.98,3.94-13.07l-1.32-24.56,4.56,16.05,1.31.96,11.77-19.32,2.64-27.79,1.22,4.98,1.71,15.95,17.92-18.06,7.93-29.05.67,6.24-1.01,16.66,28.07-19.69,14.14-24.8c1.22-.15.48,1.31.36,1.99-1.06,5.64-4.07,11.33-3.97,16.98l24.49-14.11c4.72-7.61,9.26-15.54,16.4-21.22l-7.96,14.61-8.39,23.99,24.86-4.25-26.5,21.27c-1.1,6.65.07,13.38.36,19.94.33,7.35-.27,15.8,1.92,22.97.22.73-.43,1.16.99.94l25.85-15.69-22.85,34.99c3.1,12.83,8.94,24.57,14.69,36.34l23.86-20.94-16.07,34.68c-.49.95-.29,1.65.05,2.59.61,1.7,8.46,11.6,10.15,13.44,5.26,5.7,12.27,10.75,19.29,14.07l4.91-24.2c.97-.16.81,1.23.98,1.95,1.37,6.01,1.7,12.36,3.27,18.33,5.78-6.09,11.34-12.94,16.18-19.81s10.41-14.75,12.29-22.72c1.79.83,1.03,4.05,1.73,5.74.42,1,2.2,1.24,2.57,2.73-2.82,4.24-3.05,11.76-2.38,16.76.34,2.56,2.67,3.11,2.66,4.54,0,1.17-2.03,2.45-2.03,5.24,0,3.75,2.7,11.29,2.65,13.1-.03,1-1.71,2.58-1.97,5.2-.44,4.43,1.93,10.16,1.81,11.82-.03.45-1.66,1.74-2.12,2.92-1.79,4.62-1.53,13,3.6,15.39-4.44,3.16-3.82,12.93-.02,16.36-4.59,4.08-2.92,12.94.05,17.66-4.27,3.16-5,12.67-1.33,16.68-1.82.23-2.98,1.72-3.49,3.39-.96,3.13-1.37,11.79.08,14.76.69,1.42,2.09,2.11,2.76,3.45-3.02.17-4.14,2.99-4.52,5.63-.44,3.06-1.1,9.91.67,12.33.89,1.21,2.38.59,1.89,2.33-4.72,1.2-5.13,12.03-3.41,15.53.64,1.3,1.82,2.1,2.75,3.15v.96c-5.35,1.82-3.94,10-3.95,14.76,0,5.08-.66,4.94-1.2,9.21-.38,3.02.12,6.36-.07,9.42l-22.18-.72c-1.65-7.4-3.27-14.94-3.98-22.52-.98-10.46-1.08-19.36,1.1-29.65,3.48-16.48,11.14-31.69,17.21-47.24-13.97,17.21-28.4,38.76-31.31,61.28-.27,2.12.06,4.25-.16,6.38-.07.67-.26,3.08-1.22,3.02-4.39-26.88-8.71-54.96-22.14-78.97-5.76-10.31-16.3-24.72-25.3-32.29-.73-.62-1.06-1.59-2.29-1.3,13.35,15.74,21.5,35.51,26.77,55.35,4.79,18.01,7.11,36.36,7.96,54.92l-1.37,19.3c-.84,1.11-1.19-.08-1.3-.97-1.44-11.39-3.42-26.04-9.05-36.11-8.73-15.62-29.09-23.53-45.91-26.39l10.04,4.01c19.74,8.88,28.71,19.97,31.73,41.56.56,3.98,2.59,27.33.68,28.96l-58.48,2.04-26.83,1.96c-49.74,5.72-102.73,10.77-149.66,28.95-21.75,8.43-61.85,28.41-31.55,54.14,30.79,26.15,114.66,38.68,155.04,43.21,82.06,9.21,171.11,9.21,253.18,0,40.33-4.52,124.83-17.14,155.4-43.51,35-30.19-25.76-52.45-47.92-59.41-39.42-12.38-81.82-17.82-122.85-22.07-.06-5.57.47-10.93-.97-16.38-.31-1.16-1.43-1.67-1.68-3.56-.74-5.75,2.65-16.9-3.24-19.35,3.4-3.05,3.19-10.34,2.56-14.66-.56-3.86-.85-4.99-1.21-9.24-.4-4.74-.02-11.49-4.61-13.72.85-.91,2.21-1.23,2.78-2.44,1.16-2.45-.27-12.69-1.15-15.55-.27-.87-1.46-1.89-1.46-2.29s1.39-1.62,1.65-2.76c1.55-6.77-2.35-12.44-2.42-16.87-.02-1.29,1.16-3.22,1.28-5.23.18-3.07-.16-11.73-3.96-12.14.89-1.37,3.1-3.93,3.19-5.52.08-1.3-.45-9.88-.71-11.02-.39-1.68-2.18-2.65-2.35-3.5-.13-.64,1.77-6.8,1.62-8.99-.13-1.84-2.1-4.66-2.14-5.97-.12-4.58,2.29-8.09.22-14.23-1.45-4.31-.7-2.25-1.09-6.72-.23-2.68-1.58-11.89-2.74-13.69-.51-.79-1.87-.94-1.91-1.42-.05-.65.77-2.27.7-3.84-.31-6.55-2.69-13.99-3.3-20.32-.32-3.32-.6-10.21-1.45-12.95-.52-1.65-2.7-2.22-3.75-3.41,2.85-2.57.52-5.69.02-8.56-1.08-6.21-2.45-10.59-3.33-16.96-.48-3.46-.73-9.66-2.91-12.16-.61-.7-2.06-1.15-2.19-1.39-.69-1.18.61-2.93.19-4.42-1.35-4.81-10.5-14.68-12.74-20.01-.16-.38-.12-1.1.32-.97l14.06,11.12c1.23-16.09-4.32-30.92-9.51-45.78l-23.19-9.86c-.17-1.12,1.56-.7,2.27-.64,5.23.43,10.47,1.17,15.73,1.3.84-.13,1.18.36.97-.98-.33-2.17-3.58-9.23-4.68-11.69-4.38-9.79-9.97-19.09-14.95-28.56,1.23-.29,1.56.68,2.29,1.3,5.95,4.99,11.45,11.55,17.52,16.5l38.11,9.01.94-.95c-3.2-5.28-6.69-10.5-9.54-15.99-.29-.56-1.68-1.38-.6-2.02l23.53,22.92c12.73,4.5,25.52,9.05,37.32,15.68l-5.93-21.56.35-1.99,17.41,29.38c12.87,7.86,25.74,15.76,37.24,25.58,1.52.24.89-.5.81-1.46-.69-8.02-2.77-16.51-3.57-24.58-.07-.72-.77-2.23.46-2.09l11.21,33.62c7.28,5.38,11.55,12.77,16.6,20.04l4.24-18.97,2.78,30.93c.26.97,5.26,11.47,5.69,11.97,3.72,4.26,6.24-3.32,7.25-5.91,8.3-21.06,13.41-46.35,6.52-68.41-3.28-.47.68,7.01-2.6,6.55-.57-2.88-1.85-6.24-3.39-8.73-2.63-4.26-9.29-9.61-11.29-13.57-1.9-3.76-.71-9.93-3.98-13.04-.53,2.22-.69,4.58-1.01,6.85-.13.94.62,1.93-.94,1.65-10-11.49-23.32-18.93-36.36-26.46l-6.51-15.42c-.96-.92-1.19.07-1.3.97-.33,2.48.65,6.82.82,9.67.02.37,1.21,1.73-.48,1.13-1.24-.44-3.29-2.19-4.9-2.96-5.41-2.56-13.03-5.25-18.86-6.66-5.18-1.25-16.48-1.57-19.75-5.11-1.91-2.06-5.87-9.71-8.18-10.15-.47-.09-1.13-.12-.98.33l4.24,10.16c-18.45-3.8-37.33-4.59-56.12-5.38l-11.26-9.68c-.99,1.66,4.66,8.85,4.26,9.15-8.78-.34-17.76.47-26.52.03-2.46-.12-6.86-.37-9.1-.72-1.06-.17-4.83-2.54-5.29-3.22-1.25-1.88,3.5-2.74,4.79-3.09,15.04-4.15,35.24-5.68,50.81-6.11,35.18-.98,69.28,4.22,101.76,17.69-.18-.84-1.08-1.39-1.75-1.85-34.43-23.45-82.13-29.06-122.88-24.97-7.47.75-14.54,3.45-21.92,4.57l14.48-6.12c6.74-.93,13.3-2.96,20.18-2.39l-4.25-3.92c-8.09-5.68-14.54-6.65-24.14-4.51-2.76.62-5.38,2.27-8.25,2.54l12.42-5.24c.17-.87-1.19-1.02-1.79-1.14-7.29-1.37-15.96-.76-23.39-.16-18.79,1.52-33.15,2.56-50.87,9.32-.87.33-2.96.81-3.11,1.8h9.49c.11,0,1.03.88.98,1.3-15.16-1.17-33.34,8.36-35.98,24.22,5.15.22,9.36-3.03,14.1-4.54,6.44-2.04,13.92-3.12,20.56-4.61l-18.31,7.86,9.15,1.95c-6.27.66-11.88,3.57-17.8,5.43-17.4,5.46-35.23,10.02-50.89,19.78l28.27-9.68c14.67-3.99,30.1-8.51,45.34-9.62.88-.06,4.05-.56,4.24.64-4.7,1.76-8.47,6.31-12.93,8.34-3.05,1.39-14.96,5-18.17,5.39-1.03.13-1.08.11-.95-.96l4.57-6.56-.97-.32-15.43,13.36-31.03,11.5c-.9-.38-.08-1.23.2-1.76,1.7-3.2,4.08-6.07,5.75-9.3.29-.56,1.68-1.38.6-2.02-5.65,4.09-9.81,9.9-15.07,14.38-6.84,5.82-15.4,10.4-22.24,16.37-.95.15-1.18.06-.94-.94.86-3.56,3.11-7.74,2.91-11.49l-22.58,31.41c-1.09.18-.72-1.6-.67-2.31.13-2.04,1.26-4.3.36-6.19-8.13,9.44-13.76,18.53-17.15,30.62-5.5,19.58-7.4,42.38-3.16,62.35,1.23,5.78,2.99,14.78,9.52,16.33.36-4.5-.5-9.67,0-14.07ZM311.99,48.12c3.09,18.92,7.69,37.72,10.38,56.7,3.99,28.11,5.41,55.93,4.7,84.36-.26,10.58-.21,29.7-3.45,39.09-.91,2.62-5.69,14.32-7.02,15.88-2.83,3.33-8.84-6.42-9.22-9.19l7.89-45.47-24.54,16.34-1.01-1.61,19.65-65.13-33.37,10.79,28.8-50.38c.15-1.41-.13-.83-.99-.97-6.75-1.1-13.78-1.55-20.61-1.98,3.72-13.48,9.91-28.26,18.43-39.48,1.25-1.64,8.65-10.12,10.35-8.95ZM424.86,167.88c1.28-.26,6.61-3.96,8.84-4.9,2.37-1,5.28-1.91,7.84-2.3l-8.43,4.98-14.46,12.05c-.68,1.31,13.04,4.92,14.52,5.42.69.23,1.98.15,1.83,1.1l-23.59,5.05c-4.58,8.66-8.97,17.58-11.73,27.02l20.93-.98-22.94,14.37c1.69,8.12,2.05,16.55,5.24,24.3,1.55,1.16,10.06-2.89,12.47-2.99-1.8,2.83-10.62,8.04-11.12,10.82-.7,3.83,2.29,11.94,2.61,16.34.38,5.16-1.13,9.71.67,14.71l7.85-11.12c1.22-.15.49,1.32.36,1.99-.66,3.51-1.79,6.98-2.67,10.43-.19.75-.75.93.67.67,2.87-.53,12.55-6.16,15.57-7.99,4.71-2.85,9.33-6.13,13.53-9.69-1.31,2.08.33,4.68.05,6.1-.09.44-1.53.82-2.17,1.92-.48.82-2.73,7.4-2.85,8.33-.23,1.69.91,2.38.88,2.97-.02.31-2.25,3.09-2.8,5.52-.59,2.58.06,5.94-.26,7.42-.07.34-1.73.99-2.48,2.93-1.31,3.38-.11,5.46-.43,7.71-.11.78-1.73,1.69-2.26,2.68-1.59,2.96-2.64,7.54.55,9.72-2.62,1.74-3.68,6.13-3.25,9.13.12.87,1.14,1.7,1.14,2.01,0,.36-2.09,1.96-2.42,3.95-.5,3.09.83,6.45.65,8.38-.04.46-1.17.39-1.53,1.23-1.47,3.37-2.49,7.06-.47,10.3-3.25-.06-4.21,8.52-3.81,10.64.21,1.11,1.73,2.8,1.68,3.45-.03.34-2.62,2.7-3.02,5.95s1.19,7.83,1.1,8.32c-.12.68-1.64,2.33-2.04,3.83-1.63,6.06,1.53,7.35,1.53,9.38,0,1.07-1.4,1.72-1.81,2.78-1.7,4.36-.05,6.76-.21,10.25-.07,1.49-1.14,3.17-1.3,5.25-.18,2.39-.36,9.94,1.15,11.52,4.19,4.38,28.71,4.12,34.02,1.42,3.71-1.89,3.37-10.44,2.76-14.17-.26-1.61-1.62-2.89-1.74-4.05-.26-2.56.72-7.39.46-9.68-.23-1.98-2.5-3.64-2.5-3.98,0-.22,1.61-1.95,1.86-3.92.48-3.76-.9-5.49-1.13-7.95-.25-2.6.62-8.21-.27-10.98-.33-1.02-2.96-1.01-1.87-2.35.09-.11,1.27-.07,1.64-.63.59-.91.45-7.24.36-8.9-.07-1.26-1.1-2.17-1.11-2.58,0-.32,1.44-2.47,1.67-3.98.57-3.9-.87-6.14-1-8.46-.07-1.29,1.98-5.49,1.78-8.52-.11-1.67-1.38-3.42-1.31-3.81.13-.78,1.89-1.55,2.34-2.81,1.09-3.05-.46-8.63-.3-9.59.18-1.12,2.16-3.58,2.34-5.51,1.06-11.5,1.68-29.57,4.12-40.37.58-2.55,3.06-6.75,3.22-9.3.12-1.93-1.09-2.73-1.09-3.2,0-.43,2.46-6.05,2.81-7.95.29-1.58-.27-3.6-.02-4.87.54-2.77,3.09-6.66,3.21-9.67.06-1.49-1-2.62-.94-3.7.06-.97,1.14-1.57,1.21-2.56.29-4.11-2.75-10.86-1.89-15.41l4.51,10.19,1.36.93c2.07-4.97,4.29-9.85,5.47-15.15.65-2.9,2.3-11.57,2.19-14.11s-10.71-11.54-9.61-12.62l9.8,5.89c1.87-9.7,1.22-19.61,1.32-29.45,1.2.2,1.1,1.34,1.39,2.2,1.58,4.68,1.94,9.67,3.26,14.41l16.61,19.38c.98-3.83.98-8.09,1.81-11.94.14-.63.23-1.96,1.13-1.8l1.45,21.79c4.08,7.3,7.07,15.24,9.03,23.37,1.5.37,1.07-.29,1.49-.83,2.9-3.72,4.24-8.85,7.65-12.26l-7.08,22.56c2.21,10,2.86,20.23,3.17,30.45l12.42-13.09c-1.71,6.43-8.97,12.92-11.25,18.51-1.12,2.75-.89,6.05-1.6,8.87-.83,3.31-2.85,6.67-2.52,9.91l10.48-5.88.32,1.29c-.56.08-1.2.26-1.62.65-3.49,3.27-10.52,8.64-13.08,11.82-.39.49-4.53,8-4.66,8.47-.25.94.1,1.73.47,2.55,1.32.83,7.57-1.31,9.41-1.86,13.98-4.21,28.08-12.27,36.29-24.56l-3.6,1.64c-.46-1.98,1.9-4.39,2.62-6.55,1.2-3.61,1.06-8.27,2.61-11.79,1.04-2.36,3.67-4.51,4.91-6.87-1.25-1.44-4.98,2.63-5.22,2.29-.11-4.59.89-8.74.64-13.41-.3-5.5-3.06-14.06-2.64-18.98.31-3.68,4.31-6.92,3.95-10.8l-5.88,5.89c-.26-5.51-3.08-12.01-5.65-16.94-1.44-2.77-6.53-9.12-7.05-11.18-.68-2.7,1.5-8.08.91-11.15l-3.59,6.53c-3.75-4.95-7.73-10.29-12.09-14.73-3.92-4-12.37-9.51-15.08-13.05-1.87-2.45-2.19-7.23-3.26-10.16l-1.23,4.99-1.04.88c-4.28-4.67-16.08-8.75-19.61-13.11-.43-.53-2.04-3.55-1.66-3.9,14.15,2.34,27.05,10.45,39.24,17.67l-.09-3.18c-5.79-.74-6.36-7.41-10.03-10.58s-11.17-5.32-16.04-6.54c.35-1.36.87-.98,1.82-.9,3.5.29,8.01,1.54,10.94,3.52.44.14.47-.62.32-.97-.7-1.55-5.36-4.88-6.9-6.19-3.62-3.07-2.59-2.08-6.79-4.32-4.44-2.36-10.36-8.15-14.88-11.29-7.08-4.93-14.08-10.25-23.1-10.59,1.07,1.43,3.61,1.88,4.91,3.26.73.77.08.81-.66.67-2.56-.49-5.69-3.06-8.8-3.64-5.15-.95-12.22.17-16.6,3.09-.62.41-3.72,2.57-2.4,3.49l21.27,5.56-11.45-.65,3.92,3.26c-16.02-3.08-31.97-7.75-48.41-7.84l33.36,7.52,13.07,4.6,5.25,2.92c-8.37,1.79-15.46-.45-23.55-1.96l3.93-3.26c-4.18-.45-8.78,2-12.76,2.01-6.61,0-15-3.58-21.91-3.32-.33-1.53.19-1.05.84-1.47,2.15-1.37,5.38-2.26,7.01-4.42l-20.86,4.65,1.26,17.89c.5,2.62-3.76,6.95-2.36,8.91.53.64,1.23.65,1.98.65,2.18-.02,9.46-.99,11.49-1.65,4.25-1.38,10.51-6.64,14.72-8.84l.97.32c-2.39,2.94-6.47,5.3-7.85,8.84,5.6-.78,14.1,1.06,19.3,0ZM412.63,277.68c-3.13,1.45-4.25-6.46-3.65-8.53l17.51-26-19.33,3.17-.95-1.53,31.39-34.01c-.57-1.07-1.35-.86-2.28-1.02-6.66-1.15-13.53-2.11-20.28-2.61l-.32-1.3,33.35-20.63-11.76-8.53c-.78-3.18,26.92-21.3,32.71-19.28.15,1.1-.16,2.1-.45,3.15-4.9,17.92-15.57,44.61-23.2,61.87-5.04,11.42-15.02,34.21-21.6,43.83-2.94,4.3-7.98,7.27-11.13,11.41ZM550.74,197c.49-.75,1.74-1.48,2.35-2.27,7.97,8.5,14.43,17.83,18.64,28.78-3.79-4.4-7-9.34-10.78-13.75-2.63-3.08-7.78-7.05-9.92-10.02-.8-1.11-1.09-1.52-.29-2.74Z"/>
</svg>