<?xml version="1.0" encoding="UTF-8"?>
<svg id="Ebene_1" xmlns="http://www.w3.org/2000/svg" version="1.1" viewBox="0 0 595.28 595.28">
  <!-- Generator: Adobe Illustrator 29.8.3, SVG Export Plug-In . SVG Version: 2.1.1 Build 3)  -->
  <path d="M44.36,273.77c-9.29-2.36-11.19-15.63-12.73-23.76-4.79-25.35-2.01-57.45,6.1-81.99,4.2-12.69,11.83-23.72,20.51-33.73.45,2.87-.4,6.01-.77,8.91-.06.49-.75,2.66.45,1.74l29.38-39.71c.15,5.35-3.58,10.84-3.23,16.14l25.19-18.08,22.61-21.3.96.31-9.68,15.51c-.1.49.6.4.95.31,12.54-3.15,26.44-10.98,39.25-14.35l20.18-17.27.96.31c-1.2,2.54-5.05,6.66-5.8,9.06-.27.88.05,1.16.93.94,7.25-2.77,16.46-3.81,23.4-6.96,5.31-2.41,11.73-8.17,16.34-11.74-34.44,2.39-67.27,13.55-99.44,25.17l15.7-8.5c16.12-7.39,33.15-11.9,50.02-17.14,7.49-2.33,14.66-6.3,22.74-6.65l-1.78-1.11-10.48-1.46,17.22-7,6.33-3.35c-8.48,2.31-17.8,3.51-26.14,6.15-5.46,1.72-11.75,6.14-17.28,6-.8-.02-.98-.26-1.45-.86,2.25-9.3,8.42-16.59,16.2-21.88,2.59-1.77,7.43-4.84,10.26-5.88,6.29-2.31,14.06-1.82,20.67-2.9-.12-.96-2.81-1.07-3.64-1.19-3.03-.42-5.39-.05-8.29-.07-.75,0-2.43.43-2.27-.66,1.9-.39,3.46-1.57,5.3-2.13,9.25-2.78,21.25-7.84,30.61-8.78,4.99-.5,10.4.28,15.41-.09,3.7-.27,7.88-1.63,11.64-1.92,12.81-1,25.68-2.11,38.41,0-.97,1.98-3.89,1.56-5.61,2.45l-10.53,5.28c4.41-.66,8.39-2.84,12.75-3.7,8.45-1.66,12.16-1.69,19.96,1.66,5.21,2.24,10.37,5.12,13.78,9.79-12.57-.07-25.69,1.98-37.24,7l-7.96,3.98c7.3-.76,14.55-3.95,21.7-5.08,17.97-2.85,44.24-2.91,62.58-2.04,31.43,1.49,76.19,14.71,101.89,33.06.89.63,1.95,1.16,1.71,2.48-15.33-7.1-32.53-12.09-49.06-15.83-40.17-9.07-107.28-10.99-146.72,1.16-1.74.54-6.26,1.11-4.4,3.38.34.41,5.76,4.83,6.15,4.83h45.52l-5.81-10.66c-.14-.44.53-.44.95-.31,3.6,1.12,11.1,11.24,15,12.12,23.89.42,47.75,2.26,71.21,6.59-1.74-3.75-3.5-7.6-4.99-11.47-.25-.64-1.53-2.45.16-2.1,5.02,3.81,8.15,10.36,12.12,15.33,18.57,3.51,38.38,6.26,54.39,16.97.6-4.09-.85-8.41-1-12.56-.03-.87-.56-3.3.99-2.93,3.51,3.99,5.44,16.55,8.76,19.65,2.78,2.6,10.68,5.9,14.37,8.23,5.6,3.54,12.69,7.88,17.83,11.88s9.8,9.83,15.23,13.82l1.62-10.97c4.17,3.78,2.92,11.68,5.44,16.83s10.31,11.21,13.56,16.14c2.4,3.64,4.06,8.75,5.54,12.87l1.2-4.92.09-4.76c2.02,1.37,2.69,4.98,3.31,7.34,6.22,23.82-.66,54.88-9.11,77.58-.74,1.99-3.58,9.76-4.46,10.89-.72.93-5.64.75-6.17-.93l-7.31-15.94-2.74-38.91c-.93-.15-.9,1.14-1.09,1.8-1.91,6.87-2.31,14.93-4.13,21.7-.2.75-.23,1.55-1.22,1.67-5.35-9.57-11.39-19.25-20.54-25.63l-14.34-43.45c-1.11-.16-.69,1.53-.63,2.24.83,10.63,3.39,21.66,4.51,32.31l-.95,1.6c-7.67-6.15-15.47-12.22-23.63-17.69-5.7-3.82-20.02-10.88-23.86-14.88-5.98-6.22-16.07-26.6-21.57-35.26-.49-.78-.95-1.6-1.01-2.54l7.44,30.34c-7.22-3.94-14.7-7.48-22.3-10.63-10.49-4.35-22.19-6.39-30.67-13.89s-16.51-17.34-25.17-25.2l13.57,25.17c-16.28-4.86-32.97-8.23-49.58-11.76-7.98-6.32-15-14.75-22.74-21.17-.73-.6-1.04-1.57-2.26-1.29,8.48,17.19,18.79,33.53,24.54,51.97-.08,1.12-20.61-1.36-22.37-1.53-.72-.07-2.32-.59-2.17.56l29.04,11.97c7.59,18.92,14.23,38.96,12.92,59.71l-17.76-14.85-.95.95,15.84,24.85c1.84,1.88-.23,4.23.37,6.04.3.9,2.32,1.63,3.17,2.68,3.56,4.38,2.81,17.5,3.88,23.24.36,1.93,3.25,6.32,3.71,8.56.34,1.67-.09,3.39.21,4.96.39,2.05,1.61,4.89,1.72,6.69.12,1.92-2.12,4.96-1.79,5.32.49.52,4.21.66,5.03,4.34-.33,5.14,1.25,10.39,1.49,15.36.06,1.35-.8,2.7-.7,3.85s1.46,2.06,1.79,3.39c.86,3.43,3.16,16.06,3.34,19.32.12,2.26-1.29,3.29-1.3,4.39,0,.31,1.71.94,2.33,1.61,1.45,1.55,4.15,16.39,4.19,19.13.03,1.83-1.17,3.4-1.14,3.84.04.56,1.55,1.48,1.92,2.42,1.51,3.82,1.41,11.46,1.16,15.67-.09,1.52-1.25,2.74-1.17,3.74.3,3.75,3.14,5.76,2.47,12.42-.2,2.03-2.02,5.43-1.84,6.34.17.84,2.53,2.7,2.95,4.76.38,1.85.92,11.36.84,13.4-.1,2.56-2.47,5.45-3.92,7.43,6.13.63,4.93,14.28,4.54,19.07-.12,1.45-1.32,2.99-1.19,3.74.12.65,1.31,1.66,1.65,2.86,1.29,4.62,2.19,13.23,1.42,17.88-.26,1.59-1.93,3-1.81,3.79.09.55,1.87,2.98,2.32,4.8.72,2.92,1.92,15.06.96,17.43-.87,2.16-2.19,1.99-3.58,2.76-1.85,1.02,1.93,1.55,3.08,3.25,1.29,1.92,3,14.35,2.99,17.09,0,1.8-1.11,3.08-1.12,3.87s1.86,3.68,2.2,5.32c.9,4.37,1.42,11.84-.65,15.84-.5.96-2.42,2.55-2.42,2.73,0,.5,2.07,1.46,2.59,2.1,2.96,3.67,1.99,14.83,1.95,19.88,0,1.35-.77,2.74-.67,3.83.11,1.24,2.49,3.95,2.93,6.12,1.25,6.05,1.03,15.37.12,21.5-1.04,6.98-5.92,7.64-11.96,8.7-13.45,2.36-36.18,3.22-49.18-.81-3.28-1.02-8.2-2.89-8.92-6.57-1.24-6.3-1.14-16.52.14-22.81.35-1.74,2.18-4.79,2.16-5.33-.03-.96-1.07-2.42-1.16-3.99-.3-4.74-.72-14.02,2.29-17.74.7-.87,2.77-1.84,2.89-2.3.24-.97-2.47-2.83-3.13-3.95-2.43-4.12-1.68-14.3.9-18.28.49-.76,2.85-2.65,2.85-2.94,0-.23-2.34-2.45-2.83-3.6-1.45-3.44-.64-16.63,1.65-19.56,1.1-1.41,2.65-1.42,3.78-2.67-5.07-3.73-4.81-9.06-4.5-14.84.22-4.15.42-10.76,5.16-11.96-.27-1.86-1.81-2.41-2.3-4.46-.7-2.89.16-10.83,1.34-13.6.63-1.49,2.78-3.14,2.87-3.64.14-.82-1.5-1.92-1.94-3.1-1.44-3.82-2.17-12.96-.23-16.46.43-.78,2.11-1.9,2.11-2.31,0-.28-2.44-3.14-2.86-4.8-1.3-5.24-1.89-12.97,2.94-16.51-6.42-2.81-6.75-13.89-4.56-19.42.57-1.43,3.18-3.45,3.18-3.82,0-.29-1.27-1.36-1.53-2.25-1.19-4.12-1.95-11.48-.67-15.55.42-1.35,2.26-2.23,2.29-3.49.02-.78-1.9-4.38-2.29-6.12-.72-3.19-1.5-11.45-.8-14.43.3-1.29,1.81-2.33,1.82-3.37,0-1.31-2.18-2.36-2.75-3.71-.84-1.96-.8-14.28-.43-16.89.32-2.24,3.06-5.73,2.99-6.52-.08-.93-3.24-2.68-3.52-4.04l-1.45-7.25c-6.98,20.79-22.84,38.1-36.49,54.87l-5.48-26.46-5.83,30.99c-16.87-5.49-28.59-20.92-38.41-34.91-.78-1.91.71-4.33,1.5-6.21,5.76-13.8,13.63-26.87,18.83-40.89l-30.02,27.11c-7.36-15.2-15-30.35-18.89-46.93l30.19-45.39-34.55,21.29c-.72-.44-.74-.93-.94-1.63-2.8-10.03-4.2-39.74-3.28-50.36.14-1.63.39-3.26,1.03-4.78l33.85-26.52c.16-1.14-1.47-.64-2.17-.56-10.1,1.15-20.05,4.89-30.1,6.38,4.09-12.93,8.01-27.44,14.51-39.4.76-1.39,7.25-10.47,6.79-10.97-8.94,7.18-15.29,17.18-20.96,27.14l-31.67,18.05c-1.68.14-.64-.28-.48-1.13,1.29-6.77,4.55-13.98,5.84-20.65.13-.67.66-2.26-.49-2.1l-18.39,31.66-35.54,25.16c-.45-9.6.85-19.2,1.61-28.74.06-.71.47-2.41-.63-2.24l-10.69,38.71c-8.54,6.95-15.45,15.54-23.22,23.27-1.36-7.95-1.33-16.14-2.33-24.13-.1-.78-.28-3.53-1.21-3.63-.33,6.32-.67,12.74-1.3,19.04-.45,4.5-.82,13.5-2.1,17.27-2.28,6.67-12.49,16.21-15.04,23.7l-1.58.68-5.81-21.95c.06,2.68-.12,5.38,0,8.06.3,6.84,2.34,16.78,1.91,23.18-.28,4.13-5.15,12.13-5.15,16.86v18.4ZM254.21,56.81c-2.51-2.65-14.43,12.34-15.76,14.27-9.49,13.76-17.27,30.82-21.04,47.07l27.76,3.55-36.3,61.85-.18,3.69c12.2-7.17,26.92-9.82,40.17-14.75l1.38.97-25.11,82.55c.17,1.52,1.31,2.06,2.59,1.28l30.37-20.32-10.37,58.42c.1,2.23,5.98,10.23,7.74,11.68,3.42,2.83,4.71-1.25,5.97-3.81,2.24-4.54,8.95-19.73,9.52-24.06.97-7.37,1.05-18.07,1.37-25.75,1.8-43.42.47-85.41-5.94-128.42-3.4-22.81-9.32-45.31-12.17-68.22Z"/>
</svg>