<?xml version="1.0" encoding="UTF-8"?>
<svg id="Ebene_1" xmlns="http://www.w3.org/2000/svg" version="1.1" viewBox="0 0 595.28 595.28">
  <!-- Generator: Adobe Illustrator 29.8.3, SVG Export Plug-In . SVG Version: 2.1.1 Build 3)  -->
  <path d="M341.87,511.93c3.34.54,6.67,1.28,10.03,1.72,8.78,1.15,31.23,4.32,38.63,1.42,2.24-.88,11.66-8.63,14.04-10.68,5.74-4.95,10.69-10.43,16.59-15.37,4.21-3.53,15.51-13.15,19.76-15.21,5.4-2.62,20.01-4.84,26.94-6.82,15.74-4.49,31.37-9.69,47.03-14.47,17.52-5.35,29.49-8.81,45.63-18.28,8.73-5.12,27.01-16.16,13.87-26.77-26.93-7.67-52.21-18.72-77-31.53-15.63-8.07-33.65-17.31-47.8-27.56-4.06-2.94-7.89-6.19-11.86-9.24-.25-1.36.59-.84,1.49-.9,35.73-2.38,76.28-8.71,105.49-30.77,2.15-1.62,5.82-5.26,5.71-8.08-.31-7.53-13.07-7.86-18.78-9.57-8.5-2.54-14.78-6.93-22.56-10.6-12.53-5.9-25.45-11.21-37.61-17.86-30.59-16.76-56.21-41.98-81.37-65.75-.26-1.44.66-.75,1.52-.87,7.56-1.05,29.91-2.24,34.66-7.56,5.5-6.16.28-12.85-3.64-18.08-14.45-19.25-30.91-37.2-45.45-56.45-21.55-28.55-37.64-54.95-55.11-85.99-3.24-5.75-8.58-16.63-12.51-21.26-5.11-6.02-11.08-2.84-15.31,2.07-12.5,14.52-23.31,34.52-35.34,50.28s-27.16,34.55-40.92,49.52c-5.59,6.08-21.55,19.39-24.55,25.49s1.45,10.96,7.21,12.34c5.12,1.23,14.23.49,19.74.15,8.56-.53,17.09-2.19,25.62-2.71-9.51,10.95-19.77,21.22-30.16,31.35-17.74,17.29-36.71,32.11-55.73,47.97-9.59,7.99-18.44,17.09-28.36,24.7-16.9,12.97-35.36,24.27-51.21,38.62-5.04,4.56-8.68,11.36-.05,14.49,22.96,8.33,63.82.97,87.64-4.67,8.62-2.04,17.02-4.92,25.6-6.96.77-.18,1.15-1.17,1.03.42-31.04,32.95-68.3,59.4-105.3,85.23-15.2,10.6-31.23,22.03-48.2,29.57-5.56,2.47-11.65,4.08-17.08,6.43-4.51,1.95-8.2,3.89-7.87,9.62.13,2.22,1.46,3.26,1.8,4.88,1.38,6.68-.12,6.71,5.45,12.04,20.83,19.91,66.35,30.25,94.43,33.99,38.37,5.12,75.81,1.7,113.84-4.13,9.49,4.99,18.39,11.01,27.65,16.37,1.52.88,6.96,2.79,7,4.36-3.79,17.46-3.8,35.39-5.4,53.12-1.03,11.48-4.3,26.41-4.27,37.39.02,5.7,3.33,13.98,9.53,15.25,16.44.29,32.88.1,49.32.11,6.78,0,14.1,1.03,20.93-.12,10.11-1.69,10.53-15.07,10.12-23.1-.7-13.74-2.07-27.8-3.05-41.58-.37-5.31-1.33-10.68-1.8-15.98ZM519.1,411.83c-.12.91-.85.97-1.56,1.14-12.56,3.05-23.35,3.74-36.09,3.65-30.75-.22-62.56-1.92-92.46-9.42-7.87-1.97-23.26-8.74-30.54-8.04-3.92.38-6.22,2.68-5,6.81.36,1.22,3.9,3.72,5.1,4.54,12.06,8.22,35.58,18.98,49.41,25.35,3.71,1.7,10.09,3.28,13.06,5.02,3.26,1.91.46,6.12-1.37,8.05-5.27,5.57-13.39,11.56-19.32,16.85-2.21,1.98-10.64,10.98-12.92,11.1-59.05-13-119.21-30.62-167.61-68.09-4.04-3.13-13.01-12.39-17.53-13.23-3.29-.61-7.97,1.3-8.04,5.09s10.21,15.76,9.58,16.59c-3.07.89-5.74,2.13-8.92,2.84-10.99,2.45-25.83,3.9-37.2,5-19.69,1.91-42.38,3.84-62.06,4.25-9.89.2-16.04-.71-25.54-2.85-5.72-1.29-11.45-2.87-16.99-4.72,15.82-8.72,31.54-17.66,46.74-27.43,16.9-10.87,33.11-22.81,49.77-34.04,15.7-10.58,34.65-20.16,46.62-35.38,20.56-26.12,37.88-57.76,57.73-84.57,1.76-2.38,4.17-4.36,5.64-7.04,1.95-.48,11.37,13.51,13.23,15.69,3.96,4.6,10.49,11.02,15.06,15.08,2.61,2.33,8.18,8.01,11.51,6.05,1.97-1.16,8.56-7.39,10.54-9.35,7.3-7.21,15.02-17.14,20.72-25.71,3.49-5.25,11.86-17.78,13.64-23.14,2.15-6.49-.42-11.16-7.5-9.31-10.27,6.34-20.66,15.02-31.3,20.55-3.6,1.87-5.42,3.25-9.74,2.9-14.81-1.18-28.32-21.59-40.15-28.58-4.29-2.54-11.13-3.97-11.44,2.97-.34,7.54,6.97,9.66-.24,17.81-5.13,5.8-17.2,14.56-23.89,18.92-21.76,14.18-46.68,21.87-72.28,25.68-.12-.86.01-1.57.33-2.38,1.5-3.78,18.6-14.11,22.86-17.53,30.39-24.37,66.55-60.48,92.26-89.83,12.31-14.05,29.57-36.9,38.52-53.13,2.37-4.29,6.82-14.89-2.3-13.8-2.23.27-11.3,8.26-14.51,10.25-11.53,7.14-25.43,9.93-37.39,16.27l-.29-.89c8.97-9.84,17.09-20.55,24.36-31.72,11.82-18.17,20.64-37.98,32.61-56.03,6.3,12.05,13.85,24.03,19.9,36.17,10.15,20.35,18.69,40.27,30.33,60.12,8.44,14.39,18.3,28.08,29.64,40.3-.19.65-1.42.26-1.96.15-15.59-3.33-28.61-12.68-42.04-20.69-14.22.4-6.94,10.8-2.91,18.01,31.87,57.05,73.98,105.02,134.1,133l12.27,5.51c-31.79-.34-66,.33-96.16-10.84-6.69-2.48-15.38-6.3-21.59-9.76-2.47-1.37-3.64-4.24-7.51-3.14-7.99,2.28-1.94,13.35.6,17.89,5,8.96,12.28,16.39,18.9,23.91,8.17,9.29,1.92,12.65-5.8,17.76-6.63,4.39-14.31,9.3-21.25,13.12-2.86,1.57-13.99,7.55-16.45,7.71-1.92.13-9.61-2.39-11.68-3.3-23.66-10.32-42.33-23.15-62.41-38.88-3.39-2.66-8.17-6.79-12.5-5.91-6.27,1.28-3.71,7.29-1.75,11.11,6.96,13.52,36.53,43.76,48.99,53.51,4.93,3.86,23.23,17.18,28.56,17.25,7.55.11,21.21-8.47,28.43-11.98,12.25-5.95,24.46-11.47,35.98-18.89,3.08-1.98,18.08-13.93,19.96-13.78,1.97.16,9.98,7.43,12.12,9.05,23.23,17.54,53.05,36.57,78.46,50.57,6.71,3.69,13.51,7.06,20.69,9.76Z"/>
</svg>