<?xml version="1.0" encoding="UTF-8"?>
<svg id="Ebene_1" xmlns="http://www.w3.org/2000/svg" version="1.1" xmlns:svg="http://www.w3.org/2000/svg" viewBox="0 0 595.28 595.28">
  <!-- Generator: Adobe Illustrator 29.8.3, SVG Export Plug-In . SVG Version: 2.1.1 Build 3)  -->
  <path d="M386.81,335.03c15.73-10.98,31.95-21.68,45.12-35.76-12.17-8.59-20.43-19.26-18.12-35.12,7.08-6.18,12.66-12.55,15.3-21.85.58-2.05.54-6.54,1.52-7.92,1.93-2.7,17.47-13.15,21.03-14.86,9.23-4.42,29.15-8.99,38.81-5.85s28.94,22.39,30.17,32.79c2.03,17.14-10.42,20.93-17.84,32.38-4.56,7.04,3.4,8.81,7.24,12.85,2.77,2.91,2.11,5.93,7.06,5.24,17.06-2.4,21.5-14.11,42.78-9.11,31.55,7.41,29.45,48.85,5.1,63.9-20.5,12.67-47.89,18.06-69.86,5.9-4.96-2.74-9.15-6.86-14.11-9.27-2.52,1.25-4.71,3.49-7.06,4.88-29.29,17.25-61.35,31.47-91.73,46.76-17.18,8.65-33.87,18.57-51.37,26.69-31.5,14.62-63.23,25.17-94.45,41.52-18.92,9.91-48.18,25.53-63.8,39.44-1.33,1.19-5.13,4.13-3.74,5.64,2.15,2.33,4.9,3.78,7.04,6.81,10.65,15.09.79,31.67-11.54,41.63-18.9,15.27-72.44,39.59-91.2,15.16-10.96-14.28,1.82-28.61,8.8-40.29.39-.66,1.04-.39,0-1.23-4.93-3.93-11.14-6.08-17.26-7.24-15.82,9.57-35.76,19.05-50.41,1.88-28.58-33.48,30.31-81.98,61.23-87.35,21.96-3.81,35.61,12.05,42.4,30.93l1.39.93c12.99-6.15,25.64-13.18,38.6-19.35,52.73-25.1,103.83-46.58,154.88-75.52,7.14-4.05,18.44-12.31,25.24-15.05,16.96-6.83,41.61-9.5,48.81-29.56ZM525.75,314.07l4.98,6.06c.13.76-.93,1.83-1.6,1.96-3.51.71-18.23-5.3-22.72-6.01-7.47-6-13.4-14.8-20.31-21.24-3.8-3.54-8.03-.96-11.98-6.28-7.34-9.86,7.9-16.97,13.85-22.02,3.29-2.79,13.08-12.38,13.26-16.39s-11.15-16.03-14.69-17.45c-4.74-1.9-16.16.81-21.24,2.36-11.25,3.42-30.26,15.99-31.95,28.49-1.91,14.11,2.05,13.94,11.47,20.94.96.71,2.06,2.46,2.87,2.83,2.35,1.08,4.82-1.91,9.73,1.56,13.87,9.8-4.68,17.61-11.04,23.58-40.48,38.02-93.38,66.39-142.04,93.4-49.75,27.61-102.3,49.53-153.26,74.63-11.69,5.76-23.54,11.22-35.16,17.14-13.83.23-13.23-11.4-17.2-20.66-4.84-11.3-9.04-17.39-22.39-14.56-17.07,3.62-44.98,25.02-49.65,42.26-1.51,5.58-.29,14.81,6.6,15.75,10.75,1.46,31.11-17.88,42.82-20.52,2.86.67,4.83-1.21,7.69-.47,3.88,1,7.77,6.73,7.52,10.7-.12,1.82-2.15,3.52-2.24,4.44-.34,3.58,8.53,8.42,11.06,11.35,10.09,11.68-1.11,18.34-6.79,27.17-1.38,2.14-6.55,10.61-4.39,12.64.81.76,5.82,1.82,7.18,1.96,14.16,1.47,44.16-10.37,55.31-19.45,4.45-3.63,13.03-13.2,7.57-18.87-3.76-3.91-8.75-1.14-13.22-4.41-4.91-3.6-6.25-9.35-2.49-14.44,16.52-22.35,59.61-46.56,84.63-59.53,37.28-19.34,76.89-33.03,114.36-51.84,39.37-19.77,79.85-39.2,118.37-60.41,4.26-2.35,14.06-9.54,17.82-10.51,9.99-2.58,17.21,8.86,25.59,12.84,9.99,4.75,25.48,4.67,35.99,1.53,3.43-1.03,15.37-6.89,17.97-9.1,5.57-4.74,9.39-22.52,1.04-26.03-2-.84-7.34-1.48-9.57-1.46-7.14.05-16,7.69-23.79,8.08ZM546.96,471.57c6.67-2.87,12.24-8.4,18-11.59,3.04-1.68,7.12-2.12,10.48-4,13.77-7.66,17.12-29.24,8.37-41.66-16.45-23.31-58.07-20.63-81.68-11.52-13.85,5.35-31.87,17.42-24.22,34.64-6.7.62-13.68-.98-20.14-2.83-22.74-6.51-44.19-16.03-67.36-22.66-3.96-1.13-10.95-4.64-14.64-3.96-1.58.29-17.68,8.72-19.57,10.04-1.51,1.06-2.4,1.56-.75,3.06,2.33,2.12,14.23,4.21,17.96,5.34,11.64,3.51,23.62,6.94,35.12,10.83,24.68,8.37,51.02,21.72,77.86,20.98,3.88-.11,10.75-5.53,12.41-9.05,3.73-7.88.05-13.28-3.19-20.13,1.13-4.46,17.47-9.89,21.84-10.96,11.08-2.71,43.11-5.07,50.15,6.14,1.51,2.4,1.7,12.53-.57,14.49-1.44,1.25-8.1,2.68-10.86,4.25s-5.48,4.56-8.17,6.31c-14.17,9.2-26.93,5-41.55,11.33-8.8,3.8-20.72,13-21.6,23.1-.87,10.11,3.84,21.02,11.57,27.35,4.58-3.49.43-7.53.33-11.62-.02-.74.23-3.9,1.56-3.4,5.03,4.33,12.32,6.12,16.77,10.94,6.12,6.65,8.88,17.38,5.85,26.02-1.96,5.59-11.49,10.09-16.96,11.37-11.09,2.59-19.18,1.57-29.42-3.16-13.91-6.42-17.15-13.21-14.7-28.37,1.77-10.91,8.16-17.5-2.76-26.57-2.79-2.32-10.57-6.75-13.98-8.06-17.37-6.66-38.83-11.61-56.96-17.33-9.66-3.04-19.31-5.79-28.96-8.81-14.76-4.63-29.25-10.07-44.07-14.54-1.77-.23-11.32,3.92-13.6,5-1.41.67-9.04,4.6-9.17,5.34-.24,1.4,2.76,2.62,3.76,3.07,12.99,5.78,29.17,10.09,42.78,14.5,28.4,9.21,57.04,17.51,85.48,26.57,6.42,2.05,12.75,4.31,19,6.81,2.49,1.66-.1,5.49-.52,8.23-4.25,27.51,5.96,44.65,32.04,54.68,23.71,9.12,63.5-.64,67.89-29.03,3.01-19.44-6.42-37.87-23-47.96-2.57-1.56-6.17-1.74-7.76-4.51,11.45-6.61,24.75-3.45,36.95-8.7ZM65.72,284.94c14.63-4.58,30.78-5.92,45.66-1.89,3.04.82,14.14,4.72,15.57,7.09,3.29,5.46-8.24,17.12-10.62,22.11-11.88,24.96,24.23,37.78,40.95,45.76,19.92,9.51,38.74,17.92,60.01,24.34,16.98,5.13,34.51,8.9,51.55,13.86,1.36.04,5.88-2.55,7.41-3.36,2-1.05,14.39-7.83,14.62-8.72.31-1.22-.59-2.21-1.66-2.57-6.85-.42-13.56-4.03-20.16-5.02-3.8-.57-7.46-.12-11.5-1.09-7.65-1.83-24.97-11.84-32.23-10.92-14.2,1.8-22.56,1.92-34.42-7.41-2.53-1.99-5.42-6.47-7.37-7.74-2.19-1.42-6.7-2.64-9.28-3.94-9.8-4.94-23.36-10.2-32.07-15.77-2.11-1.35-8.65-6.01-8.68-8.36-.03-2.54,7.38-10.89,9.19-14.17,11.66-21.08-1.81-33.84-20.88-41.47-21.57-8.63-67.36-5.52-82.05,14.72-13.35,18.39-4.56,37.17,13.79,46.96l-7.82,25.1c-5.68,1.74-11.47,1.7-17.17,3.61-22.39,7.51-28.44,34.07-7.4,48.03,21.87,14.52,50.51,10.77,70.51-5.07,6.5-5.15,11.71-11.88,18.13-16.83,39.28,5.04,73.96,24.35,110.37,38.24l3.23-.48c2.52-2.62,19.22-8.15,19.63-10.61l-1.25-1.76c-39.46-13.2-74.72-33.39-115.78-42.23-9.97-2.14-20.73-5.93-28.99,1.88s-14.77,17.82-26.43,22.67c-11.29,4.69-30.86,5.46-40.75-2.66-3.82-3.14-2.3-8.9,1.52-11.39,10.88-7.1,25.3,3.48,31.85-14.73,2.49-6.91,3.59-14.35,6.13-21.25,3.72.41,8.15,15.24,10.56,6.47,1.44-5.24,1.89-18.15-.63-23.01-3-5.78-19.45-11.93-24.05-18.12-3.3-4.44-2.68-11.54,1.13-15.47,2.41-2.49,6.13-3.79,9.37-4.8ZM263.87,352.46c.76-9.75,1.77-20.09-1.3-29.57-8.36.9-17.03.82-25.49.63-1.85-.04-3.64-1.09-5.5-.54-3.1.91-9.53,18.25-15.4,19.3-2.78.49-8.41-2.49-10.54-4.33-1.95-1.69-2.75-2.15-1.73-4.84s6.11-8.51,7.96-11.56c8.75-14.45,17.46-31.84,18.1-48.95,10.04-4.79,20.11-10.48,28.79-17.47,2.29-1.85,5.13-2.78,1.14-4.79-1.11-.56-2.67-.78-3.91-1-21.58,8.3-75.59,14.19-86.43-12.53-4.28-10.55,3.62-14.74,8.57-22.64,7.45-11.89,18.71-44.7,15.58-58.16-.21-.91-2.41-5.37-3.5-4.36-2.96,11.67-7.82,22.99-14.6,32.93-4.7,6.89-7.02,10.52-11.11,17.85-8.05,14.45-18.62,20.86-11.29,40.03,8.74,22.84,37.4,31.09,59.65,31.95-2.23,12.87-8.31,25.78-15,36.93-5.68,9.48-14.86,16.85-11.11,29.15s20.38,20.4,32.55,18.74c7.44-1.02,12.85-6.77,17.09-12.5,1.5-2.03,7.8-14.4,10.45-12.52,3.41,10.03-5.43,20.34,1.91,29.26s33.92,8.53,42.74,1.85c5.79-4.39,10.13-16.18,10.13-23.24v-10.39c1.59.3,3.53-1.34,4.73-.02,1.57,1.71,4.44,11.93,5.86,14.93,9.21,19.49,35.4,9.76,50.08,2.64,16.02-7.76,21.34-12.86,16.3-31.25-4.54-16.57-12.69-32.46-14.64-49.88,28.06,2.35,69.3-10.59,57.76-46.75-6.26-19.62-23.42-39.96-30.87-60.42-1-2.76-2.21-9.39-3.29-11.19-.62-1.05-.79-.31-1.37-.11-3.44,1.17-5.25,5.81-5.3,9.25-.17,11.47,3.19,25.27,7.7,35.79,4.68,10.92,19.01,29.25,17.48,40.33-2.08,15.11-32.74,16.97-44.26,15.41-4.29-.58-8.55-3.59-12.94-.85-.79.49-3,2.77-3.33,3.59-1.78,4.39,2.31,23.87,3.61,29.43,3.68,15.8,10.7,30.61,14.06,46.46-8.19,4.08-18.26,10.11-27.44,11.28-2.01.26-6.47.81-7.65-.84-1.83-2.55-3.92-10.91-5.61-14.53-1.89-4.04-3.66-7.53-7.44-10.18-8.98,3.56-18.5,5.46-28.13,6.3-1.26.43-2.7,4.56-2.88,5.93-.99,7.17,1.28,13.39-1.35,21.32-.53,1.6-1.61,3.74-3.43,4.12-4.1.87-10.98-.65-15.42,0ZM214.61,24.01c-48.71,18.98-74.35,64.38-67.03,116.45,1.4,9.95,9.15,31.41,17.77,37,6.59,4.28,15.53-1.92,12.22-10.33-1.88-4.78-7.2-10.8-9.49-16.32-11.16-26.82-1.17-67.84,18.68-88.57,26.45-27.63,79.61-35.86,116.44-37.16,44.44-1.57,92.88,23.33,109.79,65.9,5.22,13.14.02,36.44-4.15,49.81-1.55,4.97-7.61,17.8-7.07,21.81.87,6.41,9.6,8.89,13.83,3.84,3.79-4.53,8.2-19.29,9.89-25.37,6.85-24.66,9.24-49.19-4.6-71.85-27.13-44.45-74.62-63.85-125.67-60.93-25.17,1.44-57.16,6.57-80.61,15.71ZM188.05,134.06c-4.22,6.36-1.34,14.47,6.79,13.9l.94.95c3.01,13.98.57,27.75,5.11,41.48,6.37,19.26,31.11,36.44,50.59,24.1,18.83-11.92,31.42-42.21,18.7-62.54-2.63-4.2-7.89-4.6-12.2-6.68-12.85-6.21-33.28-20.58-47.12-19.87-7.57.39-18.27,1.83-22.8,8.67ZM371.88,127.78c-6.29.79-22.45,8.67-29.63,11.29-6.2,2.27-16.66,4.44-21.9,7.05-8.06,4.01-18.72,23.48-20.69,32.19-10.55,46.7,52.19,64.2,70.07,24.75,8.97-19.79,4.3-32.18,4.24-52.36,0-2.53,1.09-5.13.75-7.81,11.2-1.79,8.94-16.58-2.84-15.11ZM277.85,209.38c-.9,4,.89,11.27.49,16.22-.74,9.01-5.09,17.16-6.25,24.6-.36,2.34-.17,10.27,2.87,10.86.93.18,7.71-2.92,9.66-3.37,4.36-.99,9.71-1.25,14.18-.91,2.37.18,9.7,2.24,11.02,1.59,6.09-6.52.33-10.77-2.62-16.29-1.89-3.53-4.11-7.69-5.67-11.33-2.67-6.26-4.37-16.14-7.1-21.23-2.04-3.81-7.11-5.69-11.22-4.86-2.01.41-4.9,2.63-5.37,4.71Z"/>
</svg>