<?xml version="1.0" encoding="UTF-8"?>
<svg id="Ebene_1" xmlns="http://www.w3.org/2000/svg" version="1.1" viewBox="0 0 595.28 595.28">
  <!-- Generator: Adobe Illustrator 29.8.3, SVG Export Plug-In . SVG Version: 2.1.1 Build 3)  -->
  <path d="M284.61,594.99c154.07,6.75,288.53-106.54,308.17-259.13C618.48,136.05,442.5-30.93,244.2,4.87,88.94,32.89-17.75,178.81,2.46,335.87c18.38,142.85,138.08,252.81,282.15,259.13ZM282.26,549.3c-125.38-5.68-231.54-112.52-236.57-237.93-2.82-70.28,19.56-134.87,67.68-186.02,79.68-84.72,203.29-104.53,305.89-48.71,110.31,60.01,161.29,198.01,112.35,315.24-30.33,72.67-87.63,124.6-162.82,148.24-26.96,8.48-58.32,10.47-86.54,9.19ZM270.47,145.37c40.74-6.14,98.92-7.44,133.69,17.83,27.45,19.96,28.05,50.6,13,78.96l17.28,9.72.18.77c-31.76,64.12-104.43,94.76-170.02,112.33l-33.77-56.86c20.08-4.97,40.15-10.85,59.15-19.06,21.57-9.33,59.12-29.76,56.09-57.81-2.85-26.41-43.85-22.03-62.04-19.02-23.63,3.92-47.11,12.11-69.33,20.77l-27.2-66.03c27.02-9.32,54.6-17.33,82.97-21.6ZM288.26,457.23l-85.55,4.36c5.43-24.24,11.73-48.32,19.89-71.78l87.89-4.37-22.23,71.78Z"/>
</svg>