<?xml version="1.0" encoding="UTF-8"?>
<svg id="Ebene_1" xmlns="http://www.w3.org/2000/svg" version="1.1" xmlns:svg="http://www.w3.org/2000/svg" viewBox="0 0 595.28 595.28">
  <!-- Generator: Adobe Illustrator 29.8.3, SVG Export Plug-In . SVG Version: 2.1.1 Build 3)  -->
  <path d="M327.1,437.95c-.72,5.13-8.47,10.3-12.36,13.51-3.91,3.23-15.95,13.37-20.09,14.2-4.63.93-6.53-1.01-10.21-3.09-18.13-10.24-35.74-23.39-53.62-34.22-3.64-3.91-1.75-5.18-1.86-9.08-.08-2.81-3-3.87-1.26-9.13,1.42-4.33,20.12-15.93,19.39-17-4.41-1.98-9.16-5.35-9.66-10.51-.62-6.42.51-13.85.05-20.38-5.05-2.19-6.78-4.46-7.68-9.9-.19-1.17,0-4.57-.26-4.86-.14-.16-2.5-.76-3.75-1.96-2.66-2.54-9.35-14.2-9.93-17.75-.24-1.46,0-2.98-.07-4.45-6.29,2.18-16.85,11.33-23.16,11.48-6.73.16-12.32-7.58-18.35-9.67.04,6.65,3.81,19.82.51,25.48-2.49,4.26-9.02,5.51-13.44,7.02-15.12,5.16-30.64,9.29-45.79,14.37-3.43.44-11.31-1.75-13.82-4.13-4.3-4.09-2.9-13.98-3.26-19.61-.38-6.09-.89-12.23-1.23-18.33-2.64,1.81-5.33,3.29-8.2,4.73-5.54,2.77-18.58,9.84-23.79,11.11-3.37.82-7.09.75-10.08-1.13-11.65-9.08-28.16-15.85-39.34-25.03-4.04-3.32-4.24-4.88-5.14-9.91-4.51-25.22-5.4-52.15-9.76-77.53.12-3.44,1.9-6.13,4.66-8.03,4.46-3.05,18.65-10.18,23.86-12.24,4.56-1.81,5.67-2.15,10.45-.6,5.2,1.69,17.77,7.29,22.4,10.09,5.46,3.3,5.77,6.19,6.77,12.18,8.46.64,14.77,8.18,21.98,12.03,2.34.37,24.77-10.26,29.51-11.78,1.44-.46,3.2-1.34,4.68-1.39,6.57-.22,13.98,9.89,18.68,13.85,1.04.24,3.12-4.03,4.5-5.06,1.2-.9,3.64-1.88,5.13-2.09l29.73,1.15c-.42-6.41-2.22-13.04,2.41-18.34l-21.47-11.04c-6.56-3.91-3.9-5.11-3.78-11.21.17-8.25-2.44-14.87,5.19-20.08,4.8-3.28,20.85-11.16,26.45-13.26,4.38-1.64,5.47-.84,9.43,1.24,7.32,3.85,14.5,9.63,21.78,13.72,1.87,1.9,2.96,6.2,3.23,8.8s.48,12.09-.49,13.8l-22.89,14.1c8.81-.85,17.48-3.03,26.25-4.13,3.04-.38,6.03-.86,8.99-1.23,9.28-1.17,10.67,4.82,14.54,11.22,1.02,1.68,4.77-.58,5.27-1.64.7-1.46.11-4.1.56-6.06.83-3.67,18.39-19.61,22.32-22.8,7.04-5.73,16.16-6.71,24.21-10.39,2.64-9.92-2.18-18.76,7.95-24.84,11.73-7.04,26.78-11.96,38.79-18.97,5.84-2.17,10.74,1.31,16.2,2.49,3.11-7.43,17.65-10.49,24.43-8.16,3.43,1.18,18.43,9.2,20.16,9.1,10.11-5.95,12.6-15.27,25.79-9.93,8.41,3.4,17.29,8.94,25.34,13.16,8.82-4.28,16.76-11.67,26.21-14.12,1.13-4.05.86-7.18,4.17-10.27,2.26-2.11,22.87-13.1,25.63-13.47,2.09-.28,4.25.32,6.3-.32.97-3.29,1.64-5.42,4.16-7.87s18.74-14.61,21.34-15.36c3.84-1.11,5.79-.46,9.34.94,5.11,2.02,26.83,12.57,30.11,15.62,2.31,2.14,3.44,4.61,2.99,7.82-9.24,64.87-13.16,130.62-22.33,195.47-.54,3.82-.6,7.66-2.94,10.9-2.33,3.24-11.4,8.63-15.21,11.27-37.54,26.05-78.3,50.08-114.94,76.99-3.37,2.47-7.09,7.37-10.95,7.71-6.14.54-12.88-5.97-18.34-8.42-1.7,6.38.21,16.25-3.95,21.63-2.43,3.13-19.62,17.34-23.43,19.89-4.71,3.15-7.8,3.2-12.96.93l-42.09-24.39c-.54,5.34.73,11.99,0,17.15ZM547.91,108.54l12.94,6.42,9.31-6.11-14.13-7.31c-1.27.64-9.01,5.74-8.12,7ZM556.83,124.89c-3.29-.8-16.52-9.6-18.73-9.05-3.03.76-2.9,13.91-3.97,16.97l21.3,10.02.9-1.49.5-16.45ZM576.18,118.18l-8.42,5.25c-.43,5.54-.88,11.14-1.23,16.68-.3,4.68,1,9.39-2.12,13.52l-45.87,29.94-8.07,82.78c-.86,4.38-3.8,5.71-7.28,7.77-5.12,3.03-11.26,5.56-16.55,8.42-1.42,5.48.23,17.12-3.76,21.22l-46.79,30.23-1.3,23.06c.63.72,11.12-6.9,12.63-7.51,12.29-5.01,8.17,14.87,10.23,21.35l39.04-26.28c-.04-1.87-.63-3.31-.55-5.28.33-8.22,2.09-16.68,2.82-24.89,1.53-5.3,11.12-7.23,11.65-10.04l-1.69-25.12c1.81-6.52,6.87-7.85,11.9-11.11l6.05-66.01c.54-3.16,5-5.21,7.61-6.83,3.52-2.19,14.95-9.21,18.22-10.07,3.95-1.03,7.28,1.99,7.26,6.01l-8.44,60.5,10.15-4.29,14.51-129.27ZM524.44,124.8c-1.24-1.24-14.68,6.86-16.89,8.07-1.56,4.66-.51,9.63-2.35,14.19l16.88-9.89,2.37-12.37ZM547.91,150.67l-17.01-6.54-33.13,19.87-1,1.7c4.21.77,14.58,8.01,18.19,7.11l31.95-20.43,1-1.7ZM402.29,154.32l-18.06-7.61c-1.07,2.98-2.97,5.75-3.88,8.77-.61,2.03-.59,4.45-1.21,6.61-.93,3.23-3.49,6.86-3.04,10.84l18.36,9.96,1.84.27,6.01-28.84ZM452.24,154.88l-19.2-6.35-6.05,4.24c1.97,1.46,5.06,8.12,6.63,9.01,1.18.68,3.8.51,5.19,2.03.72.07,11.29-6.34,12.44-7.23.67-.52,1.25-.6,1-1.7ZM496.77,151.87c-2.08.76-5.41-2.53-6.81-2.29-.83.15-13.61,8.15-13.94,8.9-1.32,6.34-1.04,13.65-2.38,19.88-.76,3.54-2.88,4.68-3.68,7.75-1.16,4.49-.51,19.5-6.63,19.88-2.73.17-16.61-10.86-20.03-13.02-.94-.59-6.23-3.71-6.7-3.22l-4.17,75.15,14.06,6.05c2.76-2.96.93-8.3,4.24-10.82,1.58-1.2,2.95-.95,4.34-1.67,5.06-2.64,9.87-5.87,14.93-8.54l8.98-84.27c1.57-6.55,13.43-9.03,17.79-13.8ZM372.22,159.09c-5.67.83-10.51-2.2-15.8-3.51l-28.72,14.04c4.02,3.39,8.7,5.83,13.43,8.02l28.3-14.42,2.79-4.12ZM450.44,166.91l-10.54,4.8c-.74,1.19.56,6.61,1.52,7.53.72.68,2.82,1.09,4.06,1.96,3.58,2.53,6.86,5.67,10.44,8.21.53.37,2.54,2.05,2.95,1.56l.64-6.19c-7.81-3.86-10.06-9.24-9.06-17.87ZM500.37,258.36l7.77-75.42-19.18-9.42-7.86,73.68.99,1.46,18.28,9.69ZM175.49,187.36l15.9,6.62,17.18-9.32-13.42-7.99c-5.7,3.45-13.42,5.81-18.88,9.35-.58.38-1.08-.07-.77,1.34ZM337.33,185.56c-5.92.23-10.01-3.77-15.04-6.01.02,6.12.11,13.83-5.99,17.18-1.02.56-11.46,3.59-10.86,4.47,3.19,1.47,8.78,5.7,12.03,6.38,2.61.54,14.87-8.1,18.5-8.92l1.36-13.09ZM405.92,282.42c-1.79-2.72-.58-4.95-.57-7.49.07-16.85.51-33.75,1.15-50.59.32-8.46,3.36-22.74-.46-30.18-3.24-6.31-8.09-.23-13.36-.78l-1.83,80.32c.11,1.27,2.17,2.16,3.23,2.8,1.2.72,11.32,6.33,11.83,5.91ZM215.19,193.99l-17.92,9.14-.12,5.29,17.45-9.32.59-5.12ZM185.6,203.12l-14.32-6.13c.19,1.74-.6,4.39.59,5.72.51.57,12.52,6.59,13.56,6.9,1.12.33.81-.18.9-.89.11-.85-.37-5.19-.73-5.6ZM308.45,213.24c-5.8-1.11-10.58-4.65-15.34-7.85-.51,0-6.89,5.72-7.84,6.62s-5.65,5.21-5.09,6.02l13.53,9.06c.81,0,10.94-9.19,12.34-10.54.56-.54,3-2.64,2.4-3.31ZM289.67,231.41l-14.91-7.94c2.05,11.52-9.85,13.25-17.01,18.03-2.05,1.37-5.35,5.07-7.46,6.54-3.17,2.21-26.72,11.32-30.99,12.32-2.45.58-4.72.19-7.11.71,3.71,2.23,6.96,3.61,9.42,7.43l20.07-1.4,48.02-25.68-.03-10.01ZM50.34,234.89l-13.53-7.57-14.56,6.86-4.39,3.12,11.72,6.07,20.77-8.48ZM237.35,229.58l-37.41,5.89-.38,4.24,40.91-4.22-3.12-5.91ZM381.15,231.38c-1.26-.21-3.01-1.83-4.16-1.62-.78.14-13.8,7.04-13.78,7.84,4.43,2.72,8.23,5.6,4.8,11.12l12.33,6.64c1.54-.03.77-21.71.81-23.98ZM366.21,260.76c.23-1.07-.31-1.19-.99-1.7-5.16-3.9-16.43-5.58-11.3-14.55l-12.22-7.12-23.61,12.56,41.45,13.54,6.68-2.73ZM59.36,327.55l-1.2-8.12-20.32-13.37-7.48-52.69-10.69-5.84,7.51,59.57,32.19,20.45ZM206.77,249.94h10.53l3-1.81-13.53,1.81ZM97.87,269.19l31.27-14.14c-1.62-1.21-3.55-4.65-5.65-4.52l-26.47,10.77.85,7.89ZM76.81,257.15c.75-1.05-4.61-4.54-5.59-4.94-4.21-1.69-.97,5.93-1.63,7.95l7.22-3.02ZM186.92,266.79l.33-9.67-28.82-1.19c-.74,1.85-6.35,8.39-2.51,9.05l30.99,1.81ZM493.16,266.19l-15.94-7.78-11.73,5.98,15.94,8.79c.6,0,9.91-4.65,10.74-5.29.68-.52,1.23-.63.99-1.7ZM559.94,260.17c-13.61,6.31-26.71,13.73-39.45,21.61l-.89,2.12,1.24,14.77,36.66-21.39c2.02-2.24,1.79-13.58,2.44-17.11ZM361.39,284.23l-.59-8.73-43.33-14.73.59,7.53,43.33,15.93ZM209.68,271.69l-11.92-5.51c-2.32,5.39,1.62,5.67,5.09,8.44,1.86,1.48,3.67,3.19,5.44,4.79,1.34.19.71-.2.88-.9.32-1.3,1.07-5.94.52-6.82ZM425.07,333.06c-23.31-12.8-46.48-25.88-69.65-38.95-1.57-.88-2.74-2.41-4.1-3.12-8.12-4.24-38.94-11.13-43.21-15.75-.95-1.02-1.19-2.45-2.1-3.31-.69-.65-7.32-4.43-7.79-3.94-.14,11.53-.29,23.08-.58,34.62-.15,5.8-1.44,12.2-.66,18.06.22,1.62.97,2.55,2.43,3.28.66-3.54,3.52-5.95,6.45-7.7,8.93-5.33,20.46-9.11,29.65-14.28,2.03-.79,3.99.03,5.84.82,2.47,1.05,17.81,10.76,18.86,12.42.68,1.07,1.1,2.7.92,3.96-.46,3.27-11.84,18.32-11.17,19.21l27.99,9.62c4.1,3.24,1.14,13.71,2.22,18.54l8.6,4.93c2.91-6.26-1.19-26.22,10.54-23.17l24.64,11.75,1.11-26.98ZM287.99,269.79l-35.94,13.98c-1.08,3.38-2.09,6.59.57,9.35l1.9.09,26.59-7.8c2.94-.5,4.26,1.51,6.28,3.03l.6-18.65ZM475.1,292.05c-.35-2.57,1.63-7.41.3-9.62s-14.78-7.19-17.45-9.62l-2.63,10.14,19.78,9.1ZM443.8,281.25l-12.88-4.83-20.19,8.7,14.74,7.9c1.03,0,17.49-9.13,18.06-9.99.38-.57.37-1.14.27-1.79ZM204.36,290.84c.53-.74-1.3-2.25-1.79-2.7-2.7-2.51-6.39-4.96-9.33-7.27-.6-.06-9.14,3.39-9.67,3.93-.22.23-2.67,5.44-2.68,5.76,0,.73,8.68,8.73,9.32,8.73l14.15-8.44ZM467.89,301.07c-5.36-3.74-12.15-6.45-18.26-8.86l-21.01,11.41-4.81.33-43.51-22.73c-1.84-.1-8.86,6.81-11.07,8.14l61.66,34.56,37-22.83ZM157.37,290.91c-6.62-1.03-13.97,1-17.67-6.01l-42.34,22.59,1.72,14.04,6.29-3.63,52.61-15.68-.6-11.31ZM535.88,317.92c.9.2,1.32-.33,1.99-.71,1.93-1.11,16.18-10.7,16.7-11.57.8-1.32,2.29-14.64,1.75-15.39l-18.51,10.97-1.94,16.7ZM281.98,304.08l-3.29-7.08c-9.47,2.96-19,5.73-28.46,8.73-2.55.81-5.32.75-7.89,2.64-.97,1.52,3.43,6.81,3.61,8.88l1.34.05,34.68-13.22ZM49.74,304.09l11.13,7.6,13.52-6.71-8.69-5.76-15.97,4.86ZM183.3,310.1c1.31-1.52-5.28-7.71-6.61-8.72-.6-.46-.76-1.17-1.81-.9,0,1.61-.34,3.06.56,4.55.42.7,7.52,5.47,7.86,5.07ZM507,337.17c.77.73,15.9-10.15,17.75-11.42l1.49-17.45-17.15,10.22-2.09,18.66ZM286.19,323.64c-.17-3.29.12-6.64,0-9.93l-10.23,3.92c-.15.98.79,1.17,1.38,1.63,1.39,1.08,7.38,5.39,8.57,5.88,1.78.73.3-1.4.29-1.5ZM337.32,338.98l11.4-18.96-8.79-5.62c-1-.1-1.45.86-1.91,1.52-3.13,4.51-5.41,11.4-8.44,16.16,3.11,2.21,5.63,3.59,7.74,6.9ZM234.45,318.53c-.92,4.24-3.02,7.11.3,10.85.98,1.1,4.92-.47,5-1.52l-5.3-9.33ZM324.09,319.74l-13.8,6.35-5.45,9.88c.87.18,1.48-.19,2.23-.47,1.48-.55,10.59-4.85,11.32-5.53,1.98-1.85,3.95-7.79,5.7-10.24ZM246.48,336.27v11.73l35.5-12.94-17.05-11.04-18.46,12.24ZM115.32,354.63l43.32-13.53c1.14-.94-.32-9.18-.62-11.14l-43.23,13.32.52,11.35ZM328.3,343.8l-6.42-3.48-5.61,2.28,4.49,2.42.93,2.99c.88.77,6.97-3.7,6.61-4.2ZM297.02,343.19l-1.84-1.54c-13.54,5.08-27.27,9.73-40.77,14.88l-.1,2.31,42.71-15.65ZM362.6,353.43l-20.17-6.42c-1.38.95-2.33,2.32-3.7,3.31-5.39,3.9-14.21,8.45-18.8,12.49-.68.6-1.49.92-1.25,2.05,4.42.81,10.53,6.13,14.43,6.97,1.62.35,4.7-1.53,6.78-1.09l22.71-17.29ZM295.81,355.23l-40.87,14.77c-2.09,1.48-1.27,5.75-.94,8.09l7.23,4.8c7.28-4.12,15.52-6.25,23.41-8.95,1.55-4.81.8-10.85,4.87-14.51l6.31-4.21ZM422.66,370.97l-21.55-9.73-2.31,15.89,22.46,13.58.91-1.49.5-18.26ZM357.61,377.32c.94-3.58,3.17-5.9,5.91-8.24,2.56-2.2,7.15-3.45,6.29-7.24l-27.11,20.11c-.67.8-1.29,5.05.33,4.55,4.05-1.25,10.14-7.57,14.58-9.18ZM432.99,387.11l14.16-9.03-.93-15.03-12.33,7.82c-.41,5.42-1.15,10.8-.9,16.25ZM302.43,364.25c-6.98,1.96-6.4,7.2-7.53,13.2,3.61,5.22,9.53,9.26,11.22,15.59l11.95.99c-4.02-2.56-15.65-4.87-15.65-10.83v-18.95ZM331.91,388.32c-.19-1.74.6-4.39-.59-5.72l-18.05-8.72.1,6.52,18.54,7.92ZM363.51,386.11c-3.84,3.02-9.98,5.45-13.52,8.56-.68.6-.84.52-.03,1.18l25.21,10.85,9.69-6.05-21.35-14.54ZM392.07,408.77c-4.89,1.97-11.37,9.78-16.74,9.22-1.17-.12-2.57-.72-3.71-1.11-11.08-3.82-23.22-10.43-34.31-15.03-4.35-1.8-8.79-3.56-13.23-5.12l3.64,5.68,46.15,26.11c1.26.17,2.47-.98,3.45-1.74,2.1-1.63,13.42-10.94,14.19-12.28,1.03-1.8.47-3.74.56-5.75ZM269.34,403.37c-2.27-.34-4.96-1.95-7.21-.9l-17.48,13.81-.58,1.51,12.02,7.23c-.52-2.78.49-5.61.63-8.15.07-1.28-.66-2.41-.61-3.55.3-5.73,14.26-8.6,13.21-9.95ZM299.42,408.78l-13.49-1.21-8.77,4.81c8.34.99,15.59,2.85,22.26-3.6ZM310.25,433.74v-17.75c-7.37,3.02-13.67,8.76-21.96,8.41-2.88-.12-20.46-3.21-21.33-2.36-.74,3-.09,6.34-1.84,8.98l26.88,16.76,18.24-14.04ZM468.34,433.59c1.41-.08,2.87.49,4.18.95,6.66,2.34,20.94,9.42,27.29,13.01,1.3.74,2.77,1.8,3.44,3.18,1.09,2.26,1.13,13.22.45,15.82s-4.64,4.86-6.86,6.38c-13.16,9.02-31.06,21.02-44.88,28.52-6.61,3.59-6.7,4.14-13.14-.13-4.79-3.18-14.84-10.49-18.75-14.34-3.7-3.63-2.62-7-2.74-11.75,1.58-5.2,0-21.26,3.67-24.61,9.42-8.6,35.13-11.72,47.35-17.03ZM483.53,451.5c-5.48-1.76-10.12-5.76-15.92-6.66l-32.81,10.56,14.03,11.04,34.7-14.94ZM440.81,488.79l1.71-13.44-13.73-10.63c.66,3.82-1.91,11.8-.31,15.05.26.54,8.16,6.58,9.39,7.45.53.38,2.53,2.04,2.95,1.56ZM194.59,358.36c2.22-.31,4.05.37,6.17.77,6.45,1.2,20.16,4.21,25.86,6.63,1.7.72,3.06,1.53,4.22,3,2.12,2.7,4.74,16.2,4.83,19.88.23,9.62-16.97,32.16-19.97,42.58-1.31,2.15-4.57,3.65-7,3.89-4.76.46-31.07-4.15-36.85-5.56-4.7-1.15-7.91-3.61-8.86-8.59-1.68-8.87-1.32-14.47,2.55-22.43,5.43-11.17,12.44-21.94,18.1-33.04,1.64-2.1,8.44-6.78,10.95-7.13ZM179.1,414.18l24.66,3.35,14.77-28-1.22-9.05c-2.98-.74-19.07-5.72-20.69-4.7l-17.58,32.68.05,5.72ZM190.78,485.23c-2.19-3.14-24.97-16.51-29.58-18.56-2.61-1.16-12.58-5.05-14.88-4.98-3.25.1-7.44,2.75-8.62,5.87s-.42,5.29-.73,8.29c-.5,4.68-2.49,11.21.4,15.2.62.85,7.37,7.28,8.34,7.97,2.93,2.09,6.12,2.88,8.39-.62,4.17-6.41-6.46-10.1-7.41-13.65-.2-.75-.14-7.38.82-7.37l13.44,10.62c1.51,7.49-4.74,28.21,9.34,22.37,4.05-1.68,18.47-9.88,21.75-12.55,2.6-2.12,3.94-4.78,2.04-8.06-.63-1.1-1.78-1.23-2.17-1.73-.63-.8-.54-1.97-1.12-2.8Z"/>
</svg>