<?xml version="1.0" encoding="UTF-8"?>
<svg id="Ebene_1" xmlns="http://www.w3.org/2000/svg" version="1.1" xmlns:svg="http://www.w3.org/2000/svg" viewBox="0 0 595.28 595.28">
  <!-- Generator: Adobe Illustrator 29.8.3, SVG Export Plug-In . SVG Version: 2.1.1 Build 3)  -->
  <path d="M535.51,6.28c.82,12.57,1.05,25.18,1.67,37.76.9,18.19,1.69,36.55,2.52,54.77-1.5,60.19,7.78,121.44-5.42,180.63-13.9,62.33-54.84,144.79-97.14,192.63-39.92,45.15-88.06,83.63-138.3,116.66l-1.82.28c-50.49-32.96-98.84-71.67-138.87-116.94-42.3-47.84-83.24-130.3-97.14-192.63-13.2-59.19-3.92-120.44-5.42-180.63L59.77,6.28c19.1,7.01,37.8,17.26,56.85,24.09,121.84,43.67,240.2,43.66,362.03,0,19.06-6.83,37.76-17.07,56.85-24.09ZM298.06,91.79c-31.27.16-62.45-2.06-93.16-7.72-31.59-5.82-68.76-15.7-99.07-26.3-6.63-2.32-13.08-5.46-19.47-8.33-.88,26.76-1.06,53.43-1.63,80.16-1.15,53.48-6.35,106.65,8.03,158.79s51.44,123.24,85.33,162.09c23.66,27.12,57.44,59.22,86.51,80.37,10.5,7.64,22.52,12.37,33.47,19.25V91.79Z"/>
</svg>