<?xml version="1.0" encoding="UTF-8"?>
<svg id="Ebene_1" xmlns="http://www.w3.org/2000/svg" version="1.1" viewBox="0 0 595.28 595.28">
  <!-- Generator: Adobe Illustrator 29.8.3, SVG Export Plug-In . SVG Version: 2.1.1 Build 3)  -->
  <path d="M456.45,367.51c-3.73-1.91-17.75-1.1-22.7-1.02-51.88.84-104.06,1.75-155.91.78-9.57-.18-19.19-.65-28.74-.52-18.98.26-58.47,5.03-72.78,20.06-13.87,14.57-7.2,32.08,10.14,35.74,16.79,3.54,30.9,2.47,47.62,2.39,46.45-.21,92.91-.13,139.23,0,15.27.04,35.57,3,50.33.75,11.49-1.75,26.28-20.57,31.67-31.87,2.97-6.24,9.09-22.23,1.15-26.31ZM246.91,318.17c3.01.04,5.29,1.15,8.64.73,10.41-1.32,25.15-20.9,29.22-31.59,1.86-4.89,4.52-13.41.8-17.85-2.76-3.3-6.13-1.15-9.08-1.1-9.16.15-18.27-.6-27.39-.58-37.23.06-74.47,1.43-111.82,1.3-4.9-.02-9.17-.8-13.42-.81-2.57,0-6.06,1.36-8.75,1.61-13.62,1.27-43.68,4.08-53.79,14.02-8.34,8.2-15.32,22.52.17,26.34,9.6,2.37,23.15,2.77,33.37,4.18,8.29,1.15,14.23,2.47,22.94,3.02,42.81,2.71,86.31.15,129.12.73ZM541.3,267.59c-4.76-5.95-27.45-3.72-34.95-3.91-10.43-.27-20.84-.61-31.37-.58-19.67.06-39.69.76-59.33,1.36-19.08.58-41.28-.12-59.1,9.42-17.74,9.49-14.99,39.87,4,43.49,17.44,3.32,34.14,2.02,51.74,2.37,25.59.51,51.6,1.71,77.31.85,18.73-.62,28.89-2.2,41.66-19.51,4.61-6.24,16-26.01,10.04-33.48ZM242.82,215.35c43.33-2.24,88,3.29,131.15.78,11.17-.65,27.91-2.74,34.89-14.11,6.89-11.23,6.62-26.13-5.88-31.27-8.76-3.6-37.35-1.28-48.33-1.18-27.6.24-59.98-1.78-86.95.52-15.44,1.32-29.44,10.24-35.85,27.03-5.15,13.49.37,15.63,10.97,18.23Z"/>
</svg>