<?xml version="1.0" encoding="UTF-8"?>
<svg id="Ebene_1" xmlns="http://www.w3.org/2000/svg" version="1.1" viewBox="0 0 595.28 595.28">
  <!-- Generator: Adobe Illustrator 29.8.3, SVG Export Plug-In . SVG Version: 2.1.1 Build 3)  -->
  <path d="M341.25,134.6c-1.28-.65-6.08-.38-7.77-.35-17.76.29-35.63.6-53.38.27-3.28-.06-6.57-.22-9.84-.18-6.5.09-20.02,1.72-24.92,6.87-4.75,4.99-2.47,10.98,3.47,12.24,5.75,1.21,10.58.85,16.3.82,15.9-.07,31.81-.04,47.67,0,5.23.01,12.18,1.03,17.23.26,3.93-.6,9-7.04,10.84-10.91,1.02-2.14,3.11-7.61.39-9.01h0ZM269.51,117.7c1.03.01,1.81.39,2.96.25,3.56-.45,8.61-7.16,10-10.82.64-1.67,1.55-4.59.27-6.11-.94-1.13-2.1-.39-3.11-.38-3.14.05-6.25-.21-9.38-.2-12.75.02-25.5.49-38.28.45-1.68,0-3.14-.27-4.59-.28-.88,0-2.07.47-3,.55-4.66.43-14.95,1.4-18.42,4.8-2.86,2.81-5.24,7.71.06,9.02,3.29.81,7.93.95,11.42,1.43,2.84.39,4.87.85,7.85,1.03,14.66.93,29.55.05,44.21.25h0ZM370.3,100.39c-1.63-2.04-9.4-1.27-11.97-1.34-3.57-.09-7.13-.21-10.74-.2-6.73.02-13.59.26-20.31.47-6.53.2-14.13-.04-20.23,3.23-6.07,3.25-5.13,13.65,1.37,14.89,5.97,1.14,11.69.69,17.71.81,8.76.17,17.67.59,26.47.29,6.41-.21,9.89-.75,14.26-6.68,1.58-2.14,5.48-8.9,3.44-11.46h0ZM268.11,82.5c14.83-.77,30.13,1.13,44.9.27,3.82-.22,9.56-.94,11.95-4.83,2.36-3.84,2.27-8.95-2.01-10.71-3-1.23-12.79-.44-16.55-.4-9.45.08-20.53-.61-29.77.18-5.29.45-10.08,3.51-12.27,9.25-1.76,4.62.13,5.35,3.76,6.24h0ZM186.96,341.56c-1.28-.65-6.08-.38-7.77-.35-17.76.29-35.63.6-53.38.27-3.28-.06-6.57-.22-9.84-.18-6.5.09-20.02,1.72-24.92,6.87-4.75,4.99-2.47,10.98,3.47,12.24,5.75,1.21,10.58.85,16.3.82,15.9-.07,31.81-.04,47.67,0,5.23.01,12.18,1.03,17.23.26,3.93-.6,9-7.04,10.84-10.91,1.02-2.14,3.11-7.61.39-9.01h0ZM115.22,324.67c1.03.01,1.81.39,2.96.25,3.56-.45,8.61-7.16,10-10.82.64-1.67,1.55-4.59.27-6.11-.94-1.13-2.1-.39-3.11-.38-3.14.05-6.25-.21-9.38-.2-12.75.02-25.5.49-38.28.45-1.68,0-3.14-.27-4.59-.28-.88,0-2.07.47-3,.55-4.66.43-14.95,1.4-18.42,4.8-2.86,2.81-5.24,7.71.06,9.02,3.29.81,7.93.95,11.42,1.43,2.84.39,4.87.85,7.85,1.03,14.66.93,29.55.05,44.21.25h0ZM216.01,307.35c-1.63-2.04-9.4-1.27-11.97-1.34-3.57-.09-7.13-.21-10.74-.2-6.73.02-13.59.26-20.31.47-6.53.2-14.13-.04-20.23,3.23-6.07,3.25-5.13,13.65,1.37,14.89,5.97,1.14,11.69.69,17.71.81,8.76.17,17.67.59,26.47.29,6.41-.21,9.89-.75,14.26-6.68,1.58-2.14,5.48-8.9,3.44-11.46h0ZM113.82,289.47c14.83-.77,30.13,1.13,44.9.27,3.82-.22,9.56-.94,11.95-4.83,2.36-3.84,2.27-8.95-2.01-10.71-3-1.23-12.79-.44-16.55-.4-9.45.08-20.53-.61-29.77.18-5.29.45-10.08,3.51-12.27,9.25-1.76,4.62.13,5.35,3.76,6.24h0ZM517.06,299.63c-1.28-.65-6.08-.38-7.77-.35-17.76.29-35.63.6-53.38.27-3.28-.06-6.57-.22-9.84-.18-6.5.09-20.02,1.72-24.92,6.87-4.75,4.99-2.47,10.98,3.47,12.24,5.75,1.21,10.58.85,16.3.82,15.9-.07,31.81-.04,47.67,0,5.23.01,12.18,1.03,17.23.26,3.93-.6,9-7.04,10.84-10.91,1.02-2.14,3.11-7.61.39-9.01h0ZM445.32,282.74c1.03.01,1.81.39,2.96.25,3.56-.45,8.61-7.16,10-10.82.64-1.67,1.55-4.59.27-6.11-.94-1.13-2.1-.39-3.11-.38-3.14.05-6.25-.21-9.38-.2-12.75.02-25.5.49-38.28.45-1.68,0-3.14-.27-4.59-.28-.88,0-2.07.47-3,.55-4.66.43-14.95,1.4-18.42,4.8-2.86,2.81-5.24,7.71.06,9.02,3.29.81,7.93.95,11.42,1.43,2.84.39,4.87.85,7.85,1.03,14.66.93,29.55.05,44.21.25h0ZM546.11,265.42c-1.63-2.04-9.4-1.27-11.97-1.34-3.57-.09-7.13-.21-10.74-.2-6.73.02-13.59.26-20.31.47-6.53.2-14.13-.04-20.23,3.23-6.07,3.25-5.13,13.65,1.37,14.89,5.97,1.14,11.69.69,17.71.81,8.76.17,17.67.59,26.47.29,6.41-.21,9.89-.75,14.26-6.68,1.58-2.14,5.48-8.9,3.44-11.46h0ZM443.92,247.54c14.83-.77,30.13,1.13,44.9.27,3.82-.22,9.56-.94,11.95-4.83,2.36-3.84,2.27-8.95-2.01-10.71-3-1.23-12.79-.44-16.55-.4-9.45.08-20.53-.61-29.77.18-5.29.45-10.08,3.51-12.27,9.25-1.76,4.62.13,5.35,3.76,6.24h0ZM381.25,508.53c-1.28-.65-6.08-.38-7.77-.35-17.76.29-35.63.6-53.38.27-3.28-.06-6.57-.22-9.84-.18-6.5.09-20.02,1.72-24.92,6.87-4.75,4.99-2.47,10.98,3.47,12.24,5.75,1.21,10.58.85,16.3.82,15.9-.07,31.81-.04,47.67,0,5.23.01,12.18,1.03,17.23.26,3.93-.6,9-7.04,10.84-10.91,1.02-2.14,3.11-7.61.39-9.01h0ZM309.51,491.64c1.03.01,1.81.39,2.96.25,3.56-.45,8.61-7.16,10-10.82.64-1.67,1.55-4.59.27-6.11-.94-1.13-2.1-.39-3.11-.38-3.14.05-6.25-.21-9.38-.2-12.75.02-25.5.49-38.28.45-1.68,0-3.14-.27-4.59-.28-.88,0-2.07.47-3,.55-4.66.43-14.95,1.4-18.42,4.8-2.86,2.81-5.24,7.71.06,9.02,3.29.81,7.93.95,11.42,1.43,2.84.39,4.87.85,7.85,1.03,14.66.93,29.55.05,44.21.25h0ZM410.3,474.32c-1.63-2.04-9.4-1.27-11.97-1.34-3.57-.09-7.13-.21-10.74-.2-6.73.02-13.59.26-20.31.47-6.53.2-14.13-.04-20.23,3.23-6.07,3.25-5.13,13.65,1.37,14.89,5.97,1.14,11.69.69,17.71.81,8.76.17,17.67.59,26.47.29,6.41-.21,9.89-.75,14.26-6.68,1.58-2.14,5.48-8.9,3.44-11.46h0ZM308.11,456.43c14.83-.77,30.13,1.13,44.9.27,3.82-.22,9.56-.94,11.95-4.83,2.36-3.84,2.27-8.95-2.01-10.71-3-1.23-12.79-.44-16.55-.4-9.45.08-20.53-.61-29.77.18-5.29.45-10.08,3.51-12.27,9.25-1.76,4.62.13,5.35,3.76,6.24h0Z"/>
</svg>