<?xml version="1.0" encoding="UTF-8"?>
<svg id="Ebene_1" xmlns="http://www.w3.org/2000/svg" version="1.1" viewBox="0 0 595.28 595.28">
  <!-- Generator: Adobe Illustrator 29.8.3, SVG Export Plug-In . SVG Version: 2.1.1 Build 3)  -->
  <path d="M543.18,316.23c-4.72-6.33-9.27-12.99-13.63-19.58-35.27-53.18-66.54-110.13-102.06-163.04-3.51-5.23-9.16-14.44-15.73-15.19-37.04,8.48-73.17,21.44-110,31.06-39.96,10.44-85.17,10.73-126.19,17.14-7.22,1.13-9.1,1.73-12.7,8.27-3.8,6.9-6.59,15.07-10.72,21.91-35.53,50.08-66.36,104.13-103.35,153.01-2.82,3.72-11.36,13.52-11.65,17.53-.24,3.35,1.77,6.63,4.82,7.91,3.98,1.67,19.59,3.27,23.94,2.74,4.21-.52,8.78-3.38,11.33-6.74l92.73-139.44c3.72,26.69,8.58,53.33,11.66,80.11,3.44,29.97,4.28,61.85,8.75,91.46.89,5.86,3.8,10.91,10.03,12.11l58.12,14.13c3.92,7.03,2.49,14.92,11.4,17.74,4.64,1.47,22.53,5.15,26.77,4.69l249.3-108.44c17.59-7.88,4.01-18.25-2.79-27.36ZM495.21,322.54l-192.09,84.08c-6.02,2.02-9.73-1.19-12.67-6.03l-81.94-182c-.6-2.66-3.55-4.44-4.31-6.76-1.85-5.65.86-9.83,6.32-11.43,23.34-4.11,47-6.58,70.34-10.65,39.12-6.82,76.98-21.99,115.03-32.97,3.69-.76,7.39,1.22,9.36,4.32,2.54,3.98,4.76,10.12,7.43,14.71,26.83,46.19,58.26,89.96,85.41,135.99,2.4,3.78.8,8.5-2.87,10.74ZM28.96,362.59c.17,2.1,1.14,4.95,1.1,6.94-.24,9.95-13.11,12.67-17.35,3.49-2.24-4.85-8.13-28.25-8.74-33.79-.92-8.39,4.16-12.15,12.05-12.89,6.46-.61,9.49,2.89,10.55,8.93,1.44,8.26,1.69,18.77,2.4,27.32ZM365.7,442.95c-5.91,8.21-10.75,20.35-16.88,28.02-7,8.75-18.95,3.6-16.76-8.02.62-3.29,10.64-24.88,12.78-28.01,1.41-2.05,3.64-3.94,6.17-4.33,7.31-1.13,16.47,4.19,14.69,12.34ZM590.48,306.52l-11.97,31.15c-6.6,8.22-17.21,3.46-16.36-7.04.33-4.13,4.67-25.55,6.21-28.75,1.85-3.84,6-5.07,9.93-5.25,6.19-.28,12.07,3.15,12.2,9.89Z"/>
</svg>