<?xml version="1.0" encoding="UTF-8"?>
<svg id="Ebene_1" xmlns="http://www.w3.org/2000/svg" version="1.1" xmlns:svg="http://www.w3.org/2000/svg" viewBox="0 0 595.28 595.28">
  <!-- Generator: Adobe Illustrator 29.8.3, SVG Export Plug-In . SVG Version: 2.1.1 Build 3)  -->
  <path d="M282.37,592.42c-10.22-.36-21.56-1.07-31.48-4.08-27.63-8.37-53.41-25.37-63.78-53.57-8.64-23.49-.69-33.91,7.38-55.32,1.95-5.17,2.58-11.72,6.94-15.16l21.41-277.24c-.08-2.25.19-4.45-.31-6.68-2.29-10.2-10.67-25.64-14.61-36.26-3.5-9.45-6.58-17.31-7.11-27.57-1.19-23.24.29-47.69-.5-71.05.64-4.67,4.05-5.14,5.2-8.1,1.35-3.48.31-7.38,2.84-11.03,1.95-2.81,20.21-13.08,23.47-13.52,7.44-1.01,14.98,5.01,22.21,6.3v-9.54c0-3.55,5.34-6.2,8.45-6.58,7.07-.86,20.34-.49,27.71-.09,7.42.41,13.64.78,14.66,9.62l1.8,21.61h2.31c.12-3.3.66-7.3,2.2-10.24,1.31-2.5,9.75-12.85,11.96-14.63,2.9-2.35,4.35-2.56,8.1-2.28,4.08.3,26.39,5.63,29.61,7.38,2.66,1.45,3.99,4.17,4.49,7.07l.67.49c4.95.55,11.92-.27,16.24,2.26,3.21,1.89,12.49,14.02,12.89,17.74,1.78,16.64-1.59,36.81-1.18,53.72,3.86,32.55-12.52,60-23.55,89.15,6.11,88.08,10.32,176.55,17.78,264.54.61,7.2-.41,10.01,4.95,15.86,4.41,13.59,20.1,33.4,18.7,47.64-1.66,16.85-18.45,44.82-32.36,54.34-10.99,7.53-26.81,15.51-39.74,18.65-9.41,2.29-25.39,5.57-34.81,6.53-6.33.64-15.99.23-22.55,0ZM289.02,18.58c-3.03-.77-9.03.57-12.43,0,1.4,5.22,9.39,1.22,13.3,1.15.15-.2-.66-1.1-.87-1.15ZM270.8,50.08c.67-6.06,0-14.45,0-20.8,0-.31.79-1.12.16-1.85l-1.32-.75c-.22,9.8,4.66,23.31-8.6,26.08-1.08,8.45,4.47,2.62,8.61,1.39.3-.31,1.07-3.45,1.13-4.07ZM230.91,30.72h8.1c-.46-1.04-3.43-1.77-4.35-1.76s-3.4.74-3.75,1.76ZM293.35,95.44v-29.18c0-.27,1.32-2,1.71-2.34,3.02-2.66,15.07-2.09,15.07-2.86-4.1-1.56-13.84-.15-16.79-3.45-2.09-2.33-.91-11.41-1.15-15.04-.26-4.12-1.48-8.27-1.4-12.46-1.1-1.59-8.06,1.22-10.16.61l-.58,25.14c.41,1.39-1.8,3.83-1.67,4.54s1.95,1.97,2.25,4.71c.96,9.02-.68,19.63-.03,28.83l12.76,1.51ZM343.08,52.1c.65-.16,1.44-.96,1.62-1.56,1.12-3.8.4-10.57,1.4-14.78.39-1.63,1.71-2.66,2.19-4.17l-5.21,1.44v19.07ZM333.19,34.24l-8.61-2.37c-.09,6.71-1.91,13.06-3.31,19.52-.66,3.01.21,6.13-2.47,8.79,7.6-1.32,10.89,6.73,16.18,10.41.12-2.97,1-5.98.61-8.98-.23-1.74-1.33-2.28-1.64-3.56-1.74-7.19-.06-16.38-.75-23.81ZM373.15,37.65h-8.96c-1.09,0-3.78-1.22-5.49-.57-.04.37.77,1.15.87,1.15h13.59v-.58ZM248.83,39.96l-8.09.59c4.6,4.76,6.91,11.32,5.79,17.91l5.23-2.12-2.92-16.37ZM379.51,48.05l-24.87-.28c.02,1.43,1.07,1.25,2.03,1.44,7.43,1.49,15.17,1.64,22.55,3.47l.3-4.63ZM234.95,49.79l-17.62-1.18-1.2.56-.25,2.92,19.08-2.3ZM367.36,60.19l-15.61-1.73c1.91,1.7,9.46,5.61,11.58,4.95.44-.14,2.71-1.55,3.28-1.94.51-.35,1.07.09.75-1.29ZM236.64,59.67c-6.18.82-12.51.99-18.7,1.74-.56.07-1.95.3-2.09.91l.7,26.39,10.62,6.72c1.34.4.91-1.72.87-2.61-.3-7-2.26-15.15-2.28-22-.02-6.54,6.28-6.62,10.96-8.62l-.08-2.54ZM303.18,83.88v32.07c0,1.75-4.34,3.91-6.06,3.76-9.93-1.65-20.11-1.62-30.07-2.9-6.16-.79-9.39-.64-10.12-7.8-.34-3.38.56-6.23.6-9.22.03-2.55.28-18.62-.28-19.42l-20.86-5.16c-.53.73-.34,2.26-.27,3.16.55,7.29,2.11,15.31,2.33,22.52.54,17.82-14.44,2.25-21.99-.26v19.94c0,.85,2.8,10.19,3.34,11.11.71,1.22,1.74,1.63,2.85,2.35,30.58,19.9,76.22,21.99,111.31,15.55,5.91-1.08,20.93-4.64,26.04-6.91,4.72-2.1,8.72-8.36,14.22-8.61,5.03-11.61,3.77-23.28,4.12-35.47.04-1.37.59-2.63.63-4,.28-9.94-.38-19.88.55-29.78l-10.87,7.33-1.27,27.62c-.39,3.24-1.23,5.74-4.3,7.26-4.25,2.1-22.39,8.29-26.89,8.95-3.56.52-6.36-.04-6.93-4.11-.87-6.18-.3-18.19-.06-24.83.06-1.65.81-3.21.6-4.89l-26.6,1.73ZM248.84,68.27l11.89,2.86,3.71-3.14c.01-.85-7.72-2.04-8.96-2.32l-6.63,2.6ZM357.46,98.83l1.14-25.54-13.78-6.73-1.79,25.09c-.74,4.29-3.49,4.71-3.91,5.92-.6,1.74.23,5.14-.09,7.13l18.42-5.86ZM322.84,72.9c-1.34-2.12-2.32-3-4.92-2.93-4.39.12-9.29,1.48-13.8,1.28l-.95,2.81,19.66-1.16ZM272.74,102.17c-.76-.75-1.26-1.88-1.39-2.95-.88-7.46-.18-15.11-.55-22.57-.03-.65.38-1.59-.57-1.43l-3.46,4.34v27.43s27.16,2.32,27.16,2.32c-.12-1.07.54-4.82-.84-5.06-2.02.6-4.32.57-6.41.45-2.37-.13-5.79-.33-8.06-.61-1.85-.23-4.54-.61-5.88-1.93ZM237.26,174.61l-6.47-24.45c-.39-.8-4.04-3.18-4.51-2.71l10.98,27.15ZM367.94,149.77c-1.27-.13-2.24,1.19-2.76,2.15-1.84,3.47-2.73,10.1-4.18,14.02l6.93-16.17ZM246.52,154.96l-4.63-.86c1.35,4.31,2.19,8.84,3.65,13.11.21.61.12,1.75.98,1.62v-13.87ZM329.78,200.03c2.14-.79,10.6-2.34,11.47-3.85l12.81-41.8-15.66,4.41-8.61,41.24ZM301.27,213.72c-1.8,1.64-5.33,1.43-7.65,1.36-5.6-.17-14.64-.94-20.16-1.81-2.07-.32-3.42-1.2-4.65-2.86l-9.55-51.13-2.63-.84c.01,3.66-.75,7.69-.88,11.24-.36,9.66.49,21.23-.55,30.65-.34,3.08-2.15,6.57-5.8,5.85-1.47-.29-11.13-8.46-12.12-7.29l-2.22,32.55,19.49,17.51c2.54,7.19.58,15.41,1.33,22.95,5.08,3.74,12.99,5.55,14.22,12.94.93,5.61-.08,15.41-1.15,21.11-1.26,6.67-6.13,7.51-12.15,6.63-4.12-.61-7.18-3.44-10.85-5.05-.71,4.38-.77,14.07-4.02,17.07-4.41,4.09-9.43-.11-14.49.26l-4.62,59.82c-1.93,8.22,4.1,10.29,7.4,16.29,5.45,9.9,1,25.24-1.58,35.73.07,1.68,6.97,9.78,7.78,12.97.58,2.28.45,7.07.27,9.54-.19,2.64-1.64,12.83-2.46,14.88-.41,1.02-2.28,2.79-3.3,3.1-4.82,1.46-10.71-8.37-14.47-10.74l-1.76,23.38c-.2,6.82,2.7,20.57,5.68,26.73.73,1.52,15.5,17.96,17.18,19.23,3.55,2.67,20.32,10.61,24.84,12.16,6.51,2.23,28.68,6.18,35.22,5.68,9.56-.73,20.11-4.2,29.79-5.19.44-5.43-.81-14.83,2.11-19.57,2.56-4.15,12.69-6.93,17.22-9.95,3.77-2.52,6.71-6,9.93-9.15.84-4.45-.09-9.1.31-13.56.5-5.58,10.09-23.73,13.37-29.4.87-1.5,2.91-2.15,2.84-4.1l-18.54-275.96c-.83-.08-.94,1.36-1.16,2.01-1.18,3.47-3.34,13.23-5.64,15.33-.73.67-2.31,1.38-3.29,1.76-3.98,1.55-14.7,5-18.67,5.61-3.4.52-6.66-.34-7.12-4.17-1.06-8.92-.91-18.76-1.15-27.74-.16-5.75.24-11.52-.06-17.27l-1.3-.93-12.52,1.38c-.59.41-.49,1.12-.57,1.74-1.48,12.2.83,27.77.05,40.5-.13,2.15-.54,7.47-1.94,8.75ZM293.35,163.05c-7.6-.98-15.28-1.27-22.88-2.28-.98-.13-.87-.09-.85.85l7.23,41.91,16.5,1.71v-42.19ZM238.42,178.65v8.96c0,.2,3.04,2.43,3.47,2.02l-3.47-10.97ZM246.52,268.23v-13l-12.71-11.27c.39,3.4-2.02,12.92-.61,15.35,1,1.72,12.08,10.22,13.33,8.92ZM259.67,285.13c-.29-.3-6.92-3.81-7.35-3.92-1.73-.46-3.43.02-5.07-.72l-15.77-9.37c.59,5.12-1.68,10.44-.04,15.35l25.06,15.99,3.31.45c-.78-4.38,3.19-14.27-.15-17.77ZM236.57,301.28l-6.81-4.16-1.1,17.86c1.41-.03,5.82,1.93,6.62.66.27-4.83,2.08-9.48,1.3-14.36ZM221.65,425.41c.62-5.2,1.79-11.26,1.18-16.48-.14-1.2-.44-2.7-1.74-3.17-.1,2.01.13,4.05-.01,6.06-.2,2.84-1.22,7.2-1.17,9.85.02.9.73,3.37,1.75,3.73ZM226.27,462.39c.27-.2,1.15-5.82,1.18-6.67.15-4.39-5.85-11.93-8.68-15.29l-1.06,12.88,8.56,9.08ZM374.88,481.47c-1.03-.23-1.14.3-1.64.96-.86,1.14-6.11,11.55-6.32,12.76-.81,4.75-.55,17.3-.16,22.42.1,1.28.49,2.47.61,3.73,1.43-1.4,3.12-3.18,3.92-5.03,1.1-2.55,4.53-15.8,4.71-18.45.33-4.9-2.01-11.2-1.13-16.38ZM391.65,502.84c-1.42-.18-.92.01-1.21.81-2.34,6.34-2.65,14.88-5.71,20.88-1.77,3.47-17.77,22.42-20.88,24.78-4.37,3.31-25.52,12.43-31.16,13.94-8.4,2.25-33.26,6.64-41.29,5.98-20.47-1.69-42.5-8.65-60.12-19.08-4.73-2.8-21.2-20.31-23.98-25.15s-3.57-11.27-5.31-16.36l-2.86,11.2c1.94,4.54,2.48,10.37,4.33,14.79,1.29,3.08,15.45,19.75,18.46,22.58,8.18,7.65,34.1,17.03,45.26,18.33,22.64,2.65,52.05.22,74.06-6.04,6.63-1.89,29.35-14.43,33.89-19.29,2.94-3.15,15.21-19.76,16.64-23.25.96-2.34,2.83-9.81,2.82-12.25-.01-4.1-2.85-7.75-2.94-11.85ZM337.3,544.45c10.21-4.94,25.67-6.53,19.95-21.96-1.86,1.93-4.07,3.8-6.35,5.21-2.39,1.48-13.6,5.67-13.6,7.79v8.96ZM311.28,389v11.27c0,1.41-1.06,4.33-2.01,5.5-2.92,3.6-6.64,2.38-10.42,2.88-7.55,1-22.91,4.69-29.43,1.67-3.53-1.64-4.34-4.61-4.43-8.3-.1-4.1.14-16.47.89-19.96.16-.76,1.65-4.23,2.11-4.83,3.43-4.48,11.4.14,12.96-2.07,1.29-1.83,1.12-10.66,1.68-13.35,1.53-7.31,8.86-7.73,15.04-8.08,7.04-.4,14.06.82,20.86.62,5.68-.16,18.9-4.52,19.94,4.3.76,6.53.88,18.87-3.74,24.02-1.18,1.32-7.77,6.33-9.28,6.33h-14.17ZM290.46,375.71c2.8.07,6.08.24,8.82.73,5.8,1.04,9.93,3.14,16.31,3.34,12.11.39,14.32-4.2,13.53-15.84-.75-2.28-9.51.25-11.77.26-1.65,0-3.08-.65-4.6-.65-6.66.01-13.32.04-19.97.03l-2.32,12.13ZM274.85,385.82v15.6c0,.25.9.97,1.39.84l24.67-3.11.57-9.82c-3.26.28-4.04-2.77-5.24-3.51-1.3-.79-14.22-.19-17.08-.26-1.23-.03-3.86-1.27-4.31.26ZM345.22,227.38c3.07,2.84,1.3,7.11,1.3,10.51,0,4.58,1.99,12.82-1.97,16.48-.96.89-10.09,5.78-11.88,6.62-3.39,1.61-12.62,5.19-16.07,5.37-4.59.25-11.63-1.68-12.27-7.08-.55-4.66-.44-19.26,2.87-22.58.81-.81,1.92-1.23,2.94-1.68,4.88-2.17,21.53-8.05,26.43-8.83,2.36-.38,6.83-.48,8.65,1.2ZM337.3,236.44l-22.56,7.21-1.08,12.1c.61,2.57,10.66-1.66,12.47-2.45,3.87-1.69,7.29-4.24,11.17-5.88v-10.98Z"/>
</svg>