<?xml version="1.0" encoding="UTF-8"?>
<svg id="Ebene_1" xmlns="http://www.w3.org/2000/svg" version="1.1" viewBox="0 0 211.46 261.4">
  <!-- Generator: Adobe Illustrator 29.8.3, SVG Export Plug-In . SVG Version: 2.1.1 Build 3)  -->
  <path d="M125.2,189.04l4.93,55.35c0,5.63.44,15.34-6.59,16.48-5.9.96-24.56,1.45-25.5-6.38l4.07-63.56c-3.95-.55-7.62.98-11.5,1.09-9.43.27-9.47.71-18.45,2.46-29.43,5.75-59.65.25-67.6-32.49-2.7-11.1,3-19.7,2.27-27.42-.42-4.47-5.63-13.31-6.43-20.41C-3.6,78.73,22.67,41.62,61.11,51.95c3.22-24.57,11.46-45.16,37.95-50.55,38.66-7.86,73.37,18.11,69.47,58.55,19.82,7.71,40.46,23.76,42.55,46.5,3,32.6-12.11,51.55-40.62,64.33-6.7,3-14.21,4.54-20.58,7.41-8.33,3.76-14.42,11.01-24.66,10.82l-.02.03h0ZM155.09,58.96v-14.5c0-1.71-5.54-13.02-7-15-12.89-17.47-41.81-21.06-58.9-7.91-10.07,7.75-16.03,28.66-15.99,41.02.02,6.25,7.24,22.97-3.6,22.94s-5.99-18.2-11.73-20.82c-7.53-3.43-18.52-.88-25.45,3.07-15.98,9.12-25.23,38.87-15.81,55.16,2.87-5.33,22.76-25.85,25.34-11.24,1,5.66-9.68,12.86-13.35,17.24-23.98,28.64,1.77,62.15,36.55,52.55,1.55-.43,7.27-1.92,4.92-3.99-3.94-3.48-13.12-6.55-8.83-13.92,4.84-8.32,16.08,4.32,22.32,6.43,20.11,6.78,44.25.5,60.07-13.02,3.62-3.09,13.19-15.54,16.02-16.03,9.58-1.67,8.9,11.34,2.46,15.51,4.65.13,11.67-3.38,15.91-6.09,13.91-8.86,19.69-28.05,18.07-43.9-2.36-23.14-31.97-32.53-51.6-35.39-4.96-.72-17.14,1.68-18.38-5.67-2.5-14.87,26.99-4.45,29-6.45h-.02Z"/>
</svg>