<?xml version="1.0" encoding="UTF-8"?>
<svg id="Ebene_1" xmlns="http://www.w3.org/2000/svg" version="1.1" xmlns:svg="http://www.w3.org/2000/svg" viewBox="0 0 595.28 595.28">
  <!-- Generator: Adobe Illustrator 29.8.3, SVG Export Plug-In . SVG Version: 2.1.1 Build 3)  -->
  <path d="M500.67,267.08c1.04-.95,1.24-3.4,3.09-3.78l79.82-24.16,1.48-6.03c-4.99-22.68-11.2-45.01-13.4-68.23.24-1.26,6.25-1.36,7.83-1.78,3.59-.97,11.56-6.33,10.86-10.45-15.49-30.22-31.52-60.2-50.01-88.71-2.29-1.57-4.9-1.73-7.6-1.24l-39.71,10.96c.1-4.94.52-11.13,0-16.03-.88-8.23-14.61-14-20.92-18.35l-45.8,7.21c-2.9,1.39-6.33,3.24-7.03,6.7-1.23,6.08.28,16.07-.12,22.77-.15,2.47-1.12,4.89-.68,7.5l-49.59-.22-2.96,1.62c-20.3,23.37-36.69,49.65-55.08,74.42-2.26,3.05-5.16,3.26-4.06,8.09,1.43,6.24,10.04,3.36,14.29,5.42.73,10,.39,20.01.59,30.07.17,8.22,1.06,16.52.71,24.86-.23,5.54-3.14,22.15-1.98,26.07.27.92,1.98,4.06,2.63,4.62,2.24,1.97,22.81,4.77,27.57,5.78,24.99,5.34,51,11.41,75.75,17.77,2.32.6,6.15,2.75,8.21,2.95,2.72.27,16.56-4.87,18.61-6.83,1.93-1.85,2.47-5.26,2.62-7.86.34-6-2.74-7.62,6.88-5.62,1.28,4.03.48,18.92,2.91,21.29.52.51,1.55.96,2.28.95l32.82-19.77ZM470.85,277.02c-.34-.29-1.23-7.48-1.37-8.76-2.2-19.57-5.08-42.71-5.88-62.14-.09-2.28-.57-7.29,2.93-7.29,2.75,0,3.23,4.03,3.52,6.07,2.66,19.01,5.12,44.24,5.96,63.38.08,1.8.36,6.13-.32,7.52s-4.09,1.86-4.84,1.23ZM499.56,239.15l-3.41-48.59-1.45-2.48c-1.51-1.07-4.02-.63-5.85-.52-10.45.64-25.89,3.93-36.51,5.99-5.6,1.09-12.97.81-13.63,7.96-1.06,11.6,2.19,24.9,1.31,36.69-.25,8.49,3.08,20.76,2.02,28.79-.31,2.36-2.27,3.94-4.61,4.22l-1.28-77.15,33.04-5.87c4.38-1.81,5.66-9.96,7.87-10.37,1.07.08,2.07.53,3.17.54,13.24.08,28.25.14,40.88-4.3,4.37-1.53,11.42-7.25,14.86-8.03,6.58-1.48,15.5,2.22,22.39-.12,2.06,17.91,5.35,35.52,9.84,52.95-3.71,1.79-12.79,1.65-15.41,4.55s-2.57,11-1.53,14.68l-34.99,10.19c-2.49-.6.9-8.74-3.15-10.61-2.36-1.1-10.35,1.69-13.56,1.48ZM475.52,197.45c5.19-2.75,5.21,2.14,5.72,6.06,2.44,18.77,4.26,41.84,5.26,60.8.13,2.5.64,5.62-2.47,6.12-3.61.58-3.74-4.07-4.09-6.75-2.34-17.96-4.66-42.18-5.23-60.18-.06-2.02-.29-4.25.8-6.05ZM426.32,269.9l-66.06-15.36c-1.9-9.12,3.03-18.98-10.42-19.99-.25-3.34.32-11.22-1.4-13.97-1.47-2.36-10.16-4.24-12.95-5.04-1.53-1.76,1.28-40.21.62-46.74-.23-2.28-1.37-3.56-1.25-5.7l37.19-60.01c.6-.4,6.06,9.63,6.64,10.68,14.09,25.3,27.26,51.15,41.19,76.54l5,4.81.77,27.68-5.59-1.27c-.21-3.49-.18-13.96-2.43-16.21-2.01-2-9.76-2.36-12.56-2.13-3.67,1.93-12.27.31-14.98,2.02s-2.98,14.64-1.86,17.42c1.88,4.68,9.26,3.26,13.24,3.44-.03,3.94-.58,12.41,3.02,14.97,4.32,3.08,20.39,2.61,21.18,3.35l.65,25.52ZM485.98,196.8c3.04-3.04,5.38.95,5.73,4.09.64,5.78.28,12.48.66,18.31.78,11.93,2.28,24.02,2.64,35.96.15,4.82.19,15.61-5.9,7.21-1.06-18.97-2.44-37.9-3.29-56.89-.1-2.17-1.71-6.8.16-8.68ZM353.08,252.24l-17.27-5.16-.38-7.92c5.55,2.72,12.61-.36,17.65,3.6v9.49ZM509.37,250.27l-8.5,1.97c-2.17-7.61,1.33-7.36,7.84-7.19l.66,5.22ZM425.66,237.85l-16.86-2.1c-.89-2.19-2.2-9.18,1.3-8.9,1.84.15,15.04,2.57,15.47,3.23l.09,7.76ZM557.91,228.19l11.25-2.74,2.27,6.79-13.66,4.3c-.98-2.81-.92-5.58.14-8.35ZM335.42,222.8c6.09-.06,8.37,2.01,7.89,8.2-.42,5.33-4.3,2.05-7.89,1.61v-9.81ZM413.24,220.84c-6.32-.88-12.55-1.74-18.97-1.31l.29-7.89c5.76-.73,11.56-2.68,17.41-1.63,1.75,3.35,1.21,7.21,1.27,10.83ZM395.58,94.59h13.41c.3,0,2.01.76,2.32,1.11l49.6,81.71c.32,1.28-.12.73-.83.98-.95.33-5,1.13-5.68.87-2.72-1.01-12.41-16.01-15.65-18.6l9.14,19.95c-.02,1.45-5.4.88-6.77,1.06-2.4.32-10.06,2.46-11.52,1.56l-48.39-88.32h6.53s14.38,17.99,14.38,17.99l-6.53-18.32ZM419.13,95.24h12.75l22.55,28.13-13.08-27.14c2.57-.47,9.49-2.75,11.46-1l44.77,70.98c-1.02,1.63-1.37.33-1.62.33h-23.54c-1.22,0-5.67,3.63-5.54,5.5l-1.34.07-46.42-76.87ZM511.33,164.57l-7.11,1.24-44.55-73.19c5.65.02,12.76-3.07,18.09-3.25.76-.03,1.36-.07,1.85.63l44.08,69.09c.39,1.23-.28.74-.75,1.07-.79.56-3.65,2.48-4.42,2.13l-12.41-11.47,5.23,13.73ZM549.91,154.76c-1.21.89-11.17-.71-13.37-.67-1.91.03-6.67,2.37-7.46,1.9l-43.25-68.59,8.68-1.87,11.58,11.68-5.22-13.73c2.18-.2,4.96-2.2,6.91-.72l42.13,72.01ZM565.6,153.45l-7.44,1.16-2-1.85-42.22-73.21,18.92-4.95,1.63,1.04c6.72,11.73,14.12,23.09,20.75,34.86,5.14,9.12,18.47,31,21.16,39.67.21.67.43,1.26.3,1.98-1.12-.03-2.39.2-3.47-.12-1.45-.44-7.52-10.95-9.07-13.16-5.75-8.18-11.79-16.31-18.18-24l19.61,38.59ZM481.25,64.83c-.04,3.92.03,7.85,0,11.77l-23.52,4.88-1.05-13.11,23.66-5.13,1.25.6c.47.48-.35.81-.35.98ZM430.24,61.23l13.15,6.18,1.07,11.18c-.5,2.87-12.51-.45-14.22-2.65v-14.72ZM461.63,345.78c.04-5.11.57-11.64,0-16.68-.41-3.59-2.04-4.94-4.63-7.14-3.3-2.81-14.51-10.96-18.48-10.8-13.46,3.81-29.89,3.62-43.07,7.34-3.97,1.12-7.21,3.7-7.72,7.97-.79,6.57.45,14.79.04,21.63-.15,2.47-1.12,4.89-.68,7.5l-48.08-.67-4.89,2.3c-20.26,23.19-36.07,49.81-54.65,74.2-1.37,1.8-3.77,2.36-4.18,5-1.6,10.35,13.81,6.1,14.39,8.57.88,9.78.4,19.55.6,29.36.17,8.44,1.07,16.95.71,25.51-.3,7.13-2.8,18.27-2,24.85.48,3.94,2.82,6.25,6.53,7.2,9.62,2.47,20.77,3.65,30.77,5.85,25.71,5.67,51.27,12.3,76.8,18.68,3.91.27,14.73-3.37,17.98-5.61,3.8-2.62,3.58-9.98,2.93-14.06l7.56-.64,1.44,19.16,3.45,3.74c4.72-2.56,8.92-5.97,13.47-8.78,7.55-4.66,16.47-8.45,22.35-14.93l79.92-24.06c.69-2.07,1.69-4.46,1.51-6.67-.99-12.37-7.66-29.92-10.02-43.02-1.47-8.14-1.88-16.45-3.41-24.58.29-1.49,6.29-1.52,7.71-1.89,3.31-.86,11.28-6.12,11.09-9.79-14.59-30.08-31.34-58.96-48.51-87.6-2.06-3.53-5.55-3.38-9.2-2.89l-39.73,10.95ZM433.02,471.54c3.28-3.32,5.99,3.17,5.72,6.06l6.35,68.16c-.29,3.14-2.78,4-5.62,3.38l-7.2-75.44c.14-.71.24-1.64.75-2.16ZM468.17,511.27l-3.41-49.25c-2.03-3.8-5.01-2.71-8.6-2.33-14.57,1.55-29.96,5.47-44.5,7.82-2.92,1.4-4.05,2.89-4.35,6.12-1.03,11.33,2.14,24.5,1.31,36.04-.22,8.77,3.11,21.1,2.02,29.44-.31,2.36-2.27,3.94-4.61,4.22l-1.24-77.12,32.44-5.81c4.05-.49,5.95-9.71,8.48-10.48,7.73.1,15.58,1.12,23.33.44,5.2-.46,16.19-2.67,21.03-4.47,4.26-1.58,10.92-7,14.51-7.73,4.62-.94,9.67.4,14.2.53,2.92.09,5.46-.58,8.25-.41,1.65,8.15,2,16.52,3.43,24.7,1.65,9.4,4.53,18.6,6.31,27.96-3.29,1.8-13.26,1.75-15.5,4.13-2.48,2.64-2.13,11.99-1.53,15.49l-34.88,9.88c-2.35-2.8.66-8.9-3.16-10.67-2.38-1.1-10.4,1.5-13.56,1.49ZM454.28,541.86c-.56.57-1.82.85-2.64.72-2.53-.62-2.77-5.2-3.08-7.43-2.49-17.91-4.54-42.07-5.27-60.15-.1-2.6-.31-6.15,3.03-6.22,3.16-.07,3.22,3.76,3.53,6.21,2.33,18.26,4.65,42.55,5.23,60.83.05,1.57.29,4.94-.8,6.04ZM394.93,542.02l-66.06-15.36c-1.25-.94.22-8.04,0-10.48-.56-6.27-4.34-9.32-10.45-9.49-.33-3.78.74-10.36-1-13.72-1.68-3.23-12.58-4.25-13.28-6.34l.59-46.38-1.27-5.03,37.2-60.01c.48-.32,1.76,1.65,2.08,2.16,16.7,26.32,29.64,58.1,45.76,85.05l5.15,4.14.62,28.34-5.22-.66c-1.84-8.26,2.29-17.82-8.84-18.95-4.26-.43-12.52.21-16.98.66-1.3.13-3.61.52-4.62,1.27-2.44,1.82-3.01,15.32-1.53,17.95,2.15,3.81,9.3,2.98,13.01,3.02-.07,3.59-.37,12.76,3.01,14.98,4.78,3.15,15.67,2.04,21.11,3.41l.73,25.44ZM459.51,468.92c1.3,1.5,1.26,18.37,1.47,21.74.76,11.92,2.29,24.03,2.64,35.96.14,4.87.39,16.47-5.9,7.86-.84-19.2-2.63-38.33-3.29-57.54-.07-2.1-1.84-7.03.65-8.53,1.02-.61,3.71-.32,4.43.51ZM321.69,524.36l-17.7-5.63.05-7.45c2.51,1.19,17.65.92,17.65,3.6v9.49ZM477.93,522.35l-8.45,2.01c-2.22-8.08,1.46-6.82,7.84-7.86l.61,5.85ZM394.27,509.97c-7.79-1.76-20.63,2.18-17.36-10.5.48-.72,1.17-.62,1.9-.59,1.44.06,14.22,2.44,14.82,2.9,1.37,1.04.32,6.3.64,8.19ZM540.1,504.73l-13.36,3.95c-1.38-.12-1.37-7.38.03-8.58l10.98-2.48,2.34,7.11ZM304.04,494.27c1.87.44,5.67,1.11,6.83,2.65,1.04,1.38,1.88,8.63.07,8.95-2.39-.81-5.12.04-6.9-2.12v-9.49ZM362.89,491.66c.29-2.07-.91-7.93,1.27-8.83.61-.25,1.88.41,2.86.26,2.65-.4,12.36-2.61,13.86-.61s.81,8.03.96,10.48c-6.2-1.51-12.62-1.36-18.96-1.3ZM364.2,366.71h14.71l50.69,82.74c.19,1.44-.24.78-.97,1-.91.28-5.03,1.15-5.62.93l-15.65-18.61,9.13,19.96c-1.28,1.78-3.25.53-5.11.76-4.27.51-8.53,1.46-12.75,2.23l-48.8-88.7c-.63-2.14,5.55-.11,6.5.05l14.4,17.96-6.53-18.32ZM387.74,367.37h13.41l21.25,26.82-12.42-25.84c-.15-1.33.06-.86.97-.98,1.31-.17,9.45-1.01,9.85-.72l45.42,72.02h-25.18c-1.81,0-5.66,3.72-5.57,5.89l-1.6-.68-46.13-76.51ZM479.94,436.7l-7.16,1.29-44.5-73.23c5.55-.31,12.08-2.9,17.43-3.24.94-.06,1.82-.26,2.51.62l44.09,69.07c.35,1.28-.28.75-.79,1.05-.84.5-3.79,2.46-4.4,2.18l-12.41-11.48,5.23,13.73ZM518.52,426.89c-1.21.9-11.52-.86-14.05-.66s-4.3,1.91-6.78,1.89l-43.25-68.59c2.4.05,5.39-1.94,7.61-1.95,3.5-.01,9.13,9.96,12.65,11.76l-5.22-13.38,6.54-2.04,42.5,72.98ZM534.21,425.58c-2.51,0-6.69,1.77-8.82,0l-42.84-73.91,20.21-5.19c7.09,13.47,15.64,26.13,23.06,39.41,4.72,8.45,16.68,28.35,19.2,36.39.21.67.43,1.26.3,1.98l-4.61-.94c-7.63-12.46-16.25-24.36-25.46-35.69l18.96,37.93ZM449.86,336.95c-.03,3.92.02,7.85,0,11.77l-23.54,4.91-1.02-13.12,24.21-5.18c1.52.84.36,1.36.35,1.63ZM398.85,333.35l13.47,5.86.75,11.5c-.52,3.03-12.42-.77-14.22-2.65v-14.72ZM189.6,186.17v-16.68c0-1.27-1.95-4.51-2.95-5.55-1.78-1.84-12.01-8.99-14.49-10.36-2.81-1.55-3.78-1.56-6.99-1.34-10.28.72-31.12,4.08-41.1,6.63-11.9,3.05-8.01,13.24-8.32,23.07-.06,1.84-.07,4.21-.17,5.86-.09,1.53-.58,8.16-1.13,8.56l-48.97-.59-2.96,1.62c-20.52,23.19-36.54,49.79-55.08,74.42-2.52,3.35-7.59,5.21-3.45,10.1,2.84,3.35,9.55,2.49,13.64,3.03l1.33,54.65-2.62,25.45c1.02,2.76,2.19,6.18,5.32,7.11,33.71,6.42,67.34,13.9,100.59,22.35,2.61.66,6.56,2.84,8.83,3,2.96.21,15.98-4.65,18.31-6.58,4.26-3.53,1.48-9.18,2.57-13.78.64-.92,7.69-1.49,7.56,1.02.4,3.81.33,18.78,2.89,20.66.62.45,1.16.75,1.95.62l31.73-19.34,3.76-4.08,79.54-23.78c1.4-.85,2.06-5.22,1.96-6.99-4.96-22.49-11.13-44.69-13.25-67.73l1.04-.96c5.83.76,18.06-4.63,17.21-11.49-7.46-14.69-14.73-29.62-22.76-44-7.04-12.62-15.94-29.08-24.04-40.71-2.94-4.23-3.92-5.84-9.58-5.12l-40.38,10.95ZM167.37,390.27c-.34-2.72-.98-5.47-1.31-8.19-2.36-19.74-5.09-43.09-5.88-62.79-.08-1.86-.5-5.8.91-6.92,2.15-1.71,4.8-.28,4.93,2.39,1.1,22.85,5.75,46.53,6.61,69.27.05,1.36.26,3.6-.61,4.67l-4.64,1.57ZM196.14,351.67l-3.31-48.04c-.69-5.37-7.24-3.38-11.32-2.9-11.25,1.34-29.1,3.83-39.79,6.64-4.49,1.18-7.01,3.74-7.05,8.65-.08,11.39,1.31,25.54,1.97,37.28.51,9.23,2.17,18.62,1.61,27.79-1.15,1.26-2.25,2.96-4.23,2.63l-1.3-77.18,33.06-5.85c3.16-.53,5.31-9.1,7.26-9.75,14.51-.13,29.78.59,43.74-3.99,4.82-1.58,12.11-7.57,15.8-8.4,6.31-1.42,15.74,2.36,22.42-.14,1.54,17.99,5.43,35.5,9.54,53.01-3.79,2.08-12.83,1.57-15.44,4.86s-2.15,10.7-1.3,14.71l-35.62,9.85c.48-14.82-5.31-10.09-16.03-9.16ZM121.59,307.51v27.8l-5.16-.72c-.88-5.99,1.68-17.07-6.34-18.19-5.52-.77-9.18.11-14.34.58-4.69.43-9.43-1.83-10.98,4.06-.77,2.92-1.41,12.22.2,14.6.44.66,3.07,2.94,3.6,2.94h9.48v9.49c0,.44,1.26,3.64,1.65,4.23,2.94,4.51,17.34,4,22.54,4.6.11,4.68-.14,9.4-.03,14.09.05,1.93,1.98,11.58-.28,11.97l-65.68-15.66c-.25-9.52,2.56-18.52-9.76-20.34-2.17-5.5,1.84-12.03-3.88-15.41-1.81-1.07-10.46-3.05-10.65-3.87.23-13.27-.2-26.56,0-39.82.06-4.05,1.52-7.33-.61-11.7l37.58-60.55c13.97,25.32,27.6,50.81,41.64,76.09,3.24,5.84,4.7,12.68,11,15.81ZM182.25,382.25c-2.84,2.86-5.86-1.04-5.66-4.16-.53-20.21-4.75-41.34-5.33-61.39-.12-4.19-.31-9.69,5.31-6.46.52,2.09.98,4.3,1.24,6.44,2.33,19,4.42,42.43,5.26,61.51.05,1.14-.03,3.26-.83,4.06ZM187.45,377.72c-2.05-.61-2.23-6.44-2.42-8.72-1.46-17.54-2.61-36.68-3.31-54.26-.33-8.39,5.62-8.59,6.5-1.26,1.51,12.72,1.33,27.49,2.04,40.47.25,4.53,1.19,9.88,1.33,14.37.1,3.32,1.01,10.93-4.14,9.4ZM49.66,364.75l-17.99-5.88-.31-6.56c5.9,1.12,13.05-.02,18.31,2.95v9.49ZM205.95,362.78l-9.16,1.97c-1.18-7.54,2.11-7.43,8.5-7.2l.66,5.23ZM122.25,350.36c-3.83-.87-14.3-.01-17.01-2.28-1.39-1.16-.32-6.23-.65-8.19.65-.64,15.15,1.6,16.62,2.68,2,1.47.7,5.49,1.04,7.79ZM267.35,345.72l-12.64,3.27c-1.75-.42-1.08-6.13-.6-7.65l11.98-3.41,1.25,7.79ZM39.2,346.43c-2.58.4-4.79-.71-7.19-1.31v-9.81l7.19,1.96v9.16ZM109.83,333.35c-6.33-.71-12.54-1.55-19-1.62l.03-8.2c6.29.42,12.05-1.95,18.32-.65l.65,10.47ZM143.82,294.1c-4.26-1.32-14.46,3.1-17.64,1.63-.52-.24-.93-.87-1.31-1.31l-47.09-87.32,6.26.6,13.69,17.05-6.22-17.65,14.7.66,1.68.93,49.59,81.23c.41,1.08-.46,1-1.23,1.22-1.04.31-5.17,1.15-5.89.7l-15.7-18.68,9.15,20.93ZM115.05,207.76h13.41l21.9,27.47-13.07-26.5,11.67-1.52,44.55,71.54c.19,1.32-.05.84-.95.96-9.6,1.25-25.08-5.68-30.09,5.89l-47.41-77.85ZM202.03,263.36l5.87,13.41-7.1,1.56-44.56-72.87,18.14-3.43,2.13,1.49,43.81,68.67c-1.13.94-4.66,3.24-5.85,2.65-2.01-1-7.66-8.09-10.15-10.18-.73-.62-1.06-1.59-2.29-1.3ZM244.86,267.28c-4.32-.59-11.04,0-15.69,0-.42,0-3.25,2.2-3.58,1.96l-43.16-68.37c-.22-1.36.18-.78.89-1.04.98-.36,6.6-1.94,7.14-1.8l12.22,11.68-5.26-13.35c.1-.57,6.15-2.53,6.91-1.05l41,70.19.51,2.42c-.25.33-.79-.63-.97-.65ZM242.57,227.38l18.88,37.71c.2,1.94-7.09,2.53-8.26,1.37l-42.64-73.45c-.26-1.41.21-.74.93-.96,6.06-1.84,12.32-3.15,18.37-5.03,15.94,25.02,30.48,50.95,43.45,77.64l-4.23.02-26.5-37.3ZM177.83,175.7v13.41c-.81,1.02-2,1.13-3.14,1.44-2.21.6-19.02,3.72-19.98,3.4-.85-.28-.94-.79-1.08-1.57-.31-1.74-.98-9.81-.57-11.04.18-.53.45-.84,1.02-.94l23.74-4.7ZM126.82,189.44v-15.7l12.78,5.86.95,12.46c-5.19.82-8.99-1.22-13.74-2.62ZM360.99,155.04c-.6-4.19.62-18.1,1.93-22.15,2.74-8.47,19.22-5.62,20.2.66.47,3.04.48,23.48-.25,25.83-1.27,4.06-6.34,3.33-9.65,3.04-5.17-.45-11.35-1.28-12.23-7.39ZM518.93,226.54c12.91-4.75,28.59-7.14,41.14-12.21,10.34-4.18-1.21-9.48-4.81-13.56.29-3.28-.65-6.58-.8-9.66-.24-4.73,2.34-19.62-4.57-19.06-11.1,4.08-27.02,4.6-37.57,8.91-2.95,1.2-4.67,3.75-4.95,6.82-.92,10.08.63,21.7.17,31.94.92,4.1,8.29,4.41,11.39,6.82ZM553.18,209.06l-33.84,9.7c-4.58-.36-8.95-5.23-3.14-7.77,8.15-3.56,21.01-4.18,29.64-7.67,1.73-.81,7.92,5.17,7.34,5.74ZM329.54,426.57c-.46-3.95.85-19.67,2.48-23.03,3.12-6.45,18.91-4.58,19.77,2.74.4,3.44.5,22.66-.31,25.23-1.18,3.75-5.22,3.31-8.35,3.04-5.93-.51-12.77-.95-13.59-7.98ZM488.11,498.58l41.89-12.78c8.12-4.03-2.84-9.7-6.14-12.89l-1.49-26.64c-.88-1.3-2.3-2.46-4-2.23l-37,8.82c-3.13,1.34-5.07,3.57-5.39,7.04-.93,10.07.63,21.7.17,31.94.79,3.61,8.87,4.9,11.95,6.74ZM521.79,481.18l-33.79,9.65c-3.51-.73-8.53-3.85-4.62-7.23l30.98-8.27c1.53-.88,8.33,5.01,7.42,5.86ZM60.95,273.32c-1.49-.69-2.97-2.98-3.29-4.56-.9-4.45.31-19.59,1.85-24.01,2.49-7.1,18.61-5.17,20.09,1.4.59,2.62.59,22.61,0,25.24-.67,3-3.69,4.34-6.52,4.24-1.89-.07-10.61-1.6-12.13-2.31ZM215.58,339.11c12.72-4.8,28.77-7.09,41.06-12.28,1.98-.84,4.26-1.74,4.24-4.21-.15-2.96-6.42-6.02-8.22-8.2-3.75-4.52.06-20.91-2.4-27.69-.89-2.47-3.76-1.88-5.89-1.62-4.68.58-34.29,7.56-37.08,9.34-1.04.67-2.04,2.04-2.96,2.92l-.2,35.5c.82,3.55,8.55,4.17,11.46,6.23ZM249.11,321.57l-33.2,9.68c-4.29-.37-8.99-4.67-3.57-7.54l30.08-7.93c1.36-.38,7.52,4.7,6.69,5.78Z"/>
</svg>